<?xml version="1.0" encoding="UTF-8"?>
<svg id="Calque_1" xmlns="http://www.w3.org/2000/svg" version="1.1" xmlns:xlink="http://www.w3.org/1999/xlink" viewBox="0 0 6957.3 1598.9">
  <!-- Generator: Adobe Illustrator 29.0.1, SVG Export Plug-In . SVG Version: 2.1.0 Build 192)  -->
  <defs>
    <style>
      .st0 {
        mask: url(#mask-1);
      }

      .st1 {
        fill: url(#Dégradé_sans_nom_9);
      }

      .st1, .st2, .st3, .st4, .st5, .st6, .st7, .st8, .st9 {
        stroke-miterlimit: 8.5;
      }

      .st1, .st3, .st7 {
        stroke: #393939;
      }

      .st1, .st3, .st7, .st9 {
        stroke-width: .8px;
      }

      .st10 {
        fill: url(#Dégradé_sans_nom_6);
      }

      .st11 {
        fill: #fff;
      }

      .st12 {
        mask: url(#mask);
      }

      .st2, .st4 {
        stroke: #595959;
      }

      .st2, .st4, .st5, .st6, .st8, .st9 {
        fill: none;
      }

      .st2, .st5, .st6 {
        stroke-width: 8.5px;
      }

      .st3 {
        fill: url(#Dégradé_sans_nom_8);
      }

      .st13 {
        fill: #b2b2b2;
      }

      .st14 {
        isolation: isolate;
      }

      .st15 {
        fill: #ffce00;
      }

      .st16 {
        opacity: 0;
      }

      .st4 {
        stroke-width: 1.7px;
      }

      .st5 {
        stroke: #fff;
      }

      .st17 {
        fill: url(#Dégradé_sans_nom_4);
      }

      .st18 {
        fill: #595959;
      }

      .st6 {
        stroke: #ffce00;
      }

      .st19 {
        fill: url(#Nouvelle_nuance_de_dégradé_1);
      }

      .st20 {
        fill: url(#Dégradé_sans_nom_3);
      }

      .st7 {
        fill: url(#Dégradé_sans_nom_7);
      }

      .st8 {
        stroke-width: 3.4px;
      }

      .st8, .st9 {
        stroke: #000;
      }

      .st21 {
        fill: url(#Dégradé_sans_nom_5);
      }

      .st22 {
        opacity: .3;
      }

      .st23 {
        fill: #393939;
      }

      .st24 {
        opacity: .1;
      }
    </style>
    <radialGradient id="Nouvelle_nuance_de_dégradé_1" data-name="Nouvelle nuance de dégradé 1" cx="548.1" cy="1062.6" fx="1001.2" fy="1032.7" r="553.9" gradientTransform="translate(1084.4 3370.9) rotate(-20.8) scale(.8 -2.4)" gradientUnits="userSpaceOnUse">
      <stop offset="0" stop-color="#fffefd"/>
      <stop offset=".2" stop-color="#e8d495"/>
      <stop offset=".3" stop-color="#dab951"/>
      <stop offset=".4" stop-color="#d4af37"/>
      <stop offset=".5" stop-color="#a2862a"/>
      <stop offset=".6" stop-color="#69571b"/>
      <stop offset=".7" stop-color="#3c310f"/>
      <stop offset=".8" stop-color="#1b1607"/>
      <stop offset=".8" stop-color="#070602"/>
      <stop offset=".9" stop-color="#000"/>
    </radialGradient>
    <mask id="mask" x="421.9" y="365.1" width="374.9" height="900.4" maskUnits="userSpaceOnUse">
      <g id="SVGID">
        <image class="st14" width="443" height="1064" transform="translate(421.9 365.1) scale(.8)" xlink:href="logo_wordmark_blanc2-1.png"/>
      </g>
    </mask>
    <radialGradient id="Dégradé_sans_nom_3" data-name="Dégradé sans nom 3" cx="671.4" cy="131.3" fx="111.7" fy="82.1" r="561.9" gradientTransform="translate(329.4 903.9) rotate(20.8) scale(.8 -2.4)" gradientUnits="userSpaceOnUse">
      <stop offset="0" stop-color="#fff"/>
      <stop offset=".1" stop-color="#b1c2b1"/>
      <stop offset=".3" stop-color="#527852"/>
      <stop offset=".4" stop-color="#174917"/>
      <stop offset=".5" stop-color="#003700"/>
      <stop offset=".6" stop-color="#002a00"/>
      <stop offset=".9" stop-color="#000900"/>
      <stop offset=".9" stop-color="#000"/>
    </radialGradient>
    <mask id="mask-1" x="783.2" y="365.1" width="374.9" height="900.4" maskUnits="userSpaceOnUse">
      <g id="SVGID1" data-name="SVGID">
        <image class="st14" width="443" height="1064" transform="translate(783.2 365.1) scale(.8)" xlink:href="logo_wordmark_blanc2-2.png"/>
      </g>
    </mask>
    <linearGradient id="Dégradé_sans_nom_4" data-name="Dégradé sans nom 4" x1="18.3" y1="1065.7" x2="327.7" y2="1065.7" gradientTransform="translate(478.8 1566) scale(.8 -.8)" gradientUnits="userSpaceOnUse">
      <stop offset="0" stop-color="#fff"/>
      <stop offset="1" stop-color="#000"/>
    </linearGradient>
    <linearGradient id="Dégradé_sans_nom_5" data-name="Dégradé sans nom 5" x1="74.9" y1="960.4" x2="272.4" y2="960.4" gradientTransform="translate(478.8 1566) scale(.8 -.8)" gradientUnits="userSpaceOnUse">
      <stop offset="0" stop-color="#fff"/>
      <stop offset="1" stop-color="#000"/>
    </linearGradient>
    <linearGradient id="Dégradé_sans_nom_6" data-name="Dégradé sans nom 6" x1="100.3" y1="942.7" x2="249.3" y2="942.7" gradientTransform="translate(478.8 1566) scale(.8 -.8)" gradientUnits="userSpaceOnUse">
      <stop offset="0" stop-color="#fff"/>
      <stop offset="1" stop-color="#000"/>
    </linearGradient>
    <linearGradient id="Dégradé_sans_nom_7" data-name="Dégradé sans nom 7" x1="2676.8" y1="-4440.3" x2="2528.3" y2="-4588.7" gradientTransform="translate(2132.7 -3528.6) rotate(45) scale(.8 -.8)" gradientUnits="userSpaceOnUse">
      <stop offset="0" stop-color="#fff"/>
      <stop offset=".8" stop-color="#000"/>
    </linearGradient>
    <linearGradient id="Dégradé_sans_nom_8" data-name="Dégradé sans nom 8" x1="2624.8" y1="-4699.5" x2="2570.8" y2="-4753.4" gradientTransform="translate(2132.7 -3528.6) rotate(45) scale(.8 -.8)" gradientUnits="userSpaceOnUse">
      <stop offset="0" stop-color="#fff"/>
      <stop offset=".8" stop-color="#000"/>
    </linearGradient>
    <linearGradient id="Dégradé_sans_nom_9" data-name="Dégradé sans nom 9" x1="2620.5" y1="-4631.6" x2="2573.1" y2="-4679" gradientTransform="translate(2132.7 -3528.6) rotate(45) scale(.8 -.8)" gradientUnits="userSpaceOnUse">
      <stop offset="0" stop-color="#fff"/>
      <stop offset=".8" stop-color="#000"/>
    </linearGradient>
  </defs>
  <g>
    <g>
      <polygon class="st11" points="1084.1 794.8 1265.3 991.1 789.9 795.4 789.9 795.4 1084.1 794.8"/>
      <polygon class="st13" points="1265.3 991.1 998.4 1003 789.9 795.4 1265.3 991.1"/>
      <polygon class="st13" points="1264.4 597.6 1084.1 794.8 789.9 795.4 1264.4 597.6"/>
      <polygon class="st11" points="1264.4 597.6 789.9 795.4 997.5 586.9 1264.4 597.6"/>
      <polygon class="st11" points="998.4 1003 987.7 1270 789.9 795.4 998.4 1003"/>
      <polygon class="st13" points="985.6 320 997.5 586.9 789.9 795.4 985.6 320"/>
      <polygon class="st13" points="789.9 795.4 987.7 1270 790.6 1089.6 789.9 795.4"/>
      <polygon class="st11" points="985.6 320 789.9 795.4 789.9 795.4 789.3 501.2 985.6 320"/>
      <polygon class="st11" points="789.9 795.4 790.6 1089.6 594.2 1270.8 789.9 795.4 789.9 795.4"/>
      <rect class="st11" x="789.9" y="795.4" width="0" height="0" transform="translate(-9.4 1581.4) rotate(-89.7)"/>
      <polygon class="st11" points="789.9 795.4 789.9 795.4 495.7 796.1 314.5 599.7 789.9 795.4"/>
      <polygon class="st11" points="789.9 795.4 582.3 1003.9 315.4 993.2 789.9 795.4"/>
      <polygon class="st13" points="582.3 1003.9 789.9 795.4 594.2 1270.8 582.3 1003.9"/>
      <polygon class="st13" points="789.3 501.2 789.9 795.4 592.1 320.9 789.3 501.2"/>
      <polygon class="st11" points="592.1 320.9 789.9 795.4 581.4 587.8 592.1 320.9"/>
      <polygon class="st13" points="581.4 587.8 789.9 795.4 314.5 599.7 581.4 587.8"/>
      <polygon class="st13" points="789.9 795.4 315.4 993.2 495.7 796.1 789.9 795.4"/>
    </g>
    <g>
      <polygon class="st8" points="1265.3 991.1 998.4 1003 987.7 1270 790.6 1089.6 594.2 1270.8 582.3 1003.9 315.4 993.2 495.7 796.1 314.5 599.7 581.4 587.8 592.1 320.9 789.3 501.2 985.6 320 997.5 586.9 1264.4 597.6 1084.1 794.8 1265.3 991.1"/>
      <line class="st8" x1="789.9" y1="795.4" x2="987.7" y2="1270"/>
      <line class="st8" x1="592.1" y1="320.9" x2="789.9" y2="795.4"/>
      <line class="st8" x1="789.9" y1="795.4" x2="314.5" y2="599.7"/>
      <line class="st8" x1="1265.3" y1="991.1" x2="789.9" y2="795.4"/>
      <line class="st8" x1="789.9" y1="795.4" x2="495.7" y2="796.1"/>
      <line class="st8" x1="1084.1" y1="794.8" x2="789.9" y2="795.4"/>
      <line class="st8" x1="789.9" y1="795.4" x2="315.4" y2="993.2"/>
      <line class="st8" x1="1264.4" y1="597.6" x2="789.9" y2="795.4"/>
      <line class="st8" x1="789.9" y1="795.4" x2="582.3" y2="1003.9"/>
      <line class="st8" x1="997.5" y1="586.9" x2="789.9" y2="795.4"/>
      <line class="st8" x1="789.9" y1="795.4" x2="594.2" y2="1270.8"/>
      <line class="st8" x1="985.6" y1="320" x2="789.9" y2="795.4"/>
      <polyline class="st8" points="789.3 501.2 789.9 795.4 789.9 795.4 789.9 795.4 790.6 1089.6"/>
      <polyline class="st8" points="581.4 587.8 789.9 795.4 789.9 795.4 789.9 795.4 998.4 1003"/>
    </g>
  </g>
  <g>
    <g>
      <polygon class="st13" points="1489 795.4 1063.7 908.8 789.9 795.4 1489 795.4"/>
      <polygon class="st11" points="1489 795.4 789.9 795.4 1063.7 682 1489 795.4"/>
      <polygon class="st13" points="1284.3 301.1 1063.7 682 789.9 795.4 789.9 795.4 1284.3 301.1"/>
      <polygon class="st11" points="1284.3 301.1 789.9 795.4 789.9 795.4 903.3 521.6 1284.3 301.1"/>
      <polygon class="st11" points="1063.7 908.8 1284.3 1289.8 789.9 795.4 789.9 795.4 1063.7 908.8"/>
      <polygon class="st13" points="789.9 795.4 1284.3 1289.8 903.3 1069.2 789.9 795.4"/>
      <polygon class="st13" points="789.9 96.3 903.3 521.6 789.9 795.4 789.9 96.3"/>
      <polygon class="st11" points="789.9 795.4 903.3 1069.2 789.9 1494.5 789.9 795.4"/>
      <polygon class="st13" points="789.9 795.4 789.9 1494.5 676.5 1069.2 789.9 795.4 789.9 795.4 789.9 795.4"/>
      <polygon class="st11" points="789.9 795.4 789.9 795.4 789.9 795.4 789.9 795.4 676.5 521.6 789.9 96.3 789.9 795.4"/>
      <polygon class="st13" points="676.5 521.6 789.9 795.4 295.6 301.1 676.5 521.6"/>
      <polygon class="st13" points="789.9 795.4 295.6 1289.8 516.1 908.8 789.9 795.4"/>
      <polygon class="st11" points="295.6 1289.8 789.9 795.4 676.5 1069.2 295.6 1289.8"/>
      <polygon class="st11" points="295.6 301.1 789.9 795.4 516.1 682 295.6 301.1"/>
      <polygon class="st11" points="789.9 795.4 516.1 908.8 90.8 795.4 789.9 795.4"/>
      <polygon class="st13" points="789.9 795.4 90.8 795.4 516.1 682 789.9 795.4"/>
    </g>
    <g>
      <polygon class="st8" points="1489 795.4 1063.7 908.8 1284.3 1289.8 903.3 1069.2 789.9 1494.5 676.5 1069.2 295.6 1289.8 516.1 908.8 90.8 795.4 516.1 682 295.6 301.1 676.5 521.6 789.9 96.3 903.3 521.6 1284.3 301.1 1063.7 682 1489 795.4"/>
      <line class="st8" x1="789.9" y1="795.4" x2="1284.3" y2="1289.8"/>
      <line class="st8" x1="295.6" y1="301.1" x2="789.9" y2="795.4"/>
      <line class="st8" x1="789.9" y1="795.4" x2="295.6" y2="1289.8"/>
      <line class="st8" x1="1284.3" y1="301.1" x2="789.9" y2="795.4"/>
      <line class="st8" x1="789.9" y1="795.4" x2="1489" y2="795.4"/>
      <line class="st8" x1="90.8" y1="795.4" x2="789.9" y2="795.4"/>
      <line class="st8" x1="789.9" y1="795.4" x2="789.9" y2="1494.5"/>
      <line class="st8" x1="789.9" y1="96.3" x2="789.9" y2="795.4"/>
      <polyline class="st8" points="789.9 795.4 789.9 795.4 903.3 1069.2"/>
      <line class="st8" x1="676.5" y1="521.6" x2="789.9" y2="795.4"/>
      <line class="st8" x1="789.9" y1="795.4" x2="516.1" y2="682"/>
      <line class="st8" x1="1063.7" y1="908.8" x2="789.9" y2="795.4"/>
      <line class="st8" x1="789.9" y1="795.4" x2="516.1" y2="908.8"/>
      <line class="st8" x1="1063.7" y1="682" x2="789.9" y2="795.4"/>
      <polyline class="st8" points="903.3 521.6 789.9 795.4 789.9 795.4 789.9 795.4 789.9 795.4 676.5 1069.2"/>
    </g>
  </g>
  <g>
    <g>
      <path class="st19" d="M789.2,1259.2c0-.2,0-.6,0-.6h0c-1.2-338.2,3.1-675,.8-886.6l-4.2-.4c-33.9,18.6-72.6,37.3-116.1,54-90.6,34.9-173.9,50.8-241.1,57.9-1.2,42.1-1,94.8,3.3,155.2,3.6,49.8,6.9,96.5,20.1,156.5,6.7,30.5,18.8,84,47.5,148.5,21.5,48.4,68.8,139.6,159.9,225.3,34.5,32.5,59.7,52.5,81,65.4,20,12.1,37.2,20.1,48,24.8.3,0,.6,0,.8,0Z"/>
      <path class="st2" d="M789.2,1259.2c0-.2,0-.6,0-.6h0c-1.2-338.2,3.1-675,.8-886.6l-4.2-.4c-33.9,18.6-72.6,37.3-116.1,54-90.6,34.9-173.9,50.8-241.1,57.9-1.2,42.1-1,94.8,3.3,155.2,3.6,49.8,6.9,96.5,20.1,156.5,6.7,30.5,18.8,84,47.5,148.5,21.5,48.4,68.8,139.6,159.9,225.3,34.5,32.5,59.7,52.5,81,65.4,20,12.1,37.2,20.1,48,24.8.3,0,.6,0,.8,0Z"/>
    </g>
    <g class="st12">
      <g class="st22">
        <path class="st15" d="M789.2,1259.2c0-.2,0-.6,0-.6h0c-1.2-338.2,3.1-675,.8-886.6l-4.2-.4c-33.9,18.6-72.6,37.3-116.1,54-90.6,34.9-173.9,50.8-241.1,57.9-1.2,42.1-1,94.8,3.3,155.2,3.6,49.8,6.9,96.5,20.1,156.5,6.7,30.5,18.8,84,47.5,148.5,21.5,48.4,68.8,139.6,159.9,225.3,34.5,32.5,59.7,52.5,81,65.4,20,12.1,37.2,20.1,48,24.8.3,0,.6,0,.8,0Z"/>
        <path class="st6" d="M789.2,1259.2c0-.2,0-.6,0-.6h0c-1.2-338.2,3.1-675,.8-886.6l-4.2-.4c-33.9,18.6-72.6,37.3-116.1,54-90.6,34.9-173.9,50.8-241.1,57.9-1.2,42.1-1,94.8,3.3,155.2,3.6,49.8,6.9,96.5,20.1,156.5,6.7,30.5,18.8,84,47.5,148.5,21.5,48.4,68.8,139.6,159.9,225.3,34.5,32.5,59.7,52.5,81,65.4,20,12.1,37.2,20.1,48,24.8.3,0,.6,0,.8,0Z"/>
      </g>
    </g>
  </g>
  <g>
    <g>
      <path class="st20" d="M910.2,425.5c-43.5-16.7-82.2-35.3-116.1-54l-4.2.4c0,73.9.8,886.6.8,886.6,0,0,0,.3,0,.6,0,0,0,0,0,.1.2,0,.4,0,.6,0,10.8-4.7,28.1-12.6,48.1-24.8,21.3-13,46.5-32.9,81-65.4,91.2-85.7,138.4-176.9,159.9-225.3,28.7-64.5,40.8-118,47.5-148.5,13.2-60.1,16.6-106.8,20.1-156.5,4.3-60.4,4.5-113.1,3.3-155.2-67.2-7.1-150.4-23-241.1-57.9Z"/>
      <path class="st2" d="M910.2,425.5c-43.5-16.7-82.2-35.3-116.1-54l-4.2.4c0,73.9.8,886.6.8,886.6,0,0,0,.3,0,.6,0,0,0,0,0,.1.2,0,.4,0,.6,0,10.8-4.7,28.1-12.6,48.1-24.8,21.3-13,46.5-32.9,81-65.4,91.2-85.7,138.4-176.9,159.9-225.3,28.7-64.5,40.8-118,47.5-148.5,13.2-60.1,16.6-106.8,20.1-156.5,4.3-60.4,4.5-113.1,3.3-155.2-67.2-7.1-150.4-23-241.1-57.9Z"/>
    </g>
    <g class="st0">
      <g class="st24">
        <path class="st11" d="M910.2,425.5c-43.5-16.7-82.2-35.3-116.1-54l-4.2.4c0,73.9.8,886.6.8,886.6,0,0,0,.3,0,.6,0,0,0,0,0,.1.2,0,.4,0,.6,0,10.8-4.7,28.1-12.6,48.1-24.8,21.3-13,46.5-32.9,81-65.4,91.2-85.7,138.4-176.9,159.9-225.3,28.7-64.5,40.8-118,47.5-148.5,13.2-60.1,16.6-106.8,20.1-156.5,4.3-60.4,4.5-113.1,3.3-155.2-67.2-7.1-150.4-23-241.1-57.9Z"/>
        <path class="st5" d="M910.2,425.5c-43.5-16.7-82.2-35.3-116.1-54l-4.2.4c0,73.9.8,886.6.8,886.6,0,0,0,.3,0,.6,0,0,0,0,0,.1.2,0,.4,0,.6,0,10.8-4.7,28.1-12.6,48.1-24.8,21.3-13,46.5-32.9,81-65.4,91.2-85.7,138.4-176.9,159.9-225.3,28.7-64.5,40.8-118,47.5-148.5,13.2-60.1,16.6-106.8,20.1-156.5,4.3-60.4,4.5-113.1,3.3-155.2-67.2-7.1-150.4-23-241.1-57.9Z"/>
      </g>
    </g>
  </g>
  <g>
    <g class="st16">
      <path d="M628.8,913.2c-7.5-16.3-14.9-32.7-22.4-49-.3-1.2,0-2.2.4-3.3,4.3-11.9,16.3-25.1,13.3-38.6-5.4-21.4-36.1-11.4-25.1,9-3,2.9-4.5,4.3-7.3,7.2-.3,1.4,1.6,2.7,1.9,4.5,1.3,7.7-9.8,8.2-10.2,0-.2-4.4,3.5-4.8,3.2-6.1-2.4-3.7-3.6-5.6-6-9.3,4.3-5.2,7.1-10.4,3.4-17.8-7.8-15.6-36.4-10.3-30.6,9,.8,3.1,4.9,9.1,3.7,11.6-9.8,8.6-19.5,17.4-29.2,26.1,2.3,4,4.4,5.7,2.7,9.4-3.5,8-17.9-1.5-13.7-9,1.9-3.4,6.2-1.2,7.5-2.5,2.7-9.9,4.1-14.9,7.1-25.1,1-1.1,3.1.3,5,.3,7.8,0,9.9-9.3,4-15.3-1.2-1.2-3.5-1.5-3.3-3.3,4.7-13.4,9.8-26.6,15.1-39.8,2.1,1.1,4.2,2.2,6.4,3.1,43.9,16.9,107.9,20.6,151.7,1.1,1.7-.8,4.5-3.5,6.1-2.5,6.2,14.1,12.3,28.2,18.4,42.3.9,2.5-1.4,2.4-2.8,4.1-6.9,8.3,2.5,19.1,11.8,15.5,4,9.8,8,19.5,11.9,29.3,12.6-2,12.1,17.6,0,15.3-5.8-1.1-7.6-8.6-3.7-13.2-.1-.4-.2-.6-.3-1-11.7-10.1-23.4-20.2-35.1-30.3-1.4-2.2,2.3-9.6,2.7-12.7,2.2-18-22.7-27.6-31.7-11-4.2,7.7-1.2,13.7,4.4,19.4-2.5,3.7-3.8,5.6-6.4,9.3,0,.4.1.5.2.9,10.7,5.7-2.3,17-6.7,8-2.2-4.4,2.2-6.7,1.9-7.8-3.3-3-5-4.6-8.3-7.6,1.1-5.2,3.6-6.5,1.9-12.4-4.4-16.3-25.7-11.1-28.3,3-.6,15.6,11,27.6,14.9,42-7.6,15.3-15.2,30.7-22.8,46-.3,2.1,2.7,3,4,5,4.5,7.3-2.1,15.4-9.8,12.8-7.7-2.6-8-15.1,0-16.6ZM632.1,925.7c5-.6,4.1-8.5-1.1-8.4-5.4,0-4.6,9.1,1.1,8.4ZM632.1,880.6c21.3-.6,17-32.9-3.6-31.3-18.3,2.1-14.2,31.7,3.6,31.3Z"/>
      <path d="M560,745.3c.3,2.6-3.5,3.2-4.7,5.8-3.6,8.2,13.1,13.6,19.7,15.5,34.5,10.1,77.1,11,111.5.3,6.6-2.1,20.6-7,17.8-16.2-.9-3-4.1-3.8-4.8-6.8,7.6,2.5,21.1,11,11.4,20-18.5,14.9-49.4,15.7-72,16.3-27.7.6-64.5-.6-88.7-15.7-14-7.7,2.5-17.2,9.8-19.2Z"/>
      <path d="M693.7,755.3c-11.9-4.6-22.2-7.2-34.8-9.2-31.3-3.8-61.9-.6-91.8,9.4-3.4-2.9,1-7.7,4.1-9,4.8-2,17.1-4.1,22.8-5,27.2-3.5,54.5-4.4,81.5.7,6.9,1.3,21.4,2.8,18.1,13Z"/>
      <path d="M635.7,598.9c7.6,16,15,32,22.3,48.1.3,1.3-.1,2.3-.5,3.4-4.7,13.5-15.9,25.4-14.1,40.5,5.6,21.7,36.3,10.1,25.5-10.4,3.2-3.1,4.7-4.7,7.9-7.8.4-1.5-1.6-2.8-1.8-4.6-1-7.9,11-9,10.8-.6-.1,4.6-4,5.2-3.8,6.6,2.2,3.8,3.4,5.7,5.6,9.5-4.8,5.6-7.9,11.1-4.6,18.8,7.7,18,34.6,7.9,31.7-10.5-.5-3.3-4-9.5-2.5-12.2,11.6-9.9,23.2-19.8,34.7-29.7-1.7-4.2-3.6-5.8-1.1-10.1,5.2-9,18,.2,12.4,8.8-2.5,3.8-6.5,1.8-8.1,3.3-3.8,9.2-7.7,18.5-11.6,27.7-1.2,1.2-3.2-.2-5,0-8,.3-11.4,10.4-6.2,16.6,1,1.2,3.3,1.5,2.8,3.5-6.3,14.2-12.7,28.4-19.2,42.6-1.9-1.1-3.8-2.3-5.8-3.2-45.2-19.2-106.8-15.8-151.9,1.8-1.8.7-4.6,3.3-6.4,2.4-6.9-11.7-13.7-23.4-20.2-35.3-.9-2,1.6-2.2,3.1-3.8,7.5-7.8-2-15.8-12-11.7-4.6-9.2-6.7-13.7-10.7-22.7-13.2,3.4-11.1-12.7,1.2-12.7,5.8,0,7.1,6,2.7,10.4,0,.3.1.5.2.8,11.8,6.8,23.7,13.5,35.5,20.4,1.4,1.7-2.8,8.7-3.3,11.6-3.3,19.8,26.3,18.7,33.9,6.4,4.6-7.6,1.4-13.1-4.4-17.6,2.8-3.8,4.2-5.8,7-9.6,0-.3-.1-.5-.2-.8-11.3-3.7,2.9-16.6,7.3-8.7,2.2,3.9-2.5,6.8-2.2,7.8,3.4,2.4,5.2,3.6,8.6,6.1-1.3,5.1-3.9,6.7-2.3,12.2,5.8,15.3,27.5,8.5,29.8-5.6,1.9-14.4-10.7-27.3-14.8-40.3,8.1-16.4,16-32.9,23.8-49.5.3-2.1-2.7-2.6-4-4.4-4.5-6.5,2-15.6,9.7-13.9,7.6,1.7,7.9,14.2,0,16.6ZM632.4,586.8c-4.9,1.2-4.1,8.9,1,8.3,5.3-.6,4.6-9.6-1-8.3ZM632.2,632.1c-20.1,3.5-18.9,35.4,3.2,31.6,17.3-3.4,15.5-33.7-3.2-31.6Z"/>
      <path d="M711,742.9c-.2-.1-.3-.2-.5-.3-1.8-1.1-3.7-2.2-5.6-3.1-44.9-19.1-106.6-15.5-151.5,1.8-.5.2-1.1.6-1.8,1-1.7,1-3.5,2.1-5,1.4,0,0,0,0-.1,0-6.9-11.7-13.7-23.5-20.3-35.4-.7-1.6.5-2.4,1.6-3,.6-.3,1.1-.7,1.6-1.2,3.1-3.2,3.4-6.8,1-9.4-2.2-2.4-7.1-3.9-12.5-1.7-.2,0-.3.1-.4.2-4.6-9.2-6.7-13.7-10.7-22.8-3.8.9-6.8.2-8.2-1.8-1.5-2.1-1.1-5.4,1.1-7.9,1.2-1.4,3.9-3.8,8.8-3.8,2.7,0,4.7,1.2,5.4,3.4.8,2.3-.1,5.1-2.3,7.4,0,.2,0,.3.1.5,11.8,6.8,23.6,13.5,35.4,20.3,0,0,0,0,0,0,1,1.2-.4,4.5-1.7,7.6-.7,1.7-1.3,3.2-1.5,4.2-1.4,8.6,5.1,13.7,12.1,15.1,6.9,1.3,16-.7,20.9-8.8,3.8-6.4,2.5-11.9-4.4-17.1-.1,0-.2-.1-.3-.2,2.9-3.9,4.3-5.8,7.1-9.8,0-.2,0-.3-.1-.5-4.3-1.5-4.5-4.1-4.2-5.6.5-2.6,3.2-5.2,6.1-6.1,2.7-.8,4.9,0,6.2,2.3,1.7,2.9-.3,5.4-1.5,6.8-.3.3-.6.7-.7,1,3.5,2.4,5.2,3.6,8.7,6.2,0,.1,0,.2,0,.3-.4,1.7-1,3-1.5,4.2-1,2.4-1.8,4.2-.8,7.8,1.8,6,7.4,9.3,14.3,8.5,6.3-.8,13.2-5.3,14.6-14,1.3-8.2-3.4-16.8-7.8-24.8-3-5.4-5.8-10.3-6.9-15.3,0,0,0,0,0-.1,8.2-16.5,16.1-33,23.9-49.6,0-.9-.6-1.4-1.8-2.2-.8-.5-1.6-1-2.1-1.8-2.1-3.1-2-7,.2-10.3,2.3-3.5,6.2-5.2,10-4.3,4.3.9,6.2,5.1,6.1,8.7,0,4-2.2,7.3-5.6,8.6,7.5,15.9,14.8,31.8,22.1,47.8.3,1.2,0,2.2-.4,3.2,0,.2,0,.3-.1.5-1.3,4.3-3.7,8.7-6.2,13.5-4.5,7.2-9.5,18-7.9,26.8,1.4,6.4,5.4,10.7,10.8,11.8,5.3,1.1,10.9-1.2,14-5.5,3.1-4.4,3.1-10.2-.1-16.3,0-.1,0-.2-.2-.3,3.2-3.2,4.8-4.8,8-7.9,0-.6-.3-1.2-.8-1.9-.5-.7-1-1.5-1.1-2.5-.3-2.4.6-4.5,2.3-5.8,1.9-1.4,4.5-1.6,6.5-.4,1.8,1.1,2.8,3.1,2.8,5.6,0,3.1-1.8,4.5-2.9,5.5-.4.4-.8.7-.9.9,2.3,3.9,3.4,5.8,5.7,9.7,0,.1-.1.2-.2.3-4.9,5.7-7.6,11.1-4.5,18.3,3.7,8.7,12.6,10.5,19.2,8.5,6.3-1.9,13.2-7.9,11.6-18.7-.2-1.1-.7-2.6-1.2-4.1-1.1-3.1-2.3-6.4-1.2-8.3,0,0,0,0,0-.1,11.5-9.8,23-19.7,34.5-29.5-.3-.7-.6-1.3-.8-1.8-1.3-2.7-2.2-4.7-.1-8.4,1.5-2.7,3.9-4.1,6.6-3.9,2.9.2,5.7,2.1,7.1,4.9,1.3,2.7,1.1,5.6-.6,8.3-1.7,2.6-3.9,2.7-5.8,2.8-1,0-1.8.1-2.3.5-3.8,9.2-7.7,18.5-11.6,27.7,0,0,0,0,0,0-.9.9-2.2.6-3.3.3-.7-.2-1.3-.3-2-.3-3.4.1-6.2,2.2-7.5,5.5-1.4,3.5-.8,7.5,1.6,10.4.3.4.8.7,1.2.9.9.6,2.1,1.3,1.7,2.9-6.4,14.4-12.9,28.8-19.4,43.1ZM631.2,726.9c.1,0,.2,0,.4,0,24.8.3,50.6,1.8,73.7,11.8,1.9.8,3.7,1.9,5.4,3,6.4-14,12.7-28.1,19-42.2.2-.9-.3-1.2-1.3-1.9-.5-.3-1-.6-1.4-1.1-2.6-3.1-3.3-7.5-1.7-11.3,1.5-3.6,4.6-5.8,8.3-6,.8,0,1.5.1,2.2.3,1.2.3,1.9.4,2.5,0,3.9-9.2,7.7-18.4,11.6-27.7,0,0,0,0,0,0,.7-.7,1.8-.7,2.9-.8,1.7,0,3.7-.2,5.1-2.4,1.6-2.4,1.8-5,.6-7.4-1.2-2.5-3.8-4.2-6.4-4.4-2.4-.1-4.5,1.1-5.8,3.5-1.9,3.3-1.1,4.9.1,7.6.3.6.6,1.4,1,2.2,0,.1,0,.2.1.3-11.6,10-23.2,19.9-34.9,29.9-.8,1.6.3,4.7,1.3,7.5.6,1.6,1.1,3.1,1.3,4.3,1.5,10.6-5,17.5-12.2,19.7-7,2.1-16.3.2-20.2-9-3.3-7.6-.6-13.1,4.4-19-2.2-3.7-3.3-5.6-5.5-9.4-.1-.7.5-1.2,1.2-1.8,1.1-.9,2.5-2.1,2.6-4.8,0-2.2-.8-3.9-2.3-4.8-1.7-1-4-.8-5.6.4-1.5,1.1-2.2,2.9-1.9,4.9,0,.7.5,1.4.9,2.1.5.8,1.1,1.7.9,2.7,0,0,0,0,0,.1-3.1,3-4.6,4.6-7.8,7.6,4.3,8.5,1.8,14.3-.1,17-3.3,4.6-9.2,7-14.9,5.9-5.8-1.1-9.9-5.7-11.4-12.5-1.7-9,3.3-20.1,8-27.5,2.5-4.7,4.9-9.1,6.2-13.3,0-.2,0-.3.1-.5.3-.9.5-1.7.4-2.7-7.4-16.2-14.9-32.4-22.5-48.6.2,0,.3,0,.5-.1,4-1.2,5.5-5,5.5-7.9,0-3.3-1.6-7-5.5-7.9-3.5-.8-7.1.8-9.1,3.9-2,3-2,6.6-.1,9.3.5.7,1.2,1.2,1.9,1.6,1.2.8,2.3,1.6,2.1,3.1,0,0,0,0,0,.1-7.8,16.5-15.7,33-23.8,49.3,1.1,4.8,3.9,9.7,6.8,15,4.6,8.1,9.3,16.8,7.9,25.4-1.5,9.2-8.8,14-15.5,14.8-7.3.9-13.4-2.7-15.3-9-1.1-3.9-.2-5.9.8-8.4.5-1.1,1-2.3,1.4-3.8-3.4-2.5-5.1-3.7-8.5-6.1,0,0,0,0,0-.1-.1-.5.3-1,.9-1.8,1.2-1.4,2.7-3.4,1.3-5.9-1.5-2.7-4-2.4-5.3-2-2.5.8-4.9,3.1-5.3,5.3-.4,2.2.9,3.8,3.9,4.8,0,0,.1,0,.2,0,.1.5.2.7.3,1.2-2.8,3.8-4.1,5.7-6.9,9.5,4.8,3.7,9.4,9.3,4.2,17.9-5.1,8.6-14.7,10.7-22,9.3-7.4-1.4-14.3-6.8-12.7-15.9.2-1.1.9-2.7,1.6-4.3,1.1-2.6,2.5-5.9,1.8-6.9-11.8-6.8-23.7-13.5-35.5-20.4-.1-.4-.2-.7-.3-1.1,0,0,.1-.1.2-.2,2.1-2.1,2.9-4.7,2.2-6.8-.6-1.9-2.4-3-4.8-3-3.2,0-6,1.2-7.8,3.3-1.9,2.3-2.3,5.2-.9,7.1,1.3,1.9,4.1,2.4,7.7,1.5.1,0,.2,0,.3,0,4,9,6.1,13.5,10.6,22.7,5.7-2.2,10.8-.6,13.1,2,2.6,2.9,2.2,7-1.1,10.4-.6.6-1.2,1-1.8,1.3-1.1.7-1.7,1-1.2,2,6.5,11.8,13.3,23.5,20.1,35.2,1,.4,2.5-.6,3.9-1.4.7-.4,1.4-.8,1.9-1.1,24.8-9.8,52.1-13,78.2-13.7ZM632.4,664.5c-4.9.2-9.4-1.6-12.3-5.2-3.7-4.7-4.3-11.8-1.5-17.8,2.6-5.5,7.5-9.2,13.5-9.8,0,.2,0,.3,0,.4,0-.2,0-.3,0-.4,9.9-1,15,6.4,15.7,14.1.7,7.9-3.3,16.7-12.4,18.4-1,.2-2.1.3-3.1.3ZM633.2,632.4c-.3,0-.7,0-1,0-5.7.6-10.4,4-12.8,9.2-2.6,5.7-2.1,12.5,1.4,16.9,3.3,4.1,8.5,5.7,14.5,4.6,8.6-1.6,12.3-10,11.7-17.4-.6-7-5.1-13.7-13.8-13.4ZM633.1,595.5c-2.7.1-4.2-1.8-4.4-3.8-.2-2.1.8-4.7,3.6-5.3h0c1.7-.4,3.2,0,4.2,1.3,1.1,1.4,1.3,3.5.6,5.2-.7,1.5-1.9,2.5-3.6,2.7-.1,0-.2,0-.4,0ZM633.3,587.1c-.3,0-.5,0-.8.1-2.3.6-3.1,2.6-2.9,4.3.2,1.8,1.5,3.4,3.8,3.1,1.3-.2,2.3-.9,2.9-2.1.6-1.4.4-3.2-.5-4.3-.5-.6-1.2-1.2-2.5-1.1Z"/>
      <path d="M698.3,770c-.1-2.8,3.3-3.4,4.5-6.2,3.8-8.9-11.2-14.5-17.3-16.4-34.3-10.7-76.5-9.5-110.8.8-6.9,2-21.5,6.4-17.9,14.9,1.2,2.8,4.6,3.5,5.4,6.3-6.5-1.9-23.4-9.5-13.3-18.2,19.9-14.3,51.7-15.8,75.4-17,25.4-.8,63-1.1,84.2,15.2,11.3,8.6-2.2,18.1-10.2,20.6Z"/>
      <path d="M562.9,770c-.3,0-.5-.1-.8-.2-5.3-1.6-14.9-6.1-16.7-11.5-.8-2.5.2-5,3.2-7.4,19.9-14.4,52.1-16,75.7-17.2,25.5-.8,63.2-1.1,84.4,15.3,3.5,2.9,5,6,4.4,9.1-1,5.7-8.6,10.2-14.7,12.3-.2,0-.3.1-.5.2,0-.2,0-.3,0-.6,0-1.8,1.1-2.8,2.3-3.7.9-.7,1.8-1.5,2.3-2.6.7-1.8.7-3.5,0-5.2-2.4-5.3-11.7-9-17-10.7-34.2-10.7-76.3-9.5-110.5.7-5.3,1.6-21.3,5.9-17.6,14.4.5,1.3,1.6,2.1,2.6,2.9,1.2.9,2.4,1.9,2.8,3.5,0,.3.1.4.2.7ZM631.5,740.1c17.7-.1,36.7,1.2,54.2,6.8,6.7,2.1,15.2,5.8,17.6,11.2.9,1.9.9,3.9,0,5.9-.6,1.3-1.6,2.2-2.5,3-.9.8-1.7,1.4-1.9,2.4,6.2-2.3,12.7-6.6,13.6-11.4.5-2.8-.9-5.6-4.1-8.3-21.1-16.3-58.5-15.9-83.9-15.1-23.9,1-54.9,3-75.1,16.9-2.7,2.2-3.7,4.4-2.9,6.7,1.4,4.2,8.7,8.4,15.1,10.6-.5-.9-1.3-1.5-2.2-2.2-1.1-.9-2.3-1.8-2.9-3.3-4-9.3,12.7-13.8,18.2-15.5,18.7-5.3,38.1-7.5,56.9-7.6Z"/>
      <path d="M567.7,758.8c12.4,4.2,23.6,6.9,36.5,8.8,29.3,3.5,60.5,2.9,88-8.8,3,3.1-1.3,8.2-4.1,9.5-4.5,2-15.8,3.9-21,4.6-26.7,3.7-53.4,2.4-79.9-1.8-7.2-1.3-22.3-2.8-19.5-12.3Z"/>
      <path d="M632,775.6c-14.8,0-30-1.4-44.9-4.1-.7-.1-1.4-.3-2.2-.4-5.8-1-13.8-2.3-16.8-6.5-1.2-1.7-1.5-3.7-.8-5.9,0-.2,0-.3.1-.4.2,0,.3.1.5.2,11.6,4.7,24,7.3,36.4,8.8,30,3.6,59.4,1.7,87.8-8.8.1,0,.2,0,.3-.1,0,0,.1.1.2.2,1,1,1.3,2.3,1.1,3.7-.5,2.7-3.1,5.5-5.3,6.5-4.9,2.2-17.4,4.2-21.1,4.7-11.8,1.4-23.5,2.3-35.2,2.2ZM568,759.4c-.4,1.8-.2,3.4.8,4.8,2.8,3.9,10.6,5.2,16.2,6.1.8.1,1.6.3,2.2.4,26.1,4.8,53.5,5.5,79.8,1.8,7.6-1.1,17.1-2.9,20.9-4.6,2-.9,4.4-3.5,4.8-5.9.2-1,0-1.9-.6-2.7-28.5,10.5-57.9,12.3-88,8.7-12.3-1.4-24.6-4-36.1-8.7Z"/>
    </g>
    <g>
      <g>
        <path d="M625.4,914.2c-7.4-16.3-14.7-32.7-22.2-48.9-.3-1.2,0-2.2.4-3.3,4.2-11.9,16.1-25.1,13.1-38.6-5.4-21.4-36-11.4-25,9-3,2.9-4.4,4.3-7.2,7.1-.3,1.4,1.6,2.7,2,4.5,1.3,7.6-9.7,8.1-10.1,0-.2-4.3,3.4-4.8,3.1-6.1-2.4-3.7-3.6-5.6-6-9.3,4.3-5.2,7-10.3,3.3-17.8-7.9-15.5-36.4-10.3-30.4,8.9.8,3.1,4.9,9.1,3.8,11.6-9.8,8.6-19.4,17.4-29.2,26,2.4,4,4.5,5.6,2.8,9.4-3.5,7.9-18.1-1.5-13.8-9,1.9-3.3,6.3-1.2,7.6-2.4,2.7-9.9,4.1-14.9,7.1-25,1-1.1,3.1.3,5,.3,7.8,0,9.9-9.3,3.9-15.3-1.2-1.2-3.5-1.5-3.3-3.3,4.7-13.4,9.6-26.6,14.8-39.7,2.1,1.1,4.2,2.2,6.4,3.1,44,16.9,107.9,20.7,151.7,1.2,1.7-.8,4.5-3.5,6.1-2.5,6.2,14.1,12.3,28.2,18.4,42.3.9,2.5-1.4,2.4-2.8,4.1-6.9,8.3,2.5,19.1,11.8,15.5,4,9.8,8,19.5,11.9,29.3,12.6-2,12.1,17.6,0,15.3-5.8-1.1-7.6-8.6-3.7-13.2-.1-.4-.2-.6-.3-1-11.7-10.1-23.4-20.2-35.1-30.3-1.4-2.2,2.3-9.6,2.7-12.7,2.2-17.9-22.7-27.7-31.7-11-4.2,7.7-1.2,13.7,4.4,19.4-2.5,3.7-3.8,5.6-6.4,9.3,0,.4.1.5.2.9,10.7,5.7-2.3,17-6.7,8-2.2-4.4,2.2-6.7,1.9-7.8-3.3-3-5-4.6-8.3-7.6,1.1-5.1,3.6-6.4,1.9-12.4-4.4-16.3-25.7-11.2-28.3,2.9-.6,15.6,11,27.6,14.9,42-7.6,15.3-15.2,30.6-22.8,45.9-.3,2.1,2.7,3,4,5,4.5,7.3-2.2,15.4-9.8,12.7-7.5-2.6-7.9-15.1,0-16.6ZM628.7,926.7c5-.6,4.1-8.5-1.1-8.4-5.4,0-4.6,9.1,1.1,8.4ZM628.6,881.7c21.3-.5,16.9-32.9-3.6-31.2-18.1,2.1-14,31.7,3.6,31.2Z"/>
        <path d="M556.2,746.5c.3,2.6-3.5,3.2-4.6,5.7-3.6,8.1,13.1,13.6,19.8,15.5,34.5,10.1,77.2,11.1,111.7.4,6.6-2.1,20.6-7,17.8-16.2-.9-3-4.1-3.8-4.8-6.8,7.6,2.5,21.1,11,11.4,20-18.5,14.9-49.4,15.7-72,16.3-27.8.5-64.6-.7-88.8-15.8-14-7.6,2.3-17.2,9.6-19.2Z"/>
        <path d="M690.2,756.6c-11.9-4.6-22.2-7.2-34.8-9.2-31.3-3.8-62.1-.6-91.9,9.3-3.5-2.9,1-7.6,4-8.9,4.8-2,17.1-4.1,22.8-5,27.2-3.5,54.7-4.4,81.8.7,6.9,1.3,21.4,2.8,18.1,13Z"/>
      </g>
      <g>
        <g>
          <path class="st17" d="M632.3,600.3c7.6,16,14.9,32,22.3,48,.3,1.3-.2,2.3-.5,3.4-4.7,13.5-15.9,25.4-14.2,40.5,5.6,21.7,36.3,10,25.5-10.4,3.2-3.1,4.8-4.7,7.9-7.8.4-1.5-1.6-2.8-1.8-4.6-1-7.9,11-9.1,10.8-.6-.1,4.6-4,5.2-3.8,6.6,2.2,3.8,3.4,5.7,5.6,9.5-4.8,5.6-7.9,11.1-4.6,18.8,7.7,18,34.6,7.9,31.7-10.5-.5-3.3-4-9.5-2.5-12.2,11.6-9.9,23.2-19.8,34.7-29.7-1.7-4.2-3.6-5.8-1.1-10.1,5.2-9,18,.2,12.3,8.9-2.5,3.8-6.5,1.8-8.1,3.3-3.8,9.2-7.7,18.5-11.6,27.7-1.2,1.2-3.2-.2-5,0-8,.3-11.4,10.4-6.3,16.6,1,1.2,3.3,1.5,2.8,3.5-6.3,14.2-12.8,28.4-19.2,42.6-1.9-1.1-3.8-2.3-5.8-3.2-45.2-19.2-107-15.7-152.1,1.8-1.8.7-4.6,3.2-6.3,2.3-6.9-11.6-13.7-23.3-20.3-35.1-.9-2,1.6-2.2,3.1-3.7,7.5-7.7-2-15.7-12-11.6-4.6-9.2-6.7-13.6-10.7-22.7-13.2,3.3-11-12.8,1.2-12.6,5.8,0,7.1,6.1,2.7,10.4,0,.3.1.5.2.8,11.7,6.9,23.6,13.6,35.4,20.4,1.4,1.7-2.8,8.7-3.3,11.5-3.3,19.7,26.4,18.6,33.9,6.4,4.6-7.6,1.4-13-4.5-17.5,2.8-3.8,4.2-5.7,7-9.6,0-.3-.1-.5-.2-.8-11.3-3.7,2.9-16.5,7.4-8.7,2.2,3.9-2.5,6.7-2.2,7.7,3.4,2.4,5.2,3.6,8.6,6.1-1.3,5.1-3.9,6.6-2.3,12.1,5.9,15.3,27.5,8.4,29.9-5.7,2-14.4-10.7-27.1-14.8-40,8.2-16.5,16.2-33,24.1-49.7.3-2.1-2.7-2.6-4-4.3-4.5-6.4,2.1-15.8,9.8-14.1,7.6,1.6,7.9,14.2,0,16.6ZM629,588.3c-5,1.3-4.1,9,1,8.2,5.4-.8,4.6-9.7-1-8.2ZM628.7,633.5c-20.1,3.8-19.1,35.8,3.2,31.5,17.2-3.5,15.6-34-3.2-31.5Z"/>
          <path class="st23" d="M707.5,744.2c-.2-.1-.3-.2-.5-.3-1.8-1.1-3.7-2.2-5.6-3.1-45-19.1-106.7-15.4-151.7,1.8-.5.2-1.1.6-1.8,1-1.6,1-3.5,2.1-5,1.3,0,0,0,0-.1,0-6.9-11.7-13.8-23.3-20.4-35.2-.7-1.6.5-2.3,1.6-3,.6-.3,1.1-.7,1.6-1.2,3-3.1,3.4-6.7,1-9.4-2.2-2.4-7-3.9-12.5-1.7-.2,0-.3.1-.4.2-4.6-9.2-6.7-13.7-10.7-22.7-3.8.8-6.7.1-8.2-1.9-1.5-2.2-1.1-5.4,1.1-7.9,1.2-1.4,3.9-3.7,8.8-3.7,2.7,0,4.7,1.3,5.4,3.4.7,2.3-.1,5.1-2.3,7.4,0,.2,0,.3.1.5,11.7,6.9,23.6,13.6,35.3,20.4,0,0,0,0,0,0,1,1.2-.4,4.5-1.7,7.6-.7,1.6-1.3,3.2-1.5,4.2-1.4,8.6,5.1,13.6,12.1,15,6.9,1.3,16-.7,20.9-8.7,3.9-6.4,2.5-11.8-4.4-17-.1,0-.2-.1-.3-.2,2.9-3.9,4.3-5.8,7.1-9.7,0-.2,0-.3-.1-.5-4.4-1.5-4.5-4.1-4.2-5.5.5-2.6,3.2-5.2,6.2-6.1,2.7-.8,4.9,0,6.2,2.3,1.7,2.9-.3,5.3-1.5,6.8-.3.3-.6.7-.7,1,3.5,2.4,5.2,3.6,8.7,6.1,0,.1,0,.2,0,.3-.4,1.7-1,3-1.5,4.2-1,2.3-1.8,4.2-.8,7.8,1.8,6,7.5,9.2,14.3,8.4,6.4-.8,13.3-5.3,14.7-14,1.3-8.2-3.4-16.7-7.9-24.6-3-5.3-5.8-10.2-6.9-15.2,0,0,0,0,0-.1,8.2-16.5,16.3-33.1,24.1-49.8,0-.9-.6-1.4-1.8-2.2-.8-.5-1.6-1-2.1-1.8-2.1-3-2-7,.2-10.3,2.3-3.5,6.3-5.3,10.1-4.5,4.3.9,6.2,5,6.1,8.6,0,4-2.3,7.3-5.7,8.6,7.5,15.8,14.8,31.7,22.1,47.7.3,1.2,0,2.2-.4,3.2,0,.2,0,.3-.1.5-1.3,4.3-3.7,8.8-6.3,13.5-4.5,7.2-9.5,18-7.9,26.8,1.4,6.4,5.4,10.7,10.8,11.8,5.3,1,10.9-1.2,14-5.5,3.1-4.4,3.1-10.2-.1-16.3,0-.1,0-.2-.2-.3,3.2-3.2,4.8-4.8,8.1-7.9,0-.6-.3-1.2-.8-1.9-.5-.7-1-1.5-1.1-2.5-.3-2.4.6-4.5,2.3-5.8,1.9-1.4,4.5-1.6,6.5-.4,1.8,1.1,2.8,3,2.8,5.6,0,3.1-1.8,4.5-2.9,5.5-.4.4-.8.7-.9.9,2.3,3.9,3.4,5.8,5.7,9.7,0,.1-.1.2-.2.3-4.9,5.7-7.6,11.1-4.5,18.3,3.7,8.7,12.6,10.5,19.2,8.5,6.3-1.9,13.2-7.9,11.7-18.7-.2-1.1-.7-2.6-1.2-4.1-1.1-3.1-2.3-6.4-1.2-8.3,0,0,0,0,0-.1,11.5-9.8,23-19.7,34.5-29.5-.3-.7-.6-1.3-.8-1.8-1.3-2.7-2.2-4.7,0-8.4,1.5-2.7,3.9-4.1,6.6-3.9,2.9.2,5.7,2.2,7.1,4.9,1.3,2.7,1.1,5.6-.6,8.3-1.7,2.6-3.9,2.7-5.8,2.8-1,0-1.8.1-2.3.5-3.8,9.2-7.7,18.5-11.6,27.7,0,0,0,0,0,0-.9.9-2.2.6-3.3.3-.7-.2-1.3-.3-2-.3-3.4.1-6.2,2.2-7.5,5.5-1.4,3.5-.8,7.5,1.6,10.4.3.4.8.7,1.2.9.9.6,2.1,1.3,1.7,2.9-6.4,14.4-12.9,28.8-19.5,43.1ZM627.6,728.2c.1,0,.3,0,.4,0,24.8.2,50.6,1.7,73.7,11.7,1.9.8,3.7,1.9,5.4,2.9,6.4-14,12.7-28.1,19-42.2.2-.9-.3-1.2-1.3-1.9-.5-.3-1-.6-1.4-1.1-2.6-3.1-3.3-7.5-1.7-11.3,1.5-3.6,4.6-5.8,8.3-6,.8,0,1.5.1,2.2.3,1.2.3,1.9.4,2.5,0,3.9-9.2,7.8-18.4,11.6-27.7,0,0,0,0,0,0,.7-.7,1.8-.7,2.9-.8,1.7,0,3.7-.2,5.1-2.4,1.6-2.4,1.8-5,.6-7.4-1.2-2.5-3.8-4.3-6.4-4.4-2.4-.1-4.5,1.1-5.8,3.5-1.9,3.3-1.1,4.9.1,7.6.3.6.6,1.4,1,2.2,0,.1,0,.2.1.3-11.6,10-23.3,19.9-34.9,29.9-.8,1.6.3,4.7,1.3,7.5.6,1.6,1.1,3.1,1.3,4.3,1.5,10.6-5.1,17.5-12.3,19.7-7,2.1-16.3.2-20.2-9-3.3-7.6-.6-13.1,4.5-19-2.2-3.7-3.3-5.6-5.5-9.4-.1-.7.5-1.2,1.2-1.8,1.1-.9,2.5-2.1,2.6-4.8,0-2.2-.8-3.9-2.3-4.8-1.7-1-4-.8-5.6.4-1.5,1.1-2.2,2.9-2,5,0,.7.5,1.4.9,2.1.5.8,1.1,1.7.9,2.7,0,0,0,0,0,.1-3.1,3.1-4.7,4.6-7.8,7.6,4.3,8.5,1.8,14.3-.1,17-3.3,4.6-9.3,7-14.9,5.9-5.8-1.1-9.9-5.6-11.4-12.4-1.7-9,3.3-20.1,8-27.5,2.5-4.7,4.9-9.2,6.2-13.3,0-.2,0-.3.1-.5.3-.9.5-1.7.4-2.7-7.4-16.2-14.9-32.4-22.5-48.4.2,0,.3,0,.5-.2,4-1.2,5.5-5,5.5-7.9,0-3.3-1.6-7-5.5-7.8-3.5-.7-7.1.9-9.2,4.1-2,3-2.1,6.6-.2,9.3.5.7,1.2,1.1,1.9,1.6,1.2.7,2.3,1.5,2.1,3.1,0,0,0,0,0,.1-7.8,16.6-15.8,33.1-24,49.5,1.1,4.8,3.9,9.6,6.8,14.8,4.6,8.1,9.3,16.7,7.9,25.2-1.5,9.2-8.8,14-15.5,14.8-7.3.9-13.4-2.6-15.3-8.9-1.2-3.9-.2-5.9.8-8.3.5-1.1,1-2.3,1.4-3.8-3.4-2.5-5.1-3.7-8.5-6,0,0,0,0,0-.1-.1-.5.3-1,.9-1.8,1.2-1.4,2.7-3.4,1.3-5.8-1.5-2.7-4-2.4-5.3-2-2.5.8-4.9,3.1-5.4,5.3-.4,2.1.9,3.8,3.9,4.8,0,0,.1,0,.2,0,.1.5.2.7.3,1.2-2.8,3.8-4.2,5.7-6.9,9.4,4.8,3.7,9.4,9.3,4.3,17.8-5.1,8.5-14.8,10.6-22,9.2-7.4-1.4-14.3-6.8-12.8-15.8.2-1.1.8-2.6,1.6-4.3,1.1-2.6,2.5-5.9,1.8-6.8-11.8-6.8-23.7-13.5-35.4-20.4-.1-.4-.2-.7-.3-1.1,0,0,.1-.1.2-.2,2.1-2,2.9-4.7,2.2-6.8-.6-1.9-2.4-3-4.8-3-3.2,0-6,1.1-7.8,3.2-1.9,2.3-2.3,5.2-1,7.1,1.3,1.9,4.1,2.5,7.7,1.6.1,0,.2,0,.3,0,4,9,6.1,13.5,10.6,22.6,5.7-2.2,10.8-.6,13.1,2,2.6,2.9,2.2,6.9-1.1,10.3-.6.6-1.2,1-1.8,1.3-1.1.7-1.7,1-1.2,2,6.5,11.8,13.3,23.4,20.2,35,1,.4,2.5-.6,3.9-1.4.7-.4,1.3-.8,1.9-1.1,24.9-9.7,52.3-12.9,78.4-13.6ZM628.9,665.9c-5.1.3-9.5-1.5-12.4-5.1-3.7-4.7-4.3-11.7-1.5-17.8,2.6-5.5,7.4-9.2,13.7-9.9,0,.2,0,.3,0,.4,0-.2,0-.3,0-.4,10.2-1.3,15.1,6.3,15.8,14,.7,7.9-3.3,16.7-12.4,18.4-1,.2-2.1.3-3.1.4ZM629.7,633.9c-.3,0-.7,0-1,0-5.9.7-10.5,4.2-12.9,9.3-2.7,5.7-2.1,12.4,1.4,16.9,3.3,4.1,8.7,5.6,14.6,4.4,8.6-1.7,12.4-10,11.7-17.4-.6-7-4.9-13.9-13.9-13.3ZM629.7,597c-2.7.2-4.2-1.7-4.4-3.7-.2-2.1.8-4.7,3.6-5.4h0c1.7-.5,3.2,0,4.2,1.2,1.1,1.4,1.3,3.4.6,5.2-.7,1.5-1.9,2.5-3.6,2.7-.1,0-.2,0-.4,0ZM629.9,588.5c-.3,0-.5,0-.8.1-2.3.6-3.1,2.7-2.9,4.4.2,1.7,1.5,3.3,3.9,3,1.3-.2,2.4-.9,2.9-2.2.6-1.4.4-3.2-.5-4.3-.5-.6-1.2-1.2-2.5-1.1Z"/>
        </g>
        <g>
          <path class="st21" d="M694.8,771.2c-.1-2.8,3.3-3.3,4.5-6.2,3.8-8.9-11.2-14.5-17.3-16.4-34.4-10.7-76.7-9.5-111,.7-6.9,2-21.5,6.4-17.8,14.9,1.2,2.8,4.6,3.5,5.5,6.3-6.4-1.9-23.4-9.5-13.4-18.2,19.9-14.2,51.8-15.7,75.4-16.9,25.4-.9,63.1-1.2,84.3,15.1,11.3,8.6-2.2,18.1-10.2,20.6Z"/>
          <path class="st23" d="M559.3,771.2c-.3,0-.5-.1-.8-.2-5.3-1.6-14.8-5.9-16.7-11.5-.9-2.7.2-5,3.1-7.4,19.9-14.3,52.1-15.8,75.8-17,25.5-.9,63.3-1.2,84.6,15.2,3.5,2.9,5,6,4.4,9.1-1,5.7-8.6,10.2-14.7,12.2-.2,0-.3.1-.5.2,0-.2,0-.3,0-.6,0-1.8,1.1-2.8,2.3-3.7.9-.7,1.8-1.5,2.3-2.6.7-1.8.7-3.5,0-5.2-2.4-5.3-11.7-9-17-10.7-34.3-10.7-76.5-9.5-110.8.7-5.3,1.5-21.2,5.9-17.5,14.4.5,1.3,1.6,2.1,2.6,2.9,1.2.9,2.4,1.9,2.8,3.5,0,.3.1.4.2.7ZM628,741.4c17.7-.1,36.8,1.2,54.2,6.8,6.7,2.1,15.2,5.8,17.6,11.2.9,1.9.9,3.9,0,5.9-.6,1.3-1.6,2.2-2.5,3-.9.8-1.7,1.4-1.9,2.4,6.2-2.2,12.7-6.6,13.6-11.4.5-2.8-.9-5.6-4.1-8.2-21.1-16.3-58.7-15.9-84-15-23.8,1-54.9,2.9-75.1,16.7-2.7,2.2-3.7,4.3-2.9,6.6,1.5,4.4,8.8,8.4,15.2,10.6-.5-.9-1.3-1.5-2.2-2.2-1.1-.9-2.3-1.8-2.9-3.3-4-9.3,12.6-13.8,18.1-15.4,18.7-5.2,38.2-7.4,57.1-7.6Z"/>
        </g>
        <g>
          <path class="st10" d="M564,760c12.4,4.3,23.6,6.9,36.6,8.8,29.3,3.6,60.6,2.9,88.1-8.8,3,3.1-1.3,8.2-4.1,9.5-4.5,2-15.8,3.9-21,4.6-26.7,3.7-53.5,2.3-80-1.9-7.2-1.3-22.3-2.8-19.6-12.3Z"/>
          <path class="st23" d="M628.5,776.8c-14.8,0-30.1-1.4-45-4.1-.7-.1-1.4-.3-2.2-.4-5.8-1-13.8-2.3-16.8-6.5-1.2-1.7-1.5-3.7-.9-5.9,0-.2,0-.3.1-.5.2,0,.3.1.5.2,11.6,4.7,24,7.4,36.4,8.8,30.1,3.6,59.4,1.8,87.9-8.7.1,0,.2,0,.3-.1,0,0,.1.1.2.2,1,1,1.3,2.3,1.1,3.7-.5,2.7-3.1,5.5-5.3,6.5-4.9,2.2-17.4,4.1-21.1,4.7-11.8,1.3-23.5,2.3-35.2,2.2ZM564.4,760.6c-.4,1.8-.2,3.4.8,4.8,2.8,3.9,10.6,5.2,16.2,6.1.8.1,1.6.3,2.2.4,26.1,4.8,53.6,5.5,79.9,1.9,7.6-1.1,17.1-2.9,20.9-4.6,2-.9,4.4-3.5,4.8-5.9.2-1,0-1.9-.6-2.7-28.6,10.5-58,12.3-88.1,8.7-12.3-1.4-24.6-4-36.2-8.7Z"/>
        </g>
      </g>
    </g>
  </g>
  <g>
    <g>
      <path d="M906.1,725.7c-.4.1-5.9,5.4-6.1,5.8-.1.3-.2.4,0,.7,44.1,43.8,93.8,83.4,133.2,131.7,9.9,2,19.9,4,29.8,5.9-.5-10.1-1-20.2-1.6-30.3-43-46.3-91.4-87-135.6-132.1-.3-.2-.4-.1-.7,0-1.5.8-4.4,4.7-6.1,5.8-.1,5-.2,7.5-.3,12.5-5.1,0-7.6,0-12.7,0ZM1058.3,864.4c-9.1-1.8-13.3-2.6-21.6-4.2-36.4-42.4-79.6-78.3-119.3-117.5-3-3-6.2-5.8-9.1-9-.6-.7-1.2-1-1.9-1.5-.7-.6.8-1.6,1.3-1.8.9-.4,13.1-.5,14.7-.2.4,0,.7,0,1,.3,45,44.9,92.7,86.2,134.8,133.9Z"/>
      <path d="M879,686.1c5.2,0,7.8,0,13-.1.2-.7-.2-.7-.6-1-13.7-12.9-26.5-26.5-40.1-39.6-1.4-4.9-2.5-9.3-7.7-11.4-17.3-7.2-24.9,23-5.7,23.6,13.5,13.5,27.2,26.9,40.7,40.3.1-4.8.2-7.2.3-11.9,0,0,0,0,0,0Z"/>
      <path d="M912,718.8c.1-5.1.2-7.7.3-12.8,7.2-6.8,10.8-10.3,18-17.1,0-.3.1-.5.2-.9-7.3-3.2-10.9-4.8-18.2-7.9-5.4,5.1-8,7.6-13.4,12.7-5.1,0-7.7,0-12.8,0-.1,5-.2,7.5-.3,12.5-5.3,5.1-7.9,7.6-13.2,12.7,3.1,7.3,4.6,10.9,7.7,18.1.3-.1.5-.2.9-.3,7.1-6.8,10.6-10.2,17.7-17,5.2,0,7.9,0,13.1,0Z"/>
    </g>
    <g>
      <path class="st7" d="M905.8,794c-.4-.1-5.8-5.3-5.9-5.7-.1-.3-.2-.4,0-.7,47.1-45.8,96.7-88.7,144.8-133.5,11-1.8,21.9-3.6,32.8-5.6-1.2,10.1-2.8,20.2-4.9,30.2-49,44.6-100,86.4-147.4,132.8-.3.2-.4.1-.7,0-1.5-.7-4.2-4.6-5.9-5.6,0-4.9,0-7.3,0-12.2-5.1,0-7.6,0-12.7.1ZM1072,653.9c-9.7,1.7-14.4,2.4-24,4-43.8,39.7-88.4,78.2-130.8,119.3-3.1,3-6.3,5.8-9.2,8.9-.6.7-1.2,1-1.9,1.5-.7.5.8,1.5,1.3,1.8.9.4,13.1.4,14.7.2.4,0,.7,0,1-.3,48.2-46.7,100.6-88.7,148.8-135.3Z"/>
      <path class="st3" d="M878.4,833.2c5.1,0,7.6,0,12.7-.2.2.7-.2.6-.6,1-13.6,13-26.3,26.9-39.5,40.2-1.4,4.9-2.4,9.4-7.6,11.5-17,7.5-24.9-22.7-5.7-23.5,13.4-13.7,26.8-27.3,40.4-40.8,0,4.7.1,7.1.2,11.8,0,0,0,0,0,0Z"/>
      <path class="st1" d="M911.6,800.6c0,5,0,7.5,0,12.5,7,6.6,10.4,9.9,17.4,16.4l.2.8c-7.3,3.2-10.9,4.8-18.1,8-5.2-4.8-7.8-7.3-13-12.1-5,0-7.6.1-12.6.2,0-4.9-.1-7.4-.2-12.3-5.2-4.9-7.7-7.4-12.9-12.4,3.1-7.2,4.6-10.8,7.8-18,.3.1.5.2.9.3,7,6.7,10.5,10,17.4,16.7,5.2,0,7.8,0,13-.1Z"/>
    </g>
  </g>
  <polygon class="st18" points="793.5 1262.9 790.7 1264.7 787.6 1263.5 787.7 1260.3 790.2 1258.9 792.7 1260.4 793.5 1262.9"/>
  <polygon class="st18" points="795 371.1 790.4 373 785.7 371.1 784.9 367.2 790 365.1 795 367.1 795 371.1"/>
  <line class="st4" x1="798.8" y1="1259.6" x2="790.3" y2="1264"/>
  <line class="st9" x1="789.6" y1="369.1" x2="790.3" y2="1268.4"/>
  <polygon points="432.7 487.8 424.5 480.2 424.5 479.6 425.1 479.6 433.3 487.2 432.8 487.3 432.7 487.8"/>
  <polygon points="1147.1 487.8 1155.4 480.1 1155.4 479.6 1154.8 479.5 1146.6 487.1 1147.1 487.2 1147.1 487.8"/>
  <polygon points="790 365.1 790.5 365.2 790 365.5 789.6 365.2 790 365.1"/>
  <polygon points="791 1264.3 791.1 1264.5 790.7 1264.7 790.3 1264.5 790.5 1264.3 790.7 1264.2 791 1264.3"/>
  <g>
    <path id="SVGID2" data-name="SVGID" class="st11" d="M1745.6,1014.4c11.3-24.3,28.1-47.4,49.6-63.6,21-16.2,43.7-21.2,62.6-21.2s12.4,0,18.9,1.3c10.3-14.4,11.3-26.8,11.3-33.7s-1.1-12.5-3.2-19.3c-11.3-36.8-25.9-62.4-41.5-84.2-10.3-8.7-43.7-26.8-71.2-26.8s-14,.6-20,5c0-2.5,0-4.4,4.9-14.4,4.3-9.4,14.6-21.2,31.3-26.8-12.4-14.4-23.7-28.7-31.8-48-11.3-24.3-17.3-43-17.8-55.5-.5-12.5-1.1-20.6-1.1-23.7,0-36.8,10.3-69.9,29.1-94.8,9.2-12.5,18.3-21.2,27-26.2l83.6-37.4c9.7-3.1,18.9-5,28.1-5,28.1,0,53.9,16.2,64.2,66.1,4.3,22.5,17.8,64.9,42.6,64.9s30.8-26.2,35.1-43.7c.5-1.9.5-3.7.5-5,0-6.9-4.3-15.6-4.3-20.6s-1.1-4.4,5.4-8.7c1.1-.6,2.2-1.2,3.2-1.2,3.8,0,5.4,6.9,5.4,15v3.7c-2.7,38.7-25.4,76.7-58.3,88.6v169.1c3.8,11.9,8.6,18.7,12.4,23.7,2.2,3.1,4.3,5,6.5,6.9l-18.9,29.3v162.8c32.9,28.1,60.4,54.9,107.9,69.9,9.7,2.5,17.8,3.7,24.8,3.7,16.7,0,27-6.2,33.4-13.1,8.6-13.7-1.6-34.9,12.9-36.8,3.8,0,5.4,2.5,5.4,7.5v3.1c-2.7,13.1-8.1,25.6-14,37.4-17.3,31.8-51.8,73.6-123,73.6s-39.9-3.1-63.7-10c-63.7-18.7-131.6-100.4-190.4-105.4h-3.2c-18.3,0-34,14.4-45.9,34.9-11.9,20.6-20,44.9-22.7,59.3l-5.9-1.9c6.5-37.4,16.7-70.5,30.8-98.6ZM1796.8,513.4c0,1.2.5,3.1.5,5,1.6,8.1,3.2,18.1,8.1,28.7,32.9,79.9,89,93,137.6,202.1,10.8,24.3,16.7,45.5,16.7,63s2.7,20-10.3,46.8c-12.9,27.4-36.7,49.3-55.6,74.9,44.8,12.5,72.8,31.2,98.2,51.2v-165.3c-3.8-9.4-8.1-17.5-12.4-23.1-2.2-3.1-4.3-5-5.9-6.9l18.3-28.1v-160.3c-10.3,4.4-21,5-31.8,5-30.2,0-58.8-11.9-77.7-25,3.2-10.6,4.3-20.6,4.3-31.2s.5-20-6.5-40.5c-7-19.3-19.4-38.1-36.7-38.1s-6.5.6-9.7,1.9l-16.2,7.5c-7,2.5-12.4,7.5-16.2,14.4-3.2,5.6-4.9,11.2-4.9,18.1Z"/>
    <path id="SVGID3" data-name="SVGID" class="st11" d="M2149.6,775.5c0-9.4,23.7-7.5,66.9-52.4,43.2-44.9,128.4-129.1,158.6-161,36.7,35.6,65.8,101.1,65.8,156,0,107.3-113.3,180.9-148.9,211.5,10.8,26.8,29.1,34.3,49.1,34.3s37.8-5.6,54.5-20.6l35.6-31.2,5.4,10.6-141.9,125.4c-40.5,0-112.8-71.1-112.8-141.6v-83.6c-3.2-33.7-19.4-43.7-27.5-46.2l-4.9-1.3ZM2281.8,711.8v150.4c0,23.7,2.2,42.4,6.5,56.8,18.9-16.8,83.1-58.6,83.1-129.1s-13.5-80.5-28.6-97.3c-9.2-9.4-19.4-12.5-29.7-12.5s-15.1,2.5-21,7.5c-5.9,5.6-9.7,13.7-10.3,24.3Z"/>
    <path id="SVGID4" data-name="SVGID" class="st11" d="M2435,1005.1c0-.6-.5-3.7,3.2-11.9,18.9-41.8,48.6-84.8,99.8-124.8,8.1,2.5,14.6,5.6,21,8.7v-82.3c-14.6-22.5-25.4-40.6-29.7-49.9-8.1-16.2-11.9-31.8-11.9-47.4s0-29.9,15.6-58.6c15.1-28.7,38.8-49.3,50.2-58.6-7.6,8.7-11.3,18.7-11.3,29.9s1.6,28.7,23.7,71.1c10.3-49.9,34.5-112.9,126.8-129.8-12.4,14.4-18.9,43.7-18.9,67.4s-.5,13.1,3.8,28.7c-55.6,5-91.2,20-104.1,47.4,24.3,43,57.2,92.3,79.3,142.9,15.1,34.3,12.9,47.4,12.9,51.8,0,31.2-17.8,51.2-39.4,78-13.5,16.8-27.5,34.9-32.4,59.9-17.8-20.6-37.2-41.2-58.3-56.8v49.3c3.8,10.6,8.6,18.1,12.4,23.1,2.2,3.1,4.3,5,6.5,6.9l-18.9,29.3v3.1h-6.5v-11.2c-3.8-9.4-8.1-17.5-12.4-23.1-2.2-3.1-4.3-5-5.9-6.9l18.3-28.1v-47.4c-18.9-12.5-36.7-20.6-53.4-20.6s-45.9,16.8-56.1,39.3c-5.9,10.6,2.2,24.3-9.7,24.3-3.2,0-4.9-1.2-4.9-3.7ZM2565.6,880.9c41,23.1,64.7,60.5,73.4,79.9,0-1.3.5-3.1.5-4.4,0-12.5-7.6-34.3-22.1-62.4-15.1-28.1-34.5-60.5-51.8-88v74.9Z"/>
    <path id="SVGID5" data-name="SVGID" class="st11" d="M3001,685c0-2.5,1.6-4.4,4.3-5,1.6-.6,2.7-.6,3.8-.6,2.7,0,4.9,1.9,7,7.5,2.2,5.6,3.8,13.1,9.7,18.1,13.5,9.4,22.1,11.9,33.4,11.9h3.8c12.4-.6,20-9.4,22.1-23.7.5-3.7,1.1-7.5,1.1-11.2,0-11.2-2.7-29.9-14-52.4-9.2-18.1-9.2-31.8-9.2-38.7,0-18.7,7.6-48.7,32.9-64.3,16.7-10.6,32.4-20.6,46.9-29.9,24.3-15,49.1-31.2,53.9-33.7,16.7-10,31.3-13.7,45.9-13.7s30.8,3.7,46.4,10.6c109,43,174.3,101.1,263.3,127.9,5.9,1.9,11.3,2.5,17.3,2.5,21,0,32.9-13.1,41-28.1,8.1-12.5-1.6-36.8,12.9-36.8s3.8,12.5,3.8,15c-6.5,24.3-16.2,46.8-28.6,66.1-21.6,33.1-58.3,65.5-117.1,65.5s-147.3-44.3-205-94.2v3.7c0,8.7,1.6,20,8.6,37.4,17.3,41.8,41,74.2,65.3,109.8,11.3,16.8,22.7,33.7,34,53,31.8-38.1,64.2-81.7,134.9-89.8-21.6,28.7-26.4,87.3-26.4,102.9s0,8.7.5,13.1c-25.9-16.8-44.8-23.1-61.5-23.1s-26.4,5.6-37.8,13.1c8.1,15,15.1,31.2,23.2,48.7,9.7,21.8,15.1,38.1,15.6,47.4.5,9.4,1.1,15.6,1.1,18.7,0,25-8.1,48-24.8,68.6-8.1,10.6-16.7,20.6-25.4,31.2-17.8,21.2-35.6,44.3-42.1,76.1-16.2-47.4-73.4-100.4-127.3-124.1v124.1h-7v-127.3c-27.5-10.6-55.6-17.5-80.9-17.5s-60.4,11.2-76.1,46.2c-6.5,13.7,1.6,31.2-12.4,31.2h-1.1c-6.5,0-5.9-9.4-1.1-20,23.7-52.4,62.6-108.6,127.3-158.5,12.4,4.4,27.5,10,44.2,17.5v-43c-3.8-9.4-8.1-17.5-12.4-23.1-2.2-3.1-4.3-5-5.9-6.9l18.3-28.1v-237.7c-15.1-9.4-30.8-16.2-49.6-20.6-11.3,6.9-17.8,14.4-18.9,21.8s-1.6,13.1-1.6,16.2c0,8.7,1.6,16.8,4.3,25.6,5.9,20.6,19.4,43,38.8,56.2-11.3,39.9-45.9,99.2-97.6,107.3-4.3.6-8.1,1.2-12.4,1.2-15.6,0-38.8-2.5-62-29.3-3.8-4.4-5.9-8.1-7-12.5-.5-1.3-.5-1.9-.5-2.5ZM3214.6,825.4v38.1c53.4,25,127.9,98.6,146.7,140.4.5-3.1,1.1-6.9,1.1-10,0-5.6-1.1-11.9-3.2-18.1-24.3-81.7-109-184-123-221.5-9.2-24.3-14.6-42.4-15.1-54.9-1.1-11.9-1.1-20.6-1.1-25.6,0-28.1,6.5-56.8,20.5-79.9,7-11.9,14-21.2,21.6-29.3-15.6-14.4-30.2-27.4-46.9-38.1l-.5-.6v239.6c3.8,11.9,8.6,18.7,12.4,23.7,2.2,3.1,4.3,5,6.5,6.9l-18.9,29.3Z"/>
    <path id="SVGID6" data-name="SVGID" class="st11" d="M3650,642.6c23.2-26.8,55-86.1,92.3-89.2,2.7-.6,5.4-.6,8.1-.6,6.5,0,15.1,1.9,21.6,4.4,3.8,1.9,7,3.7,9.7,5.6-5.9,1.9-10.8,5-15.6,9.4-8.1,7.5-15.6,21.2-17.3,44.3v297.6c4.3,45.5,41.5,54.3,46.9,54.3s3.2,0,4.3-.6c3.8-1.9,9.2-5.6,14-10,2.7-1.9,5.9-4.4,8.6-6.9l6.5,9.4-80.9,73c-61-9.4-93.9-44.9-98.2-94.2v-216.5c-1.6-13.1-4.9-23.7-9.7-30.6-10.3-15-22.7-16.2-23.2-16.2,0-8.1,8.6-5,32.9-33.1ZM3707.1,434.2c4.9,7.5,10.3,14.4,16.2,21.2,10.3,11.9,24.8,23.7,42.1,29.3l-56.6,56.2-58.3-48,56.6-58.6Z"/>
    <path id="SVGID7" data-name="SVGID" class="st11" d="M3829.1,495.3c0-53,71.8-35.6,153.8-170.3-27.5,54.9-31.8,99.2-32.4,126v449.2c3.2,46.8,41.5,57.4,47.5,57.4s2.7,0,3.8-.6c3.8-1.9,9.2-5.6,14-10,2.7-1.9,5.9-4.4,8.6-7.5l6.5,10-80.9,73c-62-9.4-95.5-47.4-98.2-97.3v-393c0-22.5-7.6-34.9-22.1-36.8h-.5Z"/>
    <path id="SVGID8" data-name="SVGID" class="st11" d="M4025.4,1004.4c0-.6-.5-3.7,3.2-11.9,18.9-41.8,48.6-84.8,99.8-124.8,8.1,2.5,14.6,5.6,21,8.7v-82.3c-14.6-22.5-25.4-40.6-29.7-49.9-8.1-16.2-11.9-31.8-11.9-47.4s0-29.9,15.6-58.6c15.1-28.7,38.8-49.3,50.2-58.6-7.6,8.7-11.3,18.7-11.3,29.9s1.6,28.7,23.7,71.1c10.3-49.9,34.5-112.9,126.8-129.8-12.4,14.4-18.9,43.7-18.9,67.4s-.5,13.1,3.8,28.7c-55.6,5-91.2,20-104.1,47.4,24.3,43,57.2,92.3,79.3,142.9,15.1,34.3,12.9,47.4,12.9,51.8,0,31.2-17.8,51.2-39.4,78-13.5,16.8-27.5,34.9-32.4,59.9-17.8-20.6-37.2-41.2-58.3-56.8v49.3c3.8,10.6,8.6,18.1,12.4,23.1,2.2,3.1,4.3,5,6.5,6.9l-18.9,29.3v3.1h-6.5v-11.2c-3.8-9.4-8.1-17.5-12.4-23.1-2.2-3.1-4.3-5-5.9-6.9l18.3-28.1v-47.4c-18.9-12.5-36.7-20.6-53.4-20.6s-45.9,16.8-56.1,39.3c-5.9,10.6,2.2,24.3-9.7,24.3-3.2,0-4.9-1.2-4.9-3.7ZM4156,880.3c41,23.1,64.7,60.5,73.4,79.9,0-1.3.5-3.1.5-4.4,0-12.5-7.6-34.3-22.1-62.4-15.1-28.1-34.5-60.5-51.8-88v74.9Z"/>
    <path id="SVGID9" data-name="SVGID" class="st11" d="M4719.9,596.4l106.8,104.8v-247.1c-.5-25-10.8-39.3-21-47.4-5.9-4.4-12.9-8.1-21-10,1.6-1.9,4.3-3.1,8.1-5,5.9-2.5,16.2-5,31.8-5,30.8,0,55.6,28.1,74.5,53.7,44.2,66.1,58.8,59.3,58.8,68.6l-4.3,1.2c-9.2,2.5-24.8,13.1-28.1,46.2v384.3l21.6,18.7c-51.3,10-123,41.2-165.6,67.4-63.7-76.1-167.8-108.6-167.8-200.9s106.3-175.3,106.3-229.6ZM4715.1,842.2c0,56.8,29.7,120.4,55,120.4,4.3-1.9,51.8-23.7,56.6-26.8v-218.4l-38.8-36.2c-13.5,14.4-25.9,29.9-36.7,46.8-9.2,14.4-17.8,31.8-24.8,51.2-7.6,19.3-11.3,40.5-11.3,63Z"/>
    <path id="SVGID10" data-name="SVGID" class="st11" d="M5001,656.9c0-8.7,22.1,5,48-36.8,21.6-29.9,49.6-69.2,87.9-69.2s25.9,2.5,31.8,5c3.8,1.9,6.5,3.1,8.1,4.4-8.1,1.9-15.1,5.6-21,10-10.3,7.5-20.5,20.6-20.5,42.4v247.7c0,58.6,33.4,96.7,60.4,96.7s12.4-2.5,18.3-6.9c1.6-.6,2.7-1.9,4.3-3.1,2.2-1.9,4.9-4.4,7.6-6.9-1.1-7.5-1.6-15-1.6-23.1v-213.4c-2.2-22.5-9.7-34.3-16.7-41.2-3.8-3.7-8.6-6.2-13.5-6.9,0-9.4,22.1,5.6,48-36.2,21.6-29.9,48.6-69.2,87.9-69.2s25.9,2.5,31.8,5c3.8,1.9,6.5,3.1,8.1,4.4-8.1,1.9-15.1,5.6-21,10-10.3,7.5-20.5,20-20.5,41.8v290.7c0,42.4,22.1,79.9,43.2,79.9s4.9-.6,8.6-2.5c1.6-.6,3.8-2.5,6.5-4.4l7.6-6.2c2.7-1.9,5.9-4.4,8.6-6.9l6.5,10-80.9,73c-52.3-8.1-87.9-45.5-100.3-93.6l-92.8,94.2c-15.1-5.6-29.1-13.7-42.1-24.3-22.1-18.1-46.9-47.4-56.1-94.2-3.8-19.3-5.9-41.2-5.9-66.8v-156c-2.2-22.5-9.7-33.7-16.7-40.6-3.8-3.7-8.6-6.2-13.5-6.9Z"/>
    <path id="SVGID11" data-name="SVGID" class="st11" d="M5662.5,688.1c0-2.5,1.6-4.4,4.3-5,1.6-.6,2.7-.6,3.8-.6,3.2,0,5.4,2.5,7.6,7.5,2.2,5.6,3.8,13.1,9.7,18.1,13.5,10,21.6,12.5,30.8,12.5s4.3-.6,6.5-.6c12.4-.6,19.4-9.4,22.1-23.7.5-3.1,1.1-6.9,1.1-10.6,0-11.9-2.7-30.6-14-53-5.9-11.9-9.2-25-9.2-38.1s.5-9.4,1.6-19.3c1.1-10,6.5-20.6,16.7-32.4,4.9-5.6,9.7-9.4,14.6-12.5l101.4-64.9c14.6-9.4,30.2-15,45.3-15,31.8,0,58.8,26.2,64.7,103.6l38.8-32.4c2.2-1.9,4.3-3.1,5.9-4.4,4.3-4.4,8.6-8.1,14.6-12.5v-36.8h7v31.8c16.2-11.9,75.5-54.9,95.5-78l28.6,68c7,16.8,14,34.3,22.1,53.7,13.5,32.4,31.3,77.4,48.6,122.9,2.7,7.5,4.3,15,4.3,21.8,0,12.5-4.9,29.3-27.5,51.2-22.7,21.8-57.2,42.4-92.3,69.9,56.1,87.3,122.5,267.6,196.9,297,4.3-6.2,7.6-10.6,12.9-16.8,18.9-23.7,2.2-39.3,19.4-41.2h1.1c6.5,0,5.4,6.2,5.4,6.9,0,4.4-1.6,8.7-3.8,13.1-3.8,10-8.1,16.8-14,24.3-17.3,21.8-34,43-59.3,74.9-61,0-109-53-144.6-117.3-36.1-64.3-66.4-136.6-93.3-179.1v105.4c3.8,11.9,8.6,18.1,12.4,23.1,2.2,3.1,4.3,5,6.5,6.9l-18.9,29.9v84.2h-7v-92.3c-3.8-9.4-8.1-17.5-12.4-23.1-2.2-3.1-4.3-5-5.9-6.9l18.3-28.1v-106.7c-18.9-26.8-31.8-33.1-58.3-43v126c0,23.1,6.5,34.9,20,36.2,0,26.8-23.7,54.3-53.4,94.8-29.7,39.9-63.7,93-85.2,172.2-1.6,6.9-2.2,11.9-3.8,16.2,1.6-5.6,2.2-10.6,3.8-16.2,10.3-52.4,17.3-170.9,17.3-202.8v-224c-21,9.4-42.6,23.1-62.6,47.4-4.9,5.6-7,15-9.2,22.5-2.2,7.5-4.9,10.6-8.1,10.6s-2.2,0-3.2-.6c-2.2-1.2-3.8-3.1-3.8-5.6s0-5,4.9-13.7c4.3-8.7,11.9-18.1,16.7-23.7,23.2-26.8,45.3-48,65.3-66.1v-177.2c0-5,0-10-.5-14.4-2.2-72.4-14-102.9-33.4-102.9s-11.3,1.9-17.3,6.2c-10.3,6.9-16.2,14.4-16.7,21.8-1.1,6.9-1.1,12.5-1.1,15,0,8.7,1.1,17.5,3.8,25.6,5.9,21.8,19.4,42.4,38.8,56.8-11.3,39.9-46.9,98.6-97.6,106.7-10.8,1.9-22.1,2.5-34.5-1.9-13.5-4.4-27.5-11.9-39.9-26.2-3.8-4.4-5.9-8.1-7.6-12.5-.5-1.3-.5-1.9-.5-2.5ZM5970.5,572.1v161c9.7-3.1,20-4.4,30.2-4.4s19.4,1.2,28.1,4.4v-205.9c-9.2,0-17.8,3.1-25.9,8.7l-32.9,27.4c.5,3.1.5,5.6.5,8.7ZM6035.8,735.5c28.1,11.9,50.7,35.6,71.8,65.5.5,0,1.1-.6,1.6-1.3,20.5-17.5,30.2-29.3,30.2-48s1.1-8.7-5.9-28.7c0-.6-.5-1.2-1.1-3.1l-63.1-169.7c-8.1-13.1-20.5-20.6-33.4-22.5v207.8Z"/>
    <path id="SVGID12" data-name="SVGID" class="st11" d="M6387.6,621.4c16.7-13.7,32.4-29.3,48-47.4h138.1v308.2c8.6,6.9,14.6,15,18.9,21.8,2.7,4.4,4.9,8.1,6.5,11.9-32.9,0-68.5,23.1-96,46.2-16.2,13.7-31.8,28.7-46.9,45.5h-4.3c-109,0-137-66.8-137-161v-145.4c-8.6-6.9-14.6-15-18.9-21.8-2.7-3.7-4.9-7.5-6.5-11.2,34,0,70.1-22.5,98.2-46.8ZM6412.9,892.1c0,44.3,9.7,57.4,37.8,57.4h7c5.9-4.4,10.3-7.5,16.2-11.9v-243.3h-53.4c-2.7,1.9-4.9,3.1-7.6,5v192.8Z"/>
    <path id="SVGID13" data-name="SVGID" class="st11" d="M6664.3,643.2c23.2-26.8,55-86.1,92.3-89.2,2.7-.6,5.4-.6,8.1-.6,6.5,0,15.1,1.9,21.6,4.4,3.8,1.9,7,3.7,9.7,5.6-5.9,1.9-10.8,5-15.6,9.4-8.1,7.5-15.6,21.2-17.3,44.3v297.6c4.3,45.5,41.5,54.3,46.9,54.3s3.2,0,4.3-.6c3.8-1.9,9.2-5.6,14-10,2.7-1.9,5.9-4.4,8.6-6.9l6.5,9.4-80.9,73c-61-9.4-93.9-44.9-98.2-94.2v-216.5c-1.6-13.1-4.9-23.7-9.7-30.6-10.3-15-22.7-16.2-23.2-16.2,0-8.1,8.6-5,32.9-33.1ZM6721.5,434.8c4.9,7.5,10.3,14.4,16.2,21.2,10.3,11.9,24.8,23.7,42.1,29.3l-56.6,56.2-58.3-48,56.6-58.6Z"/>
    <path class="st11" d="M1745.6,1014.4c11.3-24.3,28.1-47.4,49.6-63.6,21-16.2,43.7-21.2,62.6-21.2s12.4,0,18.9,1.3c10.3-14.4,11.3-26.8,11.3-33.7s-1.1-12.5-3.2-19.3c-11.3-36.8-25.9-62.4-41.5-84.2-10.3-8.7-43.7-26.8-71.2-26.8s-14,.6-20,5c0-2.5,0-4.4,4.9-14.4,4.3-9.4,14.6-21.2,31.3-26.8-12.4-14.4-23.7-28.7-31.8-48-11.3-24.3-17.3-43-17.8-55.5-.5-12.5-1.1-20.6-1.1-23.7,0-36.8,10.3-69.9,29.1-94.8,9.2-12.5,18.3-21.2,27-26.2l83.6-37.4c9.7-3.1,18.9-5,28.1-5,28.1,0,53.9,16.2,64.2,66.1,4.3,22.5,17.8,64.9,42.6,64.9s30.8-26.2,35.1-43.7c.5-1.9.5-3.7.5-5,0-6.9-4.3-15.6-4.3-20.6s-1.1-4.4,5.4-8.7c1.1-.6,2.2-1.2,3.2-1.2,3.8,0,5.4,6.9,5.4,15v3.7c-2.7,38.7-25.4,76.7-58.3,88.6v169.1c3.8,11.9,8.6,18.7,12.4,23.7,2.2,3.1,4.3,5,6.5,6.9l-18.9,29.3v162.8c32.9,28.1,60.4,54.9,107.9,69.9,9.7,2.5,17.8,3.7,24.8,3.7,16.7,0,27-6.2,33.4-13.1,8.6-13.7-1.6-34.9,12.9-36.8,3.8,0,5.4,2.5,5.4,7.5v3.1c-2.7,13.1-8.1,25.6-14,37.4-17.3,31.8-51.8,73.6-123,73.6s-39.9-3.1-63.7-10c-63.7-18.7-131.6-100.4-190.4-105.4h-3.2c-18.3,0-34,14.4-45.9,34.9-11.9,20.6-20,44.9-22.7,59.3l-5.9-1.9c6.5-37.4,16.7-70.5,30.8-98.6ZM1796.8,513.4c0,1.2.5,3.1.5,5,1.6,8.1,3.2,18.1,8.1,28.7,32.9,79.9,89,93,137.6,202.1,10.8,24.3,16.7,45.5,16.7,63s2.7,20-10.3,46.8c-12.9,27.4-36.7,49.3-55.6,74.9,44.8,12.5,72.8,31.2,98.2,51.2v-165.3c-3.8-9.4-8.1-17.5-12.4-23.1-2.2-3.1-4.3-5-5.9-6.9l18.3-28.1v-160.3c-10.3,4.4-21,5-31.8,5-30.2,0-58.8-11.9-77.7-25,3.2-10.6,4.3-20.6,4.3-31.2s.5-20-6.5-40.5c-7-19.3-19.4-38.1-36.7-38.1s-6.5.6-9.7,1.9l-16.2,7.5c-7,2.5-12.4,7.5-16.2,14.4-3.2,5.6-4.9,11.2-4.9,18.1Z"/>
    <path class="st11" d="M2435,1005.1c0-.6-.5-3.7,3.2-11.9,18.9-41.8,48.6-84.8,99.8-124.8,8.1,2.5,14.6,5.6,21,8.7v-82.3c-14.6-22.5-25.4-40.6-29.7-49.9-8.1-16.2-11.9-31.8-11.9-47.4s0-29.9,15.6-58.6c15.1-28.7,38.8-49.3,50.2-58.6-7.6,8.7-11.3,18.7-11.3,29.9s1.6,28.7,23.7,71.1c10.3-49.9,34.5-112.9,126.8-129.8-12.4,14.4-18.9,43.7-18.9,67.4s-.5,13.1,3.8,28.7c-55.6,5-91.2,20-104.1,47.4,24.3,43,57.2,92.3,79.3,142.9,15.1,34.3,12.9,47.4,12.9,51.8,0,31.2-17.8,51.2-39.4,78-13.5,16.8-27.5,34.9-32.4,59.9-17.8-20.6-37.2-41.2-58.3-56.8v49.3c3.8,10.6,8.6,18.1,12.4,23.1,2.2,3.1,4.3,5,6.5,6.9l-18.9,29.3v3.1h-6.5v-11.2c-3.8-9.4-8.1-17.5-12.4-23.1-2.2-3.1-4.3-5-5.9-6.9l18.3-28.1v-47.4c-18.9-12.5-36.7-20.6-53.4-20.6s-45.9,16.8-56.1,39.3c-5.9,10.6,2.2,24.3-9.7,24.3-3.2,0-4.9-1.2-4.9-3.7ZM2565.6,880.9c41,23.1,64.7,60.5,73.4,79.9,0-1.3.5-3.1.5-4.4,0-12.5-7.6-34.3-22.1-62.4-15.1-28.1-34.5-60.5-51.8-88v74.9Z"/>
    <path class="st11" d="M3650,642.6c23.2-26.8,55-86.1,92.3-89.2,2.7-.6,5.4-.6,8.1-.6,6.5,0,15.1,1.9,21.6,4.4,3.8,1.9,7,3.7,9.7,5.6-5.9,1.9-10.8,5-15.6,9.4-8.1,7.5-15.6,21.2-17.3,44.3v297.6c4.3,45.5,41.5,54.3,46.9,54.3s3.2,0,4.3-.6c3.8-1.9,9.2-5.6,14-10,2.7-1.9,5.9-4.4,8.6-6.9l6.5,9.4-80.9,73c-61-9.4-93.9-44.9-98.2-94.2v-216.5c-1.6-13.1-4.9-23.7-9.7-30.6-10.3-15-22.7-16.2-23.2-16.2,0-8.1,8.6-5,32.9-33.1ZM3707.1,434.2c4.9,7.5,10.3,14.4,16.2,21.2,10.3,11.9,24.8,23.7,42.1,29.3l-56.6,56.2-58.3-48,56.6-58.6Z"/>
    <path class="st11" d="M4025.4,1004.4c0-.6-.5-3.7,3.2-11.9,18.9-41.8,48.6-84.8,99.8-124.8,8.1,2.5,14.6,5.6,21,8.7v-82.3c-14.6-22.5-25.4-40.6-29.7-49.9-8.1-16.2-11.9-31.8-11.9-47.4s0-29.9,15.6-58.6c15.1-28.7,38.8-49.3,50.2-58.6-7.6,8.7-11.3,18.7-11.3,29.9s1.6,28.7,23.7,71.1c10.3-49.9,34.5-112.9,126.8-129.8-12.4,14.4-18.9,43.7-18.9,67.4s-.5,13.1,3.8,28.7c-55.6,5-91.2,20-104.1,47.4,24.3,43,57.2,92.3,79.3,142.9,15.1,34.3,12.9,47.4,12.9,51.8,0,31.2-17.8,51.2-39.4,78-13.5,16.8-27.5,34.9-32.4,59.9-17.8-20.6-37.2-41.2-58.3-56.8v49.3c3.8,10.6,8.6,18.1,12.4,23.1,2.2,3.1,4.3,5,6.5,6.9l-18.9,29.3v3.1h-6.5v-11.2c-3.8-9.4-8.1-17.5-12.4-23.1-2.2-3.1-4.3-5-5.9-6.9l18.3-28.1v-47.4c-18.9-12.5-36.7-20.6-53.4-20.6s-45.9,16.8-56.1,39.3c-5.9,10.6,2.2,24.3-9.7,24.3-3.2,0-4.9-1.2-4.9-3.7ZM4156,880.3c41,23.1,64.7,60.5,73.4,79.9,0-1.3.5-3.1.5-4.4,0-12.5-7.6-34.3-22.1-62.4-15.1-28.1-34.5-60.5-51.8-88v74.9Z"/>
    <path class="st11" d="M5001,656.9c0-8.7,22.1,5,48-36.8,21.6-29.9,49.6-69.2,87.9-69.2s25.9,2.5,31.8,5c3.8,1.9,6.5,3.1,8.1,4.4-8.1,1.9-15.1,5.6-21,10-10.3,7.5-20.5,20.6-20.5,42.4v247.7c0,58.6,33.4,96.7,60.4,96.7s12.4-2.5,18.3-6.9c1.6-.6,2.7-1.9,4.3-3.1,2.2-1.9,4.9-4.4,7.6-6.9-1.1-7.5-1.6-15-1.6-23.1v-213.4c-2.2-22.5-9.7-34.3-16.7-41.2-3.8-3.7-8.6-6.2-13.5-6.9,0-9.4,22.1,5.6,48-36.2,21.6-29.9,48.6-69.2,87.9-69.2s25.9,2.5,31.8,5c3.8,1.9,6.5,3.1,8.1,4.4-8.1,1.9-15.1,5.6-21,10-10.3,7.5-20.5,20-20.5,41.8v290.7c0,42.4,22.1,79.9,43.2,79.9s4.9-.6,8.6-2.5c1.6-.6,3.8-2.5,6.5-4.4l7.6-6.2c2.7-1.9,5.9-4.4,8.6-6.9l6.5,10-80.9,73c-52.3-8.1-87.9-45.5-100.3-93.6l-92.8,94.2c-15.1-5.6-29.1-13.7-42.1-24.3-22.1-18.1-46.9-47.4-56.1-94.2-3.8-19.3-5.9-41.2-5.9-66.8v-156c-2.2-22.5-9.7-33.7-16.7-40.6-3.8-3.7-8.6-6.2-13.5-6.9Z"/>
    <path class="st11" d="M6387.6,621.4c16.7-13.7,32.4-29.3,48-47.4h138.1v308.2c8.6,6.9,14.6,15,18.9,21.8,2.7,4.4,4.9,8.1,6.5,11.9-32.9,0-68.5,23.1-96,46.2-16.2,13.7-31.8,28.7-46.9,45.5h-4.3c-109,0-137-66.8-137-161v-145.4c-8.6-6.9-14.6-15-18.9-21.8-2.7-3.7-4.9-7.5-6.5-11.2,34,0,70.1-22.5,98.2-46.8ZM6412.9,892.1c0,44.3,9.7,57.4,37.8,57.4h7c5.9-4.4,10.3-7.5,16.2-11.9v-243.3h-53.4c-2.7,1.9-4.9,3.1-7.6,5v192.8Z"/>
    <path id="SVGID14" data-name="SVGID" class="st11" d="M1745.6,1014.4c11.3-24.3,28.1-47.4,49.6-63.6,21-16.2,43.7-21.2,62.6-21.2s12.4,0,18.9,1.3c10.3-14.4,11.3-26.8,11.3-33.7s-1.1-12.5-3.2-19.3c-11.3-36.8-25.9-62.4-41.5-84.2-10.3-8.7-43.7-26.8-71.2-26.8s-14,.6-20,5c0-2.5,0-4.4,4.9-14.4,4.3-9.4,14.6-21.2,31.3-26.8-12.4-14.4-23.7-28.7-31.8-48-11.3-24.3-17.3-43-17.8-55.5-.5-12.5-1.1-20.6-1.1-23.7,0-36.8,10.3-69.9,29.1-94.8,9.2-12.5,18.3-21.2,27-26.2l83.6-37.4c9.7-3.1,18.9-5,28.1-5,28.1,0,53.9,16.2,64.2,66.1,4.3,22.5,17.8,64.9,42.6,64.9s30.8-26.2,35.1-43.7c.5-1.9.5-3.7.5-5,0-6.9-4.3-15.6-4.3-20.6s-1.1-4.4,5.4-8.7c1.1-.6,2.2-1.2,3.2-1.2,3.8,0,5.4,6.9,5.4,15v3.7c-2.7,38.7-25.4,76.7-58.3,88.6v169.1c3.8,11.9,8.6,18.7,12.4,23.7,2.2,3.1,4.3,5,6.5,6.9l-18.9,29.3v162.8c32.9,28.1,60.4,54.9,107.9,69.9,9.7,2.5,17.8,3.7,24.8,3.7,16.7,0,27-6.2,33.4-13.1,8.6-13.7-1.6-34.9,12.9-36.8,3.8,0,5.4,2.5,5.4,7.5v3.1c-2.7,13.1-8.1,25.6-14,37.4-17.3,31.8-51.8,73.6-123,73.6s-39.9-3.1-63.7-10c-63.7-18.7-131.6-100.4-190.4-105.4h-3.2c-18.3,0-34,14.4-45.9,34.9-11.9,20.6-20,44.9-22.7,59.3l-5.9-1.9c6.5-37.4,16.7-70.5,30.8-98.6ZM1796.8,513.4c0,1.2.5,3.1.5,5,1.6,8.1,3.2,18.1,8.1,28.7,32.9,79.9,89,93,137.6,202.1,10.8,24.3,16.7,45.5,16.7,63s2.7,20-10.3,46.8c-12.9,27.4-36.7,49.3-55.6,74.9,44.8,12.5,72.8,31.2,98.2,51.2v-165.3c-3.8-9.4-8.1-17.5-12.4-23.1-2.2-3.1-4.3-5-5.9-6.9l18.3-28.1v-160.3c-10.3,4.4-21,5-31.8,5-30.2,0-58.8-11.9-77.7-25,3.2-10.6,4.3-20.6,4.3-31.2s.5-20-6.5-40.5c-7-19.3-19.4-38.1-36.7-38.1s-6.5.6-9.7,1.9l-16.2,7.5c-7,2.5-12.4,7.5-16.2,14.4-3.2,5.6-4.9,11.2-4.9,18.1Z"/>
    <path id="SVGID15" data-name="SVGID" class="st11" d="M2149.6,775.5c0-9.4,23.7-7.5,66.9-52.4,43.2-44.9,128.4-129.1,158.6-161,36.7,35.6,65.8,101.1,65.8,156,0,107.3-113.3,180.9-148.9,211.5,10.8,26.8,29.1,34.3,49.1,34.3s37.8-5.6,54.5-20.6l35.6-31.2,5.4,10.6-141.9,125.4c-40.5,0-112.8-71.1-112.8-141.6v-83.6c-3.2-33.7-19.4-43.7-27.5-46.2l-4.9-1.3ZM2281.8,711.8v150.4c0,23.7,2.2,42.4,6.5,56.8,18.9-16.8,83.1-58.6,83.1-129.1s-13.5-80.5-28.6-97.3c-9.2-9.4-19.4-12.5-29.7-12.5s-15.1,2.5-21,7.5c-5.9,5.6-9.7,13.7-10.3,24.3Z"/>
    <path id="SVGID16" data-name="SVGID" class="st11" d="M2435,1005.1c0-.6-.5-3.7,3.2-11.9,18.9-41.8,48.6-84.8,99.8-124.8,8.1,2.5,14.6,5.6,21,8.7v-82.3c-14.6-22.5-25.4-40.6-29.7-49.9-8.1-16.2-11.9-31.8-11.9-47.4s0-29.9,15.6-58.6c15.1-28.7,38.8-49.3,50.2-58.6-7.6,8.7-11.3,18.7-11.3,29.9s1.6,28.7,23.7,71.1c10.3-49.9,34.5-112.9,126.8-129.8-12.4,14.4-18.9,43.7-18.9,67.4s-.5,13.1,3.8,28.7c-55.6,5-91.2,20-104.1,47.4,24.3,43,57.2,92.3,79.3,142.9,15.1,34.3,12.9,47.4,12.9,51.8,0,31.2-17.8,51.2-39.4,78-13.5,16.8-27.5,34.9-32.4,59.9-17.8-20.6-37.2-41.2-58.3-56.8v49.3c3.8,10.6,8.6,18.1,12.4,23.1,2.2,3.1,4.3,5,6.5,6.9l-18.9,29.3v3.1h-6.5v-11.2c-3.8-9.4-8.1-17.5-12.4-23.1-2.2-3.1-4.3-5-5.9-6.9l18.3-28.1v-47.4c-18.9-12.5-36.7-20.6-53.4-20.6s-45.9,16.8-56.1,39.3c-5.9,10.6,2.2,24.3-9.7,24.3-3.2,0-4.9-1.2-4.9-3.7ZM2565.6,880.9c41,23.1,64.7,60.5,73.4,79.9,0-1.3.5-3.1.5-4.4,0-12.5-7.6-34.3-22.1-62.4-15.1-28.1-34.5-60.5-51.8-88v74.9Z"/>
    <path id="SVGID17" data-name="SVGID" class="st11" d="M3001,685c0-2.5,1.6-4.4,4.3-5,1.6-.6,2.7-.6,3.8-.6,2.7,0,4.9,1.9,7,7.5,2.2,5.6,3.8,13.1,9.7,18.1,13.5,9.4,22.1,11.9,33.4,11.9h3.8c12.4-.6,20-9.4,22.1-23.7.5-3.7,1.1-7.5,1.1-11.2,0-11.2-2.7-29.9-14-52.4-9.2-18.1-9.2-31.8-9.2-38.7,0-18.7,7.6-48.7,32.9-64.3,16.7-10.6,32.4-20.6,46.9-29.9,24.3-15,49.1-31.2,53.9-33.7,16.7-10,31.3-13.7,45.9-13.7s30.8,3.7,46.4,10.6c109,43,174.3,101.1,263.3,127.9,5.9,1.9,11.3,2.5,17.3,2.5,21,0,32.9-13.1,41-28.1,8.1-12.5-1.6-36.8,12.9-36.8s3.8,12.5,3.8,15c-6.5,24.3-16.2,46.8-28.6,66.1-21.6,33.1-58.3,65.5-117.1,65.5s-147.3-44.3-205-94.2v3.7c0,8.7,1.6,20,8.6,37.4,17.3,41.8,41,74.2,65.3,109.8,11.3,16.8,22.7,33.7,34,53,31.8-38.1,64.2-81.7,134.9-89.8-21.6,28.7-26.4,87.3-26.4,102.9s0,8.7.5,13.1c-25.9-16.8-44.8-23.1-61.5-23.1s-26.4,5.6-37.8,13.1c8.1,15,15.1,31.2,23.2,48.7,9.7,21.8,15.1,38.1,15.6,47.4.5,9.4,1.1,15.6,1.1,18.7,0,25-8.1,48-24.8,68.6-8.1,10.6-16.7,20.6-25.4,31.2-17.8,21.2-35.6,44.3-42.1,76.1-16.2-47.4-73.4-100.4-127.3-124.1v124.1h-7v-127.3c-27.5-10.6-55.6-17.5-80.9-17.5s-60.4,11.2-76.1,46.2c-6.5,13.7,1.6,31.2-12.4,31.2h-1.1c-6.5,0-5.9-9.4-1.1-20,23.7-52.4,62.6-108.6,127.3-158.5,12.4,4.4,27.5,10,44.2,17.5v-43c-3.8-9.4-8.1-17.5-12.4-23.1-2.2-3.1-4.3-5-5.9-6.9l18.3-28.1v-237.7c-15.1-9.4-30.8-16.2-49.6-20.6-11.3,6.9-17.8,14.4-18.9,21.8s-1.6,13.1-1.6,16.2c0,8.7,1.6,16.8,4.3,25.6,5.9,20.6,19.4,43,38.8,56.2-11.3,39.9-45.9,99.2-97.6,107.3-4.3.6-8.1,1.2-12.4,1.2-15.6,0-38.8-2.5-62-29.3-3.8-4.4-5.9-8.1-7-12.5-.5-1.3-.5-1.9-.5-2.5ZM3214.6,825.4v38.1c53.4,25,127.9,98.6,146.7,140.4.5-3.1,1.1-6.9,1.1-10,0-5.6-1.1-11.9-3.2-18.1-24.3-81.7-109-184-123-221.5-9.2-24.3-14.6-42.4-15.1-54.9-1.1-11.9-1.1-20.6-1.1-25.6,0-28.1,6.5-56.8,20.5-79.9,7-11.9,14-21.2,21.6-29.3-15.6-14.4-30.2-27.4-46.9-38.1l-.5-.6v239.6c3.8,11.9,8.6,18.7,12.4,23.7,2.2,3.1,4.3,5,6.5,6.9l-18.9,29.3Z"/>
    <path id="SVGID18" data-name="SVGID" class="st11" d="M3650,642.6c23.2-26.8,55-86.1,92.3-89.2,2.7-.6,5.4-.6,8.1-.6,6.5,0,15.1,1.9,21.6,4.4,3.8,1.9,7,3.7,9.7,5.6-5.9,1.9-10.8,5-15.6,9.4-8.1,7.5-15.6,21.2-17.3,44.3v297.6c4.3,45.5,41.5,54.3,46.9,54.3s3.2,0,4.3-.6c3.8-1.9,9.2-5.6,14-10,2.7-1.9,5.9-4.4,8.6-6.9l6.5,9.4-80.9,73c-61-9.4-93.9-44.9-98.2-94.2v-216.5c-1.6-13.1-4.9-23.7-9.7-30.6-10.3-15-22.7-16.2-23.2-16.2,0-8.1,8.6-5,32.9-33.1ZM3707.1,434.2c4.9,7.5,10.3,14.4,16.2,21.2,10.3,11.9,24.8,23.7,42.1,29.3l-56.6,56.2-58.3-48,56.6-58.6Z"/>
    <path id="SVGID19" data-name="SVGID" class="st11" d="M3829.1,495.3c0-53,71.8-35.6,153.8-170.3-27.5,54.9-31.8,99.2-32.4,126v449.2c3.2,46.8,41.5,57.4,47.5,57.4s2.7,0,3.8-.6c3.8-1.9,9.2-5.6,14-10,2.7-1.9,5.9-4.4,8.6-7.5l6.5,10-80.9,73c-62-9.4-95.5-47.4-98.2-97.3v-393c0-22.5-7.6-34.9-22.1-36.8h-.5Z"/>
    <path id="SVGID20" data-name="SVGID" class="st11" d="M4025.4,1004.4c0-.6-.5-3.7,3.2-11.9,18.9-41.8,48.6-84.8,99.8-124.8,8.1,2.5,14.6,5.6,21,8.7v-82.3c-14.6-22.5-25.4-40.6-29.7-49.9-8.1-16.2-11.9-31.8-11.9-47.4s0-29.9,15.6-58.6c15.1-28.7,38.8-49.3,50.2-58.6-7.6,8.7-11.3,18.7-11.3,29.9s1.6,28.7,23.7,71.1c10.3-49.9,34.5-112.9,126.8-129.8-12.4,14.4-18.9,43.7-18.9,67.4s-.5,13.1,3.8,28.7c-55.6,5-91.2,20-104.1,47.4,24.3,43,57.2,92.3,79.3,142.9,15.1,34.3,12.9,47.4,12.9,51.8,0,31.2-17.8,51.2-39.4,78-13.5,16.8-27.5,34.9-32.4,59.9-17.8-20.6-37.2-41.2-58.3-56.8v49.3c3.8,10.6,8.6,18.1,12.4,23.1,2.2,3.1,4.3,5,6.5,6.9l-18.9,29.3v3.1h-6.5v-11.2c-3.8-9.4-8.1-17.5-12.4-23.1-2.2-3.1-4.3-5-5.9-6.9l18.3-28.1v-47.4c-18.9-12.5-36.7-20.6-53.4-20.6s-45.9,16.8-56.1,39.3c-5.9,10.6,2.2,24.3-9.7,24.3-3.2,0-4.9-1.2-4.9-3.7ZM4156,880.3c41,23.1,64.7,60.5,73.4,79.9,0-1.3.5-3.1.5-4.4,0-12.5-7.6-34.3-22.1-62.4-15.1-28.1-34.5-60.5-51.8-88v74.9Z"/>
    <path id="SVGID21" data-name="SVGID" class="st11" d="M4719.9,596.4l106.8,104.8v-247.1c-.5-25-10.8-39.3-21-47.4-5.9-4.4-12.9-8.1-21-10,1.6-1.9,4.3-3.1,8.1-5,5.9-2.5,16.2-5,31.8-5,30.8,0,55.6,28.1,74.5,53.7,44.2,66.1,58.8,59.3,58.8,68.6l-4.3,1.2c-9.2,2.5-24.8,13.1-28.1,46.2v384.3l21.6,18.7c-51.3,10-123,41.2-165.6,67.4-63.7-76.1-167.8-108.6-167.8-200.9s106.3-175.3,106.3-229.6ZM4715.1,842.2c0,56.8,29.7,120.4,55,120.4,4.3-1.9,51.8-23.7,56.6-26.8v-218.4l-38.8-36.2c-13.5,14.4-25.9,29.9-36.7,46.8-9.2,14.4-17.8,31.8-24.8,51.2-7.6,19.3-11.3,40.5-11.3,63Z"/>
    <path id="SVGID22" data-name="SVGID" class="st11" d="M5001,656.9c0-8.7,22.1,5,48-36.8,21.6-29.9,49.6-69.2,87.9-69.2s25.9,2.5,31.8,5c3.8,1.9,6.5,3.1,8.1,4.4-8.1,1.9-15.1,5.6-21,10-10.3,7.5-20.5,20.6-20.5,42.4v247.7c0,58.6,33.4,96.7,60.4,96.7s12.4-2.5,18.3-6.9c1.6-.6,2.7-1.9,4.3-3.1,2.2-1.9,4.9-4.4,7.6-6.9-1.1-7.5-1.6-15-1.6-23.1v-213.4c-2.2-22.5-9.7-34.3-16.7-41.2-3.8-3.7-8.6-6.2-13.5-6.9,0-9.4,22.1,5.6,48-36.2,21.6-29.9,48.6-69.2,87.9-69.2s25.9,2.5,31.8,5c3.8,1.9,6.5,3.1,8.1,4.4-8.1,1.9-15.1,5.6-21,10-10.3,7.5-20.5,20-20.5,41.8v290.7c0,42.4,22.1,79.9,43.2,79.9s4.9-.6,8.6-2.5c1.6-.6,3.8-2.5,6.5-4.4l7.6-6.2c2.7-1.9,5.9-4.4,8.6-6.9l6.5,10-80.9,73c-52.3-8.1-87.9-45.5-100.3-93.6l-92.8,94.2c-15.1-5.6-29.1-13.7-42.1-24.3-22.1-18.1-46.9-47.4-56.1-94.2-3.8-19.3-5.9-41.2-5.9-66.8v-156c-2.2-22.5-9.7-33.7-16.7-40.6-3.8-3.7-8.6-6.2-13.5-6.9Z"/>
    <path id="SVGID23" data-name="SVGID" class="st11" d="M5662.5,688.1c0-2.5,1.6-4.4,4.3-5,1.6-.6,2.7-.6,3.8-.6,3.2,0,5.4,2.5,7.6,7.5,2.2,5.6,3.8,13.1,9.7,18.1,13.5,10,21.6,12.5,30.8,12.5s4.3-.6,6.5-.6c12.4-.6,19.4-9.4,22.1-23.7.5-3.1,1.1-6.9,1.1-10.6,0-11.9-2.7-30.6-14-53-5.9-11.9-9.2-25-9.2-38.1s.5-9.4,1.6-19.3c1.1-10,6.5-20.6,16.7-32.4,4.9-5.6,9.7-9.4,14.6-12.5l101.4-64.9c14.6-9.4,30.2-15,45.3-15,31.8,0,58.8,26.2,64.7,103.6l38.8-32.4c2.2-1.9,4.3-3.1,5.9-4.4,4.3-4.4,8.6-8.1,14.6-12.5v-36.8h7v31.8c16.2-11.9,75.5-54.9,95.5-78l28.6,68c7,16.8,14,34.3,22.1,53.7,13.5,32.4,31.3,77.4,48.6,122.9,2.7,7.5,4.3,15,4.3,21.8,0,12.5-4.9,29.3-27.5,51.2-22.7,21.8-57.2,42.4-92.3,69.9,56.1,87.3,122.5,267.6,196.9,297,4.3-6.2,7.6-10.6,12.9-16.8,18.9-23.7,2.2-39.3,19.4-41.2h1.1c6.5,0,5.4,6.2,5.4,6.9,0,4.4-1.6,8.7-3.8,13.1-3.8,10-8.1,16.8-14,24.3-17.3,21.8-34,43-59.3,74.9-61,0-109-53-144.6-117.3-36.1-64.3-66.4-136.6-93.3-179.1v105.4c3.8,11.9,8.6,18.1,12.4,23.1,2.2,3.1,4.3,5,6.5,6.9l-18.9,29.9v84.2h-7v-92.3c-3.8-9.4-8.1-17.5-12.4-23.1-2.2-3.1-4.3-5-5.9-6.9l18.3-28.1v-106.7c-18.9-26.8-31.8-33.1-58.3-43v126c0,23.1,6.5,34.9,20,36.2,0,26.8-23.7,54.3-53.4,94.8-29.7,39.9-63.7,93-85.2,172.2-1.6,6.9-2.2,11.9-3.8,16.2,1.6-5.6,2.2-10.6,3.8-16.2,10.3-52.4,17.3-170.9,17.3-202.8v-224c-21,9.4-42.6,23.1-62.6,47.4-4.9,5.6-7,15-9.2,22.5-2.2,7.5-4.9,10.6-8.1,10.6s-2.2,0-3.2-.6c-2.2-1.2-3.8-3.1-3.8-5.6s0-5,4.9-13.7c4.3-8.7,11.9-18.1,16.7-23.7,23.2-26.8,45.3-48,65.3-66.1v-177.2c0-5,0-10-.5-14.4-2.2-72.4-14-102.9-33.4-102.9s-11.3,1.9-17.3,6.2c-10.3,6.9-16.2,14.4-16.7,21.8-1.1,6.9-1.1,12.5-1.1,15,0,8.7,1.1,17.5,3.8,25.6,5.9,21.8,19.4,42.4,38.8,56.8-11.3,39.9-46.9,98.6-97.6,106.7-10.8,1.9-22.1,2.5-34.5-1.9-13.5-4.4-27.5-11.9-39.9-26.2-3.8-4.4-5.9-8.1-7.6-12.5-.5-1.3-.5-1.9-.5-2.5ZM5970.5,572.1v161c9.7-3.1,20-4.4,30.2-4.4s19.4,1.2,28.1,4.4v-205.9c-9.2,0-17.8,3.1-25.9,8.7l-32.9,27.4c.5,3.1.5,5.6.5,8.7ZM6035.8,735.5c28.1,11.9,50.7,35.6,71.8,65.5.5,0,1.1-.6,1.6-1.3,20.5-17.5,30.2-29.3,30.2-48s1.1-8.7-5.9-28.7c0-.6-.5-1.2-1.1-3.1l-63.1-169.7c-8.1-13.1-20.5-20.6-33.4-22.5v207.8Z"/>
    <path id="SVGID24" data-name="SVGID" class="st11" d="M6387.6,621.4c16.7-13.7,32.4-29.3,48-47.4h138.1v308.2c8.6,6.9,14.6,15,18.9,21.8,2.7,4.4,4.9,8.1,6.5,11.9-32.9,0-68.5,23.1-96,46.2-16.2,13.7-31.8,28.7-46.9,45.5h-4.3c-109,0-137-66.8-137-161v-145.4c-8.6-6.9-14.6-15-18.9-21.8-2.7-3.7-4.9-7.5-6.5-11.2,34,0,70.1-22.5,98.2-46.8ZM6412.9,892.1c0,44.3,9.7,57.4,37.8,57.4h7c5.9-4.4,10.3-7.5,16.2-11.9v-243.3h-53.4c-2.7,1.9-4.9,3.1-7.6,5v192.8Z"/>
    <path id="SVGID25" data-name="SVGID" class="st11" d="M6664.3,643.2c23.2-26.8,55-86.1,92.3-89.2,2.7-.6,5.4-.6,8.1-.6,6.5,0,15.1,1.9,21.6,4.4,3.8,1.9,7,3.7,9.7,5.6-5.9,1.9-10.8,5-15.6,9.4-8.1,7.5-15.6,21.2-17.3,44.3v297.6c4.3,45.5,41.5,54.3,46.9,54.3s3.2,0,4.3-.6c3.8-1.9,9.2-5.6,14-10,2.7-1.9,5.9-4.4,8.6-6.9l6.5,9.4-80.9,73c-61-9.4-93.9-44.9-98.2-94.2v-216.5c-1.6-13.1-4.9-23.7-9.7-30.6-10.3-15-22.7-16.2-23.2-16.2,0-8.1,8.6-5,32.9-33.1ZM6721.5,434.8c4.9,7.5,10.3,14.4,16.2,21.2,10.3,11.9,24.8,23.7,42.1,29.3l-56.6,56.2-58.3-48,56.6-58.6Z"/>
  </g>
</svg>