<?xml version="1.0" encoding="utf-8"?>
<!-- Generator: Adobe Illustrator 29.0.1, SVG Export Plug-In . SVG Version: 9.03 Build 54978)  -->
<svg version="1.1" id="Calque_1" xmlns="http://www.w3.org/2000/svg" xmlns:xlink="http://www.w3.org/1999/xlink" x="0px" y="0px"
	 viewBox="0 0 5460.59 1598.87" style="enable-background:new 0 0 5460.59 1598.87;" xml:space="preserve">
<style type="text/css">
	.st0{fill:url(#SVGID_00000147177947511798385740000012099686370649078442_);stroke:#FFFFFF;stroke-width:8;stroke-miterlimit:10;}
	.st1{fill:url(#SVGID_00000070082646660687602280000007536051750598771097_);stroke:#FFFFFF;stroke-width:8;stroke-miterlimit:10;}
	.st2{fill:url(#SVGID_00000048486123855273644810000009103429806908689577_);stroke:#FFFFFF;stroke-width:8;stroke-miterlimit:10;}
	.st3{fill:url(#SVGID_00000048500401911223810340000001127824694534485415_);stroke:#FFFFFF;stroke-width:8;stroke-miterlimit:10;}
	.st4{fill:url(#SVGID_00000065758015848681720650000017220527925391140523_);stroke:#FFFFFF;stroke-width:8;stroke-miterlimit:10;}
	.st5{fill:url(#SVGID_00000000925144701710376110000003541046310580215965_);stroke:#FFFFFF;stroke-width:8;stroke-miterlimit:10;}
	.st6{fill:url(#SVGID_00000037661849082493831000000006755113015668284817_);stroke:#FFFFFF;stroke-width:8;stroke-miterlimit:10;}
	.st7{fill:url(#SVGID_00000150075633727510667880000006007894245542135732_);stroke:#FFFFFF;stroke-width:8;stroke-miterlimit:10;}
	.st8{fill:url(#SVGID_00000057842441171115654490000001127794098830519448_);stroke:#FFFFFF;stroke-width:8;stroke-miterlimit:10;}
	.st9{fill:url(#SVGID_00000059276117767429238340000006063460601519461279_);stroke:#FFFFFF;stroke-width:8;stroke-miterlimit:10;}
	.st10{fill:url(#SVGID_00000182530193026236836700000009719428267921339782_);stroke:#FFFFFF;stroke-width:8;stroke-miterlimit:10;}
	.st11{fill:url(#SVGID_00000147195004868837640190000004268276195823177090_);stroke:#FFFFFF;stroke-width:8;stroke-miterlimit:10;}
	
		.st12{fill:url(#SVGID_00000106833875660337225060000000601680464346103983_);stroke:#FFFFFF;stroke-width:8;stroke-miterlimit:8.4627;}
	
		.st13{fill:url(#SVGID_00000073684731171817935770000010333722841021901245_);stroke:#FFFFFF;stroke-width:8;stroke-miterlimit:8.4627;}
	
		.st14{fill:url(#SVGID_00000049933460086622841620000011381763595441763203_);stroke:#FFFFFF;stroke-width:8;stroke-miterlimit:8.4627;}
	
		.st15{fill:url(#SVGID_00000034073415177581570160000009389474132682531209_);stroke:#FFFFFF;stroke-width:8;stroke-miterlimit:8.4627;}
	
		.st16{fill:url(#SVGID_00000098926680712142038030000000516498177743698614_);stroke:#FFFFFF;stroke-width:8;stroke-miterlimit:8.4627;}
	
		.st17{fill:url(#SVGID_00000056400916234597782520000011764096103816108161_);stroke:#FFFFFF;stroke-width:8;stroke-miterlimit:8.4627;}
	
		.st18{fill:url(#SVGID_00000088824434915660048880000009308803246199748021_);stroke:#FFFFFF;stroke-width:8;stroke-miterlimit:8.4627;}
	
		.st19{fill:url(#SVGID_00000089559701525189767460000013008540277829154719_);stroke:#FFFFFF;stroke-width:8;stroke-miterlimit:8.4627;}
	
		.st20{fill:url(#SVGID_00000092457323769408729170000011557529426758117014_);stroke:#FFFFFF;stroke-width:8;stroke-miterlimit:8.4627;}
	
		.st21{fill:url(#SVGID_00000181052409916344544630000007648133635160301981_);stroke:#FFFFFF;stroke-width:8;stroke-miterlimit:8.4627;}
	
		.st22{fill:url(#SVGID_00000128457546207953614350000016309284482207888526_);stroke:#FFFFFF;stroke-width:8;stroke-miterlimit:8.4627;}
	
		.st23{fill:url(#SVGID_00000165204143227723444800000000615878353200607668_);stroke:#FFFFFF;stroke-width:8;stroke-miterlimit:8.4627;}
</style>
<g>
	<g>
		
			<linearGradient id="SVGID_00000156574510979421961770000015152039033554251142_" gradientUnits="userSpaceOnUse" x1="-26.3741" y1="1232.4531" x2="394.7644" y2="503.0199" gradientTransform="matrix(0.8463 0 0 -0.8463 248.7226 1565.9514)">
			<stop  offset="1.065558e-07" style="stop-color:#000000"/>
			<stop  offset="0.0293" style="stop-color:#191919"/>
			<stop  offset="0.1057" style="stop-color:#575656"/>
			<stop  offset="0.1707" style="stop-color:#838383"/>
			<stop  offset="0.2208" style="stop-color:#9F9E9E"/>
			<stop  offset="0.25" style="stop-color:#A9A8A8"/>
			<stop  offset="0.2984" style="stop-color:#AEADAD"/>
			<stop  offset="0.3593" style="stop-color:#BEBDBD"/>
			<stop  offset="0.427" style="stop-color:#D7D7D7"/>
			<stop  offset="0.4992" style="stop-color:#FAFAFA"/>
			<stop  offset="0.5074" style="stop-color:#FFFFFF"/>
			<stop  offset="0.5273" style="stop-color:#F7F7F7"/>
			<stop  offset="0.6776" style="stop-color:#BFBEBE"/>
			<stop  offset="0.75" style="stop-color:#A9A8A8"/>
			<stop  offset="0.9872" style="stop-color:#090909"/>
			<stop  offset="1" style="stop-color:#000000"/>
		</linearGradient>
		
			<path id="SVGID_00000160150511202476918270000000994305757214605234_" style="fill:url(#SVGID_00000156574510979421961770000015152039033554251142_);stroke:#FFFFFF;stroke-width:8;stroke-miterlimit:10;" d="
			M248.9,1014.42c11.33-24.33,28.05-47.42,49.63-63.64c21.04-16.22,43.7-21.21,62.58-21.21c5.93,0,12.41,0,18.88,1.25
			c10.25-14.35,11.33-26.82,11.33-33.69c0-5.62-1.08-12.48-3.24-19.34c-11.33-36.81-25.9-62.39-41.54-84.23
			c-10.25-8.73-43.7-26.82-71.21-26.82c-8.09,0-14.03,0.63-19.96,4.99c0-2.5,0-4.37,4.86-14.35c4.32-9.36,14.57-21.21,31.29-26.82
			c-12.41-14.35-23.74-28.7-31.83-48.04c-11.33-24.33-17.26-43.04-17.8-55.52c-0.54-12.48-1.08-20.59-1.08-23.71
			c0-36.81,10.25-69.88,29.13-94.83c9.17-12.48,18.34-21.21,26.97-26.21l83.62-37.43c9.71-3.12,18.88-4.99,28.05-4.99
			c28.05,0,53.95,16.22,64.2,66.13c4.32,22.46,17.8,64.88,42.62,64.88c17.8,0,30.75-26.21,35.07-43.67
			c0.54-1.87,0.54-3.74,0.54-4.99c0-6.86-4.32-15.6-4.32-20.59c0-1.24-1.08-4.37,5.39-8.73c1.08-0.63,2.16-1.24,3.24-1.24
			c3.78,0,5.39,6.86,5.39,14.98c0,1.24,0,2.5,0,3.74c-2.7,38.68-25.36,76.74-58.27,88.59v169.06c3.78,11.85,8.63,18.72,12.41,23.71
			c2.16,3.12,4.32,4.99,6.47,6.86l-18.88,29.32v162.83c32.91,28.08,60.42,54.9,107.9,69.88c9.71,2.5,17.8,3.74,24.82,3.74
			c16.72,0,26.97-6.24,33.45-13.1c8.63-13.72-1.62-34.94,12.95-36.81c3.78,0,5.39,2.5,5.39,7.49c0,1.24,0,1.87,0,3.12
			c-2.7,13.1-8.09,25.58-14.03,37.43c-17.26,31.82-51.79,73.62-123,73.62c-18.88,0-39.92-3.12-63.66-9.98
			c-63.66-18.72-131.64-100.45-190.44-105.44c-1.08,0-2.16,0-3.24,0c-18.34,0-33.99,14.35-45.86,34.94
			c-11.87,20.59-19.96,44.92-22.66,59.27l-5.93-1.87C224.62,1075.57,234.87,1042.5,248.9,1014.42z M300.15,513.45
			c0,1.24,0.54,3.12,0.54,4.99c1.62,8.11,3.24,18.09,8.09,28.7C341.69,627,397.8,640.1,446.35,749.28
			c10.79,24.33,16.72,45.54,16.72,63.01c0,0.63,2.7,19.96-10.25,46.79c-12.95,27.45-36.69,49.29-55.57,74.87
			c44.78,12.48,72.83,31.2,98.19,51.16V819.77c-3.78-9.36-8.09-17.47-12.41-23.08c-2.16-3.12-4.32-4.99-5.93-6.86l18.34-28.08
			V601.41c-10.25,4.37-21.04,4.99-31.83,4.99c-30.21,0-58.8-11.85-77.69-24.95c3.24-10.6,4.32-20.59,4.32-31.2
			c0-4.37,0.54-19.96-6.47-40.55c-7.01-19.34-19.42-38.06-36.69-38.06c-3.24,0-6.47,0.63-9.71,1.87l-16.18,7.49
			c-7.01,2.5-12.41,7.49-16.18,14.35C301.77,500.97,300.15,506.59,300.15,513.45z"/>
	</g>
	<g>
		
			<linearGradient id="SVGID_00000050641004687621984280000004859275593232282047_" gradientUnits="userSpaceOnUse" x1="565.5511" y1="1083.0782" x2="790.4771" y2="693.4949" gradientTransform="matrix(0.8463 0 0 -0.8463 248.7226 1565.9514)">
			<stop  offset="1.065558e-07" style="stop-color:#000000"/>
			<stop  offset="0.0293" style="stop-color:#191919"/>
			<stop  offset="0.1057" style="stop-color:#575656"/>
			<stop  offset="0.1707" style="stop-color:#838383"/>
			<stop  offset="0.2208" style="stop-color:#9F9E9E"/>
			<stop  offset="0.25" style="stop-color:#A9A8A8"/>
			<stop  offset="0.2984" style="stop-color:#AEADAD"/>
			<stop  offset="0.3593" style="stop-color:#BEBDBD"/>
			<stop  offset="0.427" style="stop-color:#D7D7D7"/>
			<stop  offset="0.4992" style="stop-color:#FAFAFA"/>
			<stop  offset="0.5074" style="stop-color:#FFFFFF"/>
			<stop  offset="0.5273" style="stop-color:#F7F7F7"/>
			<stop  offset="0.6776" style="stop-color:#BFBEBE"/>
			<stop  offset="0.75" style="stop-color:#A9A8A8"/>
			<stop  offset="0.9872" style="stop-color:#090909"/>
			<stop  offset="1" style="stop-color:#000000"/>
		</linearGradient>
		
			<path id="SVGID_00000070083604955099985660000016153620049437092235_" style="fill:url(#SVGID_00000050641004687621984280000004859275593232282047_);stroke:#FFFFFF;stroke-width:8;stroke-miterlimit:10;" d="
			M652.97,775.48c0-9.36,23.74-7.49,66.9-52.4c43.16-44.91,128.4-129.14,158.61-160.96c36.69,35.56,65.82,101.07,65.82,155.97
			c0,107.31-113.29,180.93-148.9,211.5c10.79,26.82,29.13,34.31,49.09,34.31c21.04,0,37.76-5.62,54.49-20.59l35.61-31.2l5.39,10.6
			l-141.89,125.4c-40.46,0-112.75-71.12-112.75-141.62V822.9c-3.24-33.69-19.42-43.67-27.51-46.17L652.97,775.48z M785.15,711.85
			V862.2c0,23.71,2.16,42.43,6.47,56.77c18.88-16.85,83.08-58.65,83.08-129.14c0-51.78-13.49-80.48-28.59-97.32
			c-9.17-9.36-19.42-12.48-29.67-12.48c-8.09,0-15.11,2.5-21.04,7.49C789.47,693.13,785.69,701.24,785.15,711.85z"/>
	</g>
	<g>
		
			<linearGradient id="SVGID_00000079445931199737650060000016457619799027155363_" gradientUnits="userSpaceOnUse" x1="884.5247" y1="1103.7888" x2="1136.2417" y2="667.8022" gradientTransform="matrix(0.8463 0 0 -0.8463 248.7226 1565.9514)">
			<stop  offset="1.065558e-07" style="stop-color:#000000"/>
			<stop  offset="0.0293" style="stop-color:#191919"/>
			<stop  offset="0.1057" style="stop-color:#575656"/>
			<stop  offset="0.1707" style="stop-color:#838383"/>
			<stop  offset="0.2208" style="stop-color:#9F9E9E"/>
			<stop  offset="0.25" style="stop-color:#A9A8A8"/>
			<stop  offset="0.2984" style="stop-color:#AEADAD"/>
			<stop  offset="0.3593" style="stop-color:#BEBDBD"/>
			<stop  offset="0.427" style="stop-color:#D7D7D7"/>
			<stop  offset="0.4992" style="stop-color:#FAFAFA"/>
			<stop  offset="0.5074" style="stop-color:#FFFFFF"/>
			<stop  offset="0.5273" style="stop-color:#F7F7F7"/>
			<stop  offset="0.6776" style="stop-color:#BFBEBE"/>
			<stop  offset="0.75" style="stop-color:#A9A8A8"/>
			<stop  offset="0.9872" style="stop-color:#090909"/>
			<stop  offset="1" style="stop-color:#000000"/>
		</linearGradient>
		
			<path id="SVGID_00000126304046897385206160000003000877959451999679_" style="fill:url(#SVGID_00000079445931199737650060000016457619799027155363_);stroke:#FFFFFF;stroke-width:8;stroke-miterlimit:10;" d="
			M938.37,1005.06c0-0.63-0.54-3.74,3.24-11.85c18.88-41.8,48.55-84.84,99.81-124.77c8.09,2.5,14.57,5.62,21.04,8.73v-82.35
			c-14.57-22.46-25.36-40.56-29.67-49.91c-8.09-16.22-11.87-31.82-11.87-47.42c0-6.24,0-29.95,15.65-58.65
			c15.11-28.7,38.84-49.29,50.17-58.65c-7.55,8.73-11.33,18.72-11.33,29.95c0,8.73,1.62,28.7,23.74,71.12
			c10.25-49.91,34.53-112.92,126.78-129.77c-12.41,14.35-18.88,43.67-18.88,67.38c0,1.87-0.54,13.1,3.78,28.7
			c-55.57,4.99-91.17,19.96-104.12,47.42c24.28,43.04,57.19,92.33,79.31,142.87c15.11,34.31,12.95,47.42,12.95,51.78
			c0,31.2-17.8,51.16-39.38,77.98c-13.49,16.85-27.51,34.94-32.37,59.89c-17.8-20.59-37.23-41.17-58.27-56.77v49.29
			c3.78,10.6,8.63,18.09,12.41,23.08c2.16,3.12,4.32,4.99,6.47,6.86l-18.88,29.32v3.12h-6.47v-11.23
			c-3.78-9.36-8.09-17.47-12.41-23.08c-2.16-3.12-4.32-4.99-5.93-6.86l18.34-28.08v-47.42c-18.88-12.48-36.69-20.59-53.41-20.59
			c-22.12,0-45.86,16.85-56.11,39.3c-5.93,10.6,2.16,24.33-9.71,24.33C939.98,1008.81,938.37,1007.56,938.37,1005.06z
			 M1068.92,880.92c41,23.08,64.74,60.52,73.37,79.86c0-1.25,0.54-3.12,0.54-4.37c0-12.48-7.55-34.31-22.12-62.39
			c-15.11-28.08-34.53-60.52-51.79-87.97V880.92z"/>
	</g>
	<g>
		
			<linearGradient id="SVGID_00000163762117838905793270000000438124557605596040_" gradientUnits="userSpaceOnUse" x1="1674.6436" y1="1280.1302" x2="2037.7203" y2="651.2628" gradientTransform="matrix(0.8463 0 0 -0.8463 248.7226 1565.9514)">
			<stop  offset="1.065558e-07" style="stop-color:#000000"/>
			<stop  offset="0.0293" style="stop-color:#191919"/>
			<stop  offset="0.1057" style="stop-color:#575656"/>
			<stop  offset="0.1707" style="stop-color:#838383"/>
			<stop  offset="0.2208" style="stop-color:#9F9E9E"/>
			<stop  offset="0.25" style="stop-color:#A9A8A8"/>
			<stop  offset="0.2984" style="stop-color:#AEADAD"/>
			<stop  offset="0.3593" style="stop-color:#BEBDBD"/>
			<stop  offset="0.427" style="stop-color:#D7D7D7"/>
			<stop  offset="0.4992" style="stop-color:#FAFAFA"/>
			<stop  offset="0.5074" style="stop-color:#FFFFFF"/>
			<stop  offset="0.5273" style="stop-color:#F7F7F7"/>
			<stop  offset="0.6776" style="stop-color:#BFBEBE"/>
			<stop  offset="0.75" style="stop-color:#A9A8A8"/>
			<stop  offset="0.9872" style="stop-color:#090909"/>
			<stop  offset="1" style="stop-color:#000000"/>
		</linearGradient>
		
			<path id="SVGID_00000048471202818749289590000000195254258309957267_" style="fill:url(#SVGID_00000163762117838905793270000000438124557605596040_);stroke:#FFFFFF;stroke-width:8;stroke-miterlimit:10;" d="
			M1504.29,685c0-2.5,1.62-4.37,4.32-4.99c1.62-0.63,2.7-0.63,3.78-0.63c2.7,0,4.86,1.87,7.01,7.49c2.16,5.62,3.78,13.1,9.71,18.09
			c13.49,9.36,22.12,11.85,33.45,11.85c1.08,0,2.7,0,3.78,0c12.41-0.63,19.96-9.36,22.12-23.71c0.54-3.74,1.08-7.49,1.08-11.23
			c0-11.23-2.7-29.95-14.03-52.4c-9.17-18.09-9.17-31.82-9.17-38.68c0-18.72,7.55-48.66,32.91-64.26
			c16.72-10.6,32.37-20.59,46.94-29.95c24.28-14.98,49.09-31.2,53.95-33.69c16.72-9.98,31.29-13.72,45.86-13.72
			c15.65,0,30.75,3.74,46.4,10.6c108.98,43.04,174.26,101.07,263.27,127.9c5.93,1.87,11.33,2.5,17.26,2.5
			c21.04,0,32.91-13.1,41-28.08c8.09-12.48-1.62-36.81,12.95-36.81c8.09,0,3.78,12.48,3.78,14.98
			c-6.47,24.33-16.18,46.79-28.59,66.13c-21.58,33.07-58.27,65.51-117.07,65.51c-73.91,0-147.28-44.3-205.01-94.2
			c0,1.24,0,2.5,0,3.74c0,8.73,1.62,19.96,8.63,37.43c17.26,41.8,41,74.24,65.28,109.81c11.33,16.85,22.66,33.69,33.99,53.03
			c31.83-38.06,64.2-81.73,134.87-89.84c-21.58,28.7-26.44,87.34-26.44,102.94c0,4.37,0,8.73,0.54,13.1
			c-25.9-16.85-44.78-23.08-61.5-23.08c-14.57,0-26.44,5.62-37.76,13.1c8.09,14.98,15.11,31.2,23.2,48.66
			c9.71,21.84,15.11,38.06,15.65,47.42c0.54,9.36,1.08,15.6,1.08,18.72c0,24.95-8.09,48.04-24.82,68.62
			c-8.09,10.6-16.72,20.59-25.36,31.2c-17.8,21.21-35.61,44.3-42.08,76.11c-16.18-47.42-73.37-100.45-127.32-124.15v124.15h-7.01
			V961.4c-27.51-10.6-55.57-17.47-80.92-17.47c-32.37,0-60.42,11.23-76.07,46.17c-6.47,13.72,1.62,31.2-12.41,31.2
			c-0.54,0-0.54,0-1.08,0c-6.47,0-5.93-9.36-1.08-19.96c23.74-52.4,62.58-108.55,127.32-158.47c12.41,4.37,27.51,9.98,44.24,17.47
			V817.3c-3.78-9.36-8.09-17.47-12.41-23.08c-2.16-3.12-4.32-4.99-5.93-6.86l18.34-28.08V521.54
			c-15.11-9.36-30.75-16.22-49.63-20.59c-11.33,6.86-17.8,14.35-18.88,21.84s-1.62,13.1-1.62,16.22c0,8.73,1.62,16.85,4.32,25.58
			c5.93,20.59,19.42,43.04,38.84,56.15c-11.33,39.93-45.86,99.2-97.65,107.31c-4.32,0.63-8.09,1.24-12.41,1.24
			c-15.65,0-38.84-2.5-62.04-29.32c-3.78-4.37-5.93-8.11-7.01-12.48C1504.29,686.24,1504.29,685.62,1504.29,685z M1717.93,825.37
			v38.06c53.41,24.95,127.86,98.58,146.74,140.38c0.54-3.12,1.08-6.86,1.08-9.98c0-5.62-1.08-11.85-3.24-18.09
			c-24.28-81.73-108.98-184.05-123-221.48c-9.17-24.33-14.57-42.43-15.11-54.9c-1.08-11.85-1.08-20.59-1.08-25.58
			c0-28.08,6.47-56.78,20.5-79.86c7.01-11.85,14.03-21.21,21.58-29.32c-15.65-14.35-30.21-27.45-46.94-38.06l-0.54-0.63v239.57
			c3.78,11.85,8.63,18.72,12.41,23.71c2.16,3.12,4.32,4.99,6.47,6.86L1717.93,825.37z"/>
	</g>
	<g>
		
			<linearGradient id="SVGID_00000044875123441825933390000008835389519503236284_" gradientUnits="userSpaceOnUse" x1="2171.3569" y1="1252.6095" x2="2489.9204" y2="700.8411" gradientTransform="matrix(0.8463 0 0 -0.8463 248.7226 1565.9514)">
			<stop  offset="1.065558e-07" style="stop-color:#000000"/>
			<stop  offset="0.0293" style="stop-color:#191919"/>
			<stop  offset="0.1057" style="stop-color:#575656"/>
			<stop  offset="0.1707" style="stop-color:#838383"/>
			<stop  offset="0.2208" style="stop-color:#9F9E9E"/>
			<stop  offset="0.25" style="stop-color:#A9A8A8"/>
			<stop  offset="0.2984" style="stop-color:#AEADAD"/>
			<stop  offset="0.3593" style="stop-color:#BEBDBD"/>
			<stop  offset="0.427" style="stop-color:#D7D7D7"/>
			<stop  offset="0.4992" style="stop-color:#FAFAFA"/>
			<stop  offset="0.5074" style="stop-color:#FFFFFF"/>
			<stop  offset="0.5273" style="stop-color:#F7F7F7"/>
			<stop  offset="0.6776" style="stop-color:#BFBEBE"/>
			<stop  offset="0.75" style="stop-color:#A9A8A8"/>
			<stop  offset="0.9872" style="stop-color:#090909"/>
			<stop  offset="1" style="stop-color:#000000"/>
		</linearGradient>
		
			<path id="SVGID_00000066499968874442828220000012285546118919454130_" style="fill:url(#SVGID_00000044875123441825933390000008835389519503236284_);stroke:#FFFFFF;stroke-width:8;stroke-miterlimit:10;" d="
			M2153.29,642.57c23.2-26.82,55.03-86.1,92.25-89.22c2.7-0.63,5.39-0.63,8.09-0.63c6.47,0,15.11,1.87,21.58,4.37
			c3.78,1.87,7.01,3.74,9.71,5.62c-5.93,1.87-10.79,4.99-15.65,9.36c-8.09,7.49-15.65,21.21-17.26,44.3v297.59
			c4.32,45.54,41.54,54.28,46.94,54.28c1.62,0,3.24,0,4.32-0.63c3.78-1.87,9.17-5.62,14.03-9.98c2.7-1.87,5.93-4.37,8.63-6.86
			l6.47,9.36l-80.92,72.99c-60.96-9.36-93.87-44.92-98.19-94.2V722.43c-1.62-13.1-4.86-23.71-9.71-30.57
			c-10.25-14.98-22.66-16.22-23.2-16.22C2120.39,667.52,2129.02,670.65,2153.29,642.57z M2210.48,434.2
			c4.86,7.49,10.25,14.35,16.19,21.21c10.25,11.85,24.82,23.71,42.08,29.32l-56.65,56.15l-58.27-48.04L2210.48,434.2z"/>
	</g>
	<g>
		
			<linearGradient id="SVGID_00000094586019136699429610000006058353436297912450_" gradientUnits="userSpaceOnUse" x1="2426.354" y1="1340.7709" x2="2773.5186" y2="739.4641" gradientTransform="matrix(0.8463 0 0 -0.8463 248.7226 1565.9514)">
			<stop  offset="1.065558e-07" style="stop-color:#000000"/>
			<stop  offset="0.0293" style="stop-color:#191919"/>
			<stop  offset="0.1057" style="stop-color:#575656"/>
			<stop  offset="0.1707" style="stop-color:#838383"/>
			<stop  offset="0.2208" style="stop-color:#9F9E9E"/>
			<stop  offset="0.25" style="stop-color:#A9A8A8"/>
			<stop  offset="0.2984" style="stop-color:#AEADAD"/>
			<stop  offset="0.3593" style="stop-color:#BEBDBD"/>
			<stop  offset="0.427" style="stop-color:#D7D7D7"/>
			<stop  offset="0.4992" style="stop-color:#FAFAFA"/>
			<stop  offset="0.5074" style="stop-color:#FFFFFF"/>
			<stop  offset="0.5273" style="stop-color:#F7F7F7"/>
			<stop  offset="0.6776" style="stop-color:#BFBEBE"/>
			<stop  offset="0.75" style="stop-color:#A9A8A8"/>
			<stop  offset="0.9872" style="stop-color:#090909"/>
			<stop  offset="1" style="stop-color:#000000"/>
		</linearGradient>
		
			<path id="SVGID_00000086687953127355408300000003417313001972115341_" style="fill:url(#SVGID_00000094586019136699429610000006058353436297912450_);stroke:#FFFFFF;stroke-width:8;stroke-miterlimit:10;" d="
			M2332.4,495.34c0-53.03,71.75-35.56,153.76-170.32c-27.51,54.9-31.83,99.2-32.37,126.03v449.19c3.24,46.79,41.54,57.4,47.48,57.4
			c1.62,0,2.7,0,3.78-0.63c3.78-1.87,9.17-5.62,14.03-9.98c2.7-1.87,5.93-4.37,8.63-7.49l6.47,9.98l-80.92,72.99
			c-62.04-9.36-95.49-47.42-98.19-97.32V532.15c0-22.46-7.55-34.94-22.12-36.81L2332.4,495.34L2332.4,495.34z"/>
	</g>
	<g>
		
			<linearGradient id="SVGID_00000113311651088189768910000005452508119404481975_" gradientUnits="userSpaceOnUse" x1="2763.8496" y1="1104.5496" x2="3015.5664" y2="668.5629" gradientTransform="matrix(0.8463 0 0 -0.8463 248.7226 1565.9514)">
			<stop  offset="1.065558e-07" style="stop-color:#000000"/>
			<stop  offset="0.0293" style="stop-color:#191919"/>
			<stop  offset="0.1057" style="stop-color:#575656"/>
			<stop  offset="0.1707" style="stop-color:#838383"/>
			<stop  offset="0.2208" style="stop-color:#9F9E9E"/>
			<stop  offset="0.25" style="stop-color:#A9A8A8"/>
			<stop  offset="0.2984" style="stop-color:#AEADAD"/>
			<stop  offset="0.3593" style="stop-color:#BEBDBD"/>
			<stop  offset="0.427" style="stop-color:#D7D7D7"/>
			<stop  offset="0.4992" style="stop-color:#FAFAFA"/>
			<stop  offset="0.5074" style="stop-color:#FFFFFF"/>
			<stop  offset="0.5273" style="stop-color:#F7F7F7"/>
			<stop  offset="0.6776" style="stop-color:#BFBEBE"/>
			<stop  offset="0.75" style="stop-color:#A9A8A8"/>
			<stop  offset="0.9872" style="stop-color:#090909"/>
			<stop  offset="1" style="stop-color:#000000"/>
		</linearGradient>
		
			<path id="SVGID_00000044147634330702630680000005959921460988757156_" style="fill:url(#SVGID_00000113311651088189768910000005452508119404481975_);stroke:#FFFFFF;stroke-width:8;stroke-miterlimit:10;" d="
			M2528.78,1004.42c0-0.63-0.54-3.74,3.24-11.85c18.88-41.8,48.55-84.84,99.81-124.77c8.09,2.5,14.57,5.62,21.04,8.73v-82.35
			c-14.57-22.46-25.36-40.56-29.67-49.91c-8.09-16.22-11.87-31.82-11.87-47.42c0-6.24,0-29.95,15.65-58.65
			c15.11-28.7,38.84-49.29,50.17-58.65c-7.55,8.73-11.33,18.72-11.33,29.95c0,8.73,1.62,28.7,23.74,71.12
			c10.25-49.91,34.53-112.92,126.78-129.77c-12.41,14.35-18.88,43.67-18.88,67.38c0,1.87-0.54,13.1,3.78,28.7
			c-55.57,4.99-91.17,19.96-104.12,47.42c24.28,43.04,57.19,92.33,79.31,142.87c15.11,34.31,12.95,47.42,12.95,51.78
			c0,31.2-17.8,51.16-39.38,77.98c-13.49,16.85-27.51,34.94-32.37,59.89c-17.8-20.59-37.23-41.17-58.27-56.77v49.29
			c3.78,10.6,8.63,18.09,12.41,23.08c2.16,3.12,4.32,4.99,6.47,6.86l-18.88,29.32v3.12h-6.47v-11.23
			c-3.78-9.36-8.09-17.47-12.41-23.08c-2.16-3.12-4.32-4.99-5.93-6.86l18.34-28.08v-47.42c-18.88-12.48-36.69-20.59-53.41-20.59
			c-22.12,0-45.86,16.85-56.11,39.3c-5.93,10.6,2.16,24.33-9.71,24.33C2530.4,1008.16,2528.78,1006.92,2528.78,1004.42z
			 M2659.33,880.27c41,23.08,64.74,60.52,73.37,79.86c0-1.25,0.54-3.12,0.54-4.37c0-12.48-7.55-34.31-22.12-62.39
			c-15.11-28.08-34.53-60.52-51.79-87.97V880.27z"/>
	</g>
	<g>
		
			<linearGradient id="SVGID_00000128464591947105301950000006749582801878069168_" gradientUnits="userSpaceOnUse" x1="3446.2544" y1="1298.519" x2="3782.4812" y2="716.1572" gradientTransform="matrix(0.8463 0 0 -0.8463 248.7226 1565.9514)">
			<stop  offset="1.065558e-07" style="stop-color:#000000"/>
			<stop  offset="0.0293" style="stop-color:#191919"/>
			<stop  offset="0.1057" style="stop-color:#575656"/>
			<stop  offset="0.1707" style="stop-color:#838383"/>
			<stop  offset="0.2208" style="stop-color:#9F9E9E"/>
			<stop  offset="0.25" style="stop-color:#A9A8A8"/>
			<stop  offset="0.2984" style="stop-color:#AEADAD"/>
			<stop  offset="0.3593" style="stop-color:#BEBDBD"/>
			<stop  offset="0.427" style="stop-color:#D7D7D7"/>
			<stop  offset="0.4992" style="stop-color:#FAFAFA"/>
			<stop  offset="0.5074" style="stop-color:#FFFFFF"/>
			<stop  offset="0.5273" style="stop-color:#F7F7F7"/>
			<stop  offset="0.6776" style="stop-color:#BFBEBE"/>
			<stop  offset="0.75" style="stop-color:#A9A8A8"/>
			<stop  offset="0.9872" style="stop-color:#090909"/>
			<stop  offset="1" style="stop-color:#000000"/>
		</linearGradient>
		
			<path id="SVGID_00000034085927472863611610000016235625718068830616_" style="fill:url(#SVGID_00000128464591947105301950000006749582801878069168_);stroke:#FFFFFF;stroke-width:8;stroke-miterlimit:10;" d="
			M3223.24,596.42l106.82,104.81V454.18c-0.54-24.95-10.79-39.3-21.04-47.42c-5.93-4.37-12.95-8.11-21.04-9.98
			c1.62-1.87,4.32-3.12,8.09-4.99c5.93-2.5,16.18-4.99,31.83-4.99c30.75,0,55.57,28.08,74.45,53.65
			c44.24,66.13,58.8,59.27,58.8,68.62l-4.32,1.24c-9.17,2.5-24.82,13.1-28.05,46.17v384.31l21.58,18.72
			c-51.25,9.98-123.01,41.17-165.63,67.38c-63.66-76.11-167.78-108.55-167.78-200.89C3116.96,718.71,3223.24,650.7,3223.24,596.42z
			 M3218.39,842.23c0,56.77,29.67,120.41,55.03,120.41c4.32-1.87,51.79-23.71,56.65-26.82V717.46l-38.84-36.18
			c-13.49,14.35-25.9,29.95-36.69,46.79c-9.17,14.35-17.8,31.82-24.82,51.16C3222.17,798.56,3218.39,819.77,3218.39,842.23z"/>
	</g>
	<g>
		
			<linearGradient id="SVGID_00000162342182557135088000000010980723113088958910_" gradientUnits="userSpaceOnUse" x1="3958.926" y1="1182.0538" x2="4272.981" y2="638.0942" gradientTransform="matrix(0.8463 0 0 -0.8463 248.7226 1565.9514)">
			<stop  offset="1.065558e-07" style="stop-color:#000000"/>
			<stop  offset="0.0293" style="stop-color:#191919"/>
			<stop  offset="0.1057" style="stop-color:#575656"/>
			<stop  offset="0.1707" style="stop-color:#838383"/>
			<stop  offset="0.2208" style="stop-color:#9F9E9E"/>
			<stop  offset="0.25" style="stop-color:#A9A8A8"/>
			<stop  offset="0.2984" style="stop-color:#AEADAD"/>
			<stop  offset="0.3593" style="stop-color:#BEBDBD"/>
			<stop  offset="0.427" style="stop-color:#D7D7D7"/>
			<stop  offset="0.4992" style="stop-color:#FAFAFA"/>
			<stop  offset="0.5074" style="stop-color:#FFFFFF"/>
			<stop  offset="0.5273" style="stop-color:#F7F7F7"/>
			<stop  offset="0.6776" style="stop-color:#BFBEBE"/>
			<stop  offset="0.75" style="stop-color:#A9A8A8"/>
			<stop  offset="0.9872" style="stop-color:#090909"/>
			<stop  offset="1" style="stop-color:#000000"/>
		</linearGradient>
		
			<path id="SVGID_00000038403436974111024410000006271677406637291912_" style="fill:url(#SVGID_00000162342182557135088000000010980723113088958910_);stroke:#FFFFFF;stroke-width:8;stroke-miterlimit:10;" d="
			M3504.31,656.94c0-8.73,22.12,4.99,48.01-36.81c21.58-29.95,49.63-69.25,87.94-69.25c15.65,0,25.9,2.5,31.83,4.99
			c3.78,1.87,6.47,3.12,8.09,4.37c-8.09,1.87-15.11,5.62-21.04,9.98c-10.25,7.49-20.5,20.59-20.5,42.43v247.68
			c0,58.65,33.45,96.7,60.42,96.7c6.47,0,12.41-2.5,18.34-6.86c1.62-0.63,2.7-1.87,4.32-3.12c2.16-1.87,4.86-4.37,7.55-6.86
			c-1.08-7.49-1.62-14.98-1.62-23.08V703.73c-2.16-22.46-9.71-34.31-16.72-41.17c-3.78-3.74-8.63-6.24-13.49-6.86
			c0-9.36,22.12,5.62,48.02-36.18c21.58-29.95,48.55-69.25,87.94-69.25c15.65,0,25.9,2.5,31.83,4.99c3.78,1.87,6.47,3.12,8.09,4.37
			c-8.09,1.87-15.11,5.62-21.04,9.98c-10.25,7.49-20.5,19.96-20.5,41.8v290.73c0,42.43,22.12,79.86,43.16,79.86
			c2.16,0,4.86-0.63,8.63-2.5c1.62-0.63,3.78-2.5,6.47-4.37l7.55-6.24c2.7-1.87,5.93-4.37,8.63-6.86l6.47,9.98l-80.92,73
			c-52.33-8.11-87.94-45.54-100.35-93.58l-92.79,94.2c-15.11-5.62-29.13-13.72-42.08-24.33c-22.12-18.09-46.94-47.42-56.11-94.2
			c-3.78-19.34-5.93-41.17-5.93-66.75V704.36c-2.16-22.46-9.71-33.69-16.72-40.56C3514.03,660.06,3509.17,657.57,3504.31,656.94z"/>
	</g>
	<g>
		
			<linearGradient id="SVGID_00000011027418650784156600000011722522812532355986_" gradientUnits="userSpaceOnUse" x1="4783.144" y1="1255.5012" x2="5264.7505" y2="421.3344" gradientTransform="matrix(0.8463 0 0 -0.8463 248.7226 1565.9514)">
			<stop  offset="1.065558e-07" style="stop-color:#000000"/>
			<stop  offset="0.0293" style="stop-color:#191919"/>
			<stop  offset="0.1057" style="stop-color:#575656"/>
			<stop  offset="0.1707" style="stop-color:#838383"/>
			<stop  offset="0.2208" style="stop-color:#9F9E9E"/>
			<stop  offset="0.25" style="stop-color:#A9A8A8"/>
			<stop  offset="0.2984" style="stop-color:#AEADAD"/>
			<stop  offset="0.3593" style="stop-color:#BEBDBD"/>
			<stop  offset="0.427" style="stop-color:#D7D7D7"/>
			<stop  offset="0.4992" style="stop-color:#FAFAFA"/>
			<stop  offset="0.5074" style="stop-color:#FFFFFF"/>
			<stop  offset="0.5273" style="stop-color:#F7F7F7"/>
			<stop  offset="0.6776" style="stop-color:#BFBEBE"/>
			<stop  offset="0.75" style="stop-color:#A9A8A8"/>
			<stop  offset="0.9872" style="stop-color:#090909"/>
			<stop  offset="1" style="stop-color:#000000"/>
		</linearGradient>
		
			<path id="SVGID_00000026865028637056154330000014242424698714696118_" style="fill:url(#SVGID_00000011027418650784156600000011722522812532355986_);stroke:#FFFFFF;stroke-width:8;stroke-miterlimit:10;" d="
			M4165.82,688.14c0-2.5,1.62-4.37,4.32-4.99c1.62-0.63,2.7-0.63,3.78-0.63c3.24,0,5.4,2.5,7.55,7.49
			c2.16,5.62,3.78,13.1,9.71,18.09c13.49,9.98,21.58,12.48,30.75,12.48c2.16,0,4.32-0.63,6.47-0.63
			c12.41-0.63,19.42-9.36,22.12-23.71c0.54-3.12,1.08-6.86,1.08-10.61c0-11.85-2.7-30.57-14.03-53.03
			c-5.93-11.85-9.17-24.95-9.17-38.06c0-3.12,0.54-9.36,1.62-19.34c1.08-9.98,6.47-20.59,16.72-32.44
			c4.86-5.62,9.71-9.36,14.57-12.48l101.43-64.88c14.57-9.36,30.21-14.98,45.32-14.98c31.83,0,58.81,26.21,64.74,103.56l38.84-32.44
			c2.16-1.87,4.32-3.12,5.93-4.37c4.32-4.37,8.63-8.11,14.57-12.48v-36.81h7.01v31.82c16.19-11.85,75.53-54.9,95.49-77.98
			l28.59,68.01c7.01,16.85,14.03,34.31,22.12,53.65c13.49,32.44,31.29,77.36,48.55,122.9c2.7,7.49,4.32,14.98,4.32,21.84
			c0,12.48-4.86,29.32-27.51,51.16c-22.66,21.84-57.19,42.43-92.25,69.88c56.11,87.34,122.47,267.65,196.92,296.97
			c4.32-6.24,7.55-10.6,12.95-16.85c18.88-23.71,2.16-39.3,19.42-41.17c0.54,0,0.54,0,1.08,0c6.47,0,5.4,6.24,5.4,6.86
			c0,4.37-1.62,8.73-3.78,13.1c-3.78,9.98-8.09,16.85-14.03,24.33c-17.26,21.84-33.99,43.04-59.34,74.87
			c-60.96,0-108.98-53.03-144.58-117.29c-36.15-64.26-66.36-136.63-93.33-179.05v105.44c3.78,11.85,8.63,18.09,12.41,23.08
			c2.16,3.12,4.32,4.99,6.47,6.86l-18.88,29.95v84.23h-7.01v-92.33c-3.78-9.36-8.09-17.47-12.41-23.08
			c-2.16-3.12-4.32-4.99-5.93-6.86l18.34-28.08V863.44c-18.88-26.82-31.83-33.07-58.27-43.04v126.03c0,23.08,6.47,34.94,19.96,36.18
			c0,26.82-23.74,54.28-53.41,94.83c-29.67,39.93-63.66,92.96-85.24,172.19c-1.62,6.86-2.16,11.85-3.78,16.22
			c1.62-5.62,2.16-10.6,3.78-16.22c10.25-52.4,17.26-170.94,17.26-202.76V822.9c-21.04,9.36-42.62,23.08-62.58,47.42
			c-4.86,5.62-7.01,14.98-9.17,22.46c-2.16,7.49-4.86,10.6-8.09,10.6c-1.08,0-2.16,0-3.24-0.63c-2.16-1.24-3.78-3.12-3.78-5.62
			c0-1.24,0-4.99,4.86-13.72c4.32-8.73,11.87-18.09,16.72-23.71c23.2-26.82,45.32-48.04,65.28-66.13V616.39
			c0-4.99,0-9.98-0.54-14.35c-2.16-72.37-14.03-102.94-33.45-102.94c-5.4,0-11.33,1.87-17.26,6.24
			c-10.25,6.86-16.18,14.35-16.72,21.84c-1.08,6.86-1.08,12.48-1.08,14.98c0,8.73,1.08,17.47,3.78,25.58
			c5.93,21.84,19.42,42.43,38.84,56.78c-11.33,39.93-46.94,98.57-97.65,106.68c-10.79,1.87-22.12,2.5-34.53-1.87
			c-13.49-4.37-27.51-11.85-39.92-26.21c-3.78-4.37-5.93-8.11-7.55-12.48C4165.82,689.38,4165.82,688.76,4165.82,688.14z
			 M4473.87,572.09v160.96c9.71-3.12,19.96-4.37,30.21-4.37s19.42,1.24,28.05,4.37V527.17c-9.17,0-17.8,3.12-25.9,8.73l-32.91,27.45
			C4473.87,566.48,4473.87,568.97,4473.87,572.09z M4539.15,735.55c28.05,11.85,50.71,35.56,71.75,65.51c0.54,0,1.08-0.63,1.62-1.25
			c20.5-17.47,30.21-29.32,30.21-48.04c0-1.87,1.08-8.73-5.93-28.7c0-0.63-0.54-1.24-1.08-3.12l-63.12-169.7
			c-8.09-13.1-20.5-20.59-33.45-22.46V735.55z"/>
	</g>
	<g>
		
			<linearGradient id="SVGID_00000066478492647905350040000012493848682513585341_" gradientUnits="userSpaceOnUse" x1="5462.4312" y1="1126.1368" x2="5690.3472" y2="731.3748" gradientTransform="matrix(0.8463 0 0 -0.8463 248.7226 1565.9514)">
			<stop  offset="1.065558e-07" style="stop-color:#000000"/>
			<stop  offset="0.0293" style="stop-color:#191919"/>
			<stop  offset="0.1057" style="stop-color:#575656"/>
			<stop  offset="0.1707" style="stop-color:#838383"/>
			<stop  offset="0.2208" style="stop-color:#9F9E9E"/>
			<stop  offset="0.25" style="stop-color:#A9A8A8"/>
			<stop  offset="0.2984" style="stop-color:#AEADAD"/>
			<stop  offset="0.3593" style="stop-color:#BEBDBD"/>
			<stop  offset="0.427" style="stop-color:#D7D7D7"/>
			<stop  offset="0.4992" style="stop-color:#FAFAFA"/>
			<stop  offset="0.5074" style="stop-color:#FFFFFF"/>
			<stop  offset="0.5273" style="stop-color:#F7F7F7"/>
			<stop  offset="0.6776" style="stop-color:#BFBEBE"/>
			<stop  offset="0.75" style="stop-color:#A9A8A8"/>
			<stop  offset="0.9872" style="stop-color:#090909"/>
			<stop  offset="1" style="stop-color:#000000"/>
		</linearGradient>
		
			<path id="SVGID_00000139288983436779869840000001100343581969717940_" style="fill:url(#SVGID_00000066478492647905350040000012493848682513585341_);stroke:#FFFFFF;stroke-width:8;stroke-miterlimit:10;" d="
			M4890.89,621.38c16.72-13.72,32.37-29.32,48.02-47.42h138.11v308.2c8.63,6.86,14.57,14.98,18.88,21.84
			c2.7,4.37,4.86,8.11,6.47,11.85c-32.91,0-68.52,23.08-96.03,46.17c-16.19,13.72-31.83,28.7-46.94,45.54h-4.32
			c-108.98,0-137.03-66.75-137.03-160.96V701.24c-8.63-6.86-14.57-14.98-18.88-21.84c-2.7-3.74-4.86-7.49-6.47-11.23
			C4826.69,668.17,4862.83,645.71,4890.89,621.38z M4916.24,892.14c0,44.3,9.71,57.4,37.76,57.4h7.01
			c5.93-4.37,10.25-7.49,16.19-11.85V694.37h-53.41c-2.7,1.87-4.86,3.12-7.55,4.99V892.14z"/>
	</g>
	<g>
		
			<linearGradient id="SVGID_00000050631812124329607300000008364833354587451296_" gradientUnits="userSpaceOnUse" x1="5733.2905" y1="1251.8488" x2="6051.854" y2="700.0804" gradientTransform="matrix(0.8463 0 0 -0.8463 248.7226 1565.9514)">
			<stop  offset="1.065558e-07" style="stop-color:#000000"/>
			<stop  offset="0.0293" style="stop-color:#191919"/>
			<stop  offset="0.1057" style="stop-color:#575656"/>
			<stop  offset="0.1707" style="stop-color:#838383"/>
			<stop  offset="0.2208" style="stop-color:#9F9E9E"/>
			<stop  offset="0.25" style="stop-color:#A9A8A8"/>
			<stop  offset="0.2984" style="stop-color:#AEADAD"/>
			<stop  offset="0.3593" style="stop-color:#BEBDBD"/>
			<stop  offset="0.427" style="stop-color:#D7D7D7"/>
			<stop  offset="0.4992" style="stop-color:#FAFAFA"/>
			<stop  offset="0.5074" style="stop-color:#FFFFFF"/>
			<stop  offset="0.5273" style="stop-color:#F7F7F7"/>
			<stop  offset="0.6776" style="stop-color:#BFBEBE"/>
			<stop  offset="0.75" style="stop-color:#A9A8A8"/>
			<stop  offset="0.9872" style="stop-color:#090909"/>
			<stop  offset="1" style="stop-color:#000000"/>
		</linearGradient>
		
			<path id="SVGID_00000176758004870238657860000014783874958939792547_" style="fill:url(#SVGID_00000050631812124329607300000008364833354587451296_);stroke:#FFFFFF;stroke-width:8;stroke-miterlimit:10;" d="
			M5167.64,643.21c23.2-26.82,55.03-86.1,92.25-89.22c2.7-0.63,5.4-0.63,8.09-0.63c6.47,0,15.11,1.87,21.58,4.37
			c3.78,1.87,7.01,3.74,9.71,5.62c-5.93,1.87-10.79,4.99-15.65,9.36c-8.09,7.49-15.65,21.21-17.26,44.3V914.6
			c4.32,45.54,41.54,54.28,46.94,54.28c1.62,0,3.24,0,4.32-0.63c3.78-1.87,9.17-5.62,14.03-9.98c2.7-1.87,5.93-4.37,8.63-6.86
			l6.47,9.36l-80.92,72.99c-60.96-9.36-93.87-44.92-98.19-94.2V723.07c-1.62-13.1-4.86-23.71-9.71-30.57
			c-10.25-14.98-22.66-16.22-23.2-16.22C5134.73,668.17,5143.36,671.29,5167.64,643.21z M5224.83,434.84
			c4.86,7.49,10.25,14.35,16.19,21.21c10.25,11.85,24.82,23.71,42.08,29.32l-56.65,56.15l-58.27-48.04L5224.83,434.84z"/>
	</g>
	<g>
		<defs>
			<path id="SVGID_1_" d="M248.9,1014.42c11.33-24.33,28.05-47.42,49.63-63.64c21.04-16.22,43.7-21.21,62.58-21.21
				c5.93,0,12.41,0,18.88,1.25c10.25-14.35,11.33-26.82,11.33-33.69c0-5.62-1.08-12.48-3.24-19.34
				c-11.33-36.81-25.9-62.39-41.54-84.23c-10.25-8.73-43.7-26.82-71.21-26.82c-8.09,0-14.03,0.63-19.96,4.99
				c0-2.5,0-4.37,4.86-14.35c4.32-9.36,14.57-21.21,31.29-26.82c-12.41-14.35-23.74-28.7-31.83-48.04
				c-11.33-24.33-17.26-43.04-17.8-55.52c-0.54-12.48-1.08-20.59-1.08-23.71c0-36.81,10.25-69.88,29.13-94.83
				c9.17-12.48,18.34-21.21,26.97-26.21l83.62-37.43c9.71-3.12,18.88-4.99,28.05-4.99c28.05,0,53.95,16.22,64.2,66.13
				c4.32,22.46,17.8,64.88,42.62,64.88c17.8,0,30.75-26.21,35.07-43.67c0.54-1.87,0.54-3.74,0.54-4.99c0-6.86-4.32-15.6-4.32-20.59
				c0-1.24-1.08-4.37,5.4-8.73c1.08-0.63,2.16-1.24,3.24-1.24c3.78,0,5.39,6.86,5.39,14.98c0,1.24,0,2.5,0,3.74
				c-2.7,38.68-25.36,76.74-58.27,88.59v169.06c3.78,11.85,8.63,18.72,12.41,23.71c2.16,3.12,4.32,4.99,6.47,6.86l-18.88,29.32
				v162.83c32.91,28.08,60.42,54.9,107.9,69.88c9.71,2.5,17.8,3.74,24.82,3.74c16.72,0,26.97-6.24,33.45-13.1
				c8.63-13.72-1.62-34.94,12.95-36.81c3.78,0,5.4,2.5,5.4,7.49c0,1.24,0,1.87,0,3.12c-2.7,13.1-8.09,25.58-14.03,37.43
				c-17.26,31.82-51.79,73.62-123,73.62c-18.88,0-39.92-3.12-63.66-9.98c-63.66-18.72-131.64-100.45-190.44-105.44
				c-1.08,0-2.16,0-3.24,0c-18.34,0-33.99,14.35-45.86,34.94c-11.87,20.59-19.96,44.92-22.66,59.27l-5.93-1.87
				C224.62,1075.57,234.87,1042.5,248.9,1014.42z M300.15,513.45c0,1.24,0.54,3.12,0.54,4.99c1.62,8.11,3.24,18.09,8.09,28.7
				C341.69,627,397.8,640.1,446.35,749.28c10.79,24.33,16.72,45.54,16.72,63.01c0,0.63,2.7,19.96-10.25,46.79
				c-12.95,27.45-36.69,49.29-55.57,74.87c44.78,12.48,72.83,31.2,98.19,51.16V819.77c-3.78-9.36-8.09-17.47-12.41-23.08
				c-2.16-3.12-4.32-4.99-5.93-6.86l18.34-28.08V601.41c-10.25,4.37-21.04,4.99-31.83,4.99c-30.21,0-58.81-11.85-77.69-24.95
				c3.24-10.6,4.32-20.59,4.32-31.2c0-4.37,0.54-19.96-6.47-40.55c-7.01-19.34-19.42-38.06-36.69-38.06c-3.24,0-6.47,0.63-9.71,1.87
				l-16.18,7.49c-7.01,2.5-12.41,7.49-16.18,14.35C301.77,500.97,300.15,506.59,300.15,513.45z"/>
		</defs>
		
			<linearGradient id="SVGID_00000129884239669894496140000009584946174066209706_" gradientUnits="userSpaceOnUse" x1="226.403" y1="522.967" x2="582.7986" y2="1140.2623">
			<stop  offset="1.065558e-07" style="stop-color:#000000"/>
			<stop  offset="0.0293" style="stop-color:#191919"/>
			<stop  offset="0.1057" style="stop-color:#575656"/>
			<stop  offset="0.1707" style="stop-color:#838383"/>
			<stop  offset="0.2208" style="stop-color:#9F9E9E"/>
			<stop  offset="0.25" style="stop-color:#A9A8A8"/>
			<stop  offset="0.2984" style="stop-color:#AEADAD"/>
			<stop  offset="0.3593" style="stop-color:#BEBDBD"/>
			<stop  offset="0.427" style="stop-color:#D7D7D7"/>
			<stop  offset="0.4992" style="stop-color:#FAFAFA"/>
			<stop  offset="0.5074" style="stop-color:#FFFFFF"/>
			<stop  offset="0.5273" style="stop-color:#F7F7F7"/>
			<stop  offset="0.6776" style="stop-color:#BFBEBE"/>
			<stop  offset="0.75" style="stop-color:#A9A8A8"/>
			<stop  offset="0.9872" style="stop-color:#090909"/>
			<stop  offset="1" style="stop-color:#000000"/>
		</linearGradient>
		<use xlink:href="#SVGID_1_"  style="overflow:visible;fill:url(#SVGID_00000129884239669894496140000009584946174066209706_);"/>
		<clipPath id="SVGID_00000119819824375110402210000011424880779778895500_">
			<use xlink:href="#SVGID_1_"  style="overflow:visible;"/>
		</clipPath>
		<use xlink:href="#SVGID_1_"  style="overflow:visible;fill:none;stroke:#FFFFFF;stroke-width:8;stroke-miterlimit:10;"/>
	</g>
	<g>
		<defs>
			<path id="SVGID_00000098212163393445438460000004093842556797033662_" d="M938.37,1005.06c0-0.63-0.54-3.74,3.24-11.85
				c18.88-41.8,48.55-84.84,99.81-124.77c8.09,2.5,14.57,5.62,21.04,8.73v-82.35c-14.57-22.46-25.36-40.56-29.67-49.91
				c-8.09-16.22-11.87-31.82-11.87-47.42c0-6.24,0-29.95,15.65-58.65c15.11-28.7,38.84-49.29,50.17-58.65
				c-7.55,8.73-11.33,18.72-11.33,29.95c0,8.73,1.62,28.7,23.74,71.12c10.25-49.91,34.53-112.92,126.78-129.77
				c-12.41,14.35-18.88,43.67-18.88,67.38c0,1.87-0.54,13.1,3.78,28.7c-55.57,4.99-91.17,19.96-104.12,47.42
				c24.28,43.04,57.19,92.33,79.31,142.87c15.11,34.31,12.95,47.42,12.95,51.78c0,31.2-17.8,51.16-39.38,77.98
				c-13.49,16.85-27.51,34.94-32.37,59.89c-17.8-20.59-37.23-41.17-58.27-56.77v49.29c3.78,10.6,8.63,18.09,12.41,23.08
				c2.16,3.12,4.32,4.99,6.47,6.86l-18.88,29.32v3.12h-6.47v-11.23c-3.78-9.36-8.09-17.47-12.41-23.08
				c-2.16-3.12-4.32-4.99-5.93-6.86l18.34-28.08v-47.42c-18.88-12.48-36.69-20.59-53.41-20.59c-22.12,0-45.86,16.85-56.11,39.3
				c-5.93,10.6,2.16,24.33-9.71,24.33C939.98,1008.81,938.37,1007.56,938.37,1005.06z M1068.92,880.92
				c41,23.08,64.74,60.52,73.37,79.86c0-1.25,0.54-3.12,0.54-4.37c0-12.48-7.55-34.31-22.12-62.39
				c-15.11-28.08-34.53-60.52-51.79-87.97V880.92z"/>
		</defs>
		
			<linearGradient id="SVGID_00000068654112399221268500000013904377123164649642_" gradientUnits="userSpaceOnUse" x1="997.2666" y1="631.8514" x2="1210.2864" y2="1000.8124">
			<stop  offset="1.065558e-07" style="stop-color:#000000"/>
			<stop  offset="0.0293" style="stop-color:#191919"/>
			<stop  offset="0.1057" style="stop-color:#575656"/>
			<stop  offset="0.1707" style="stop-color:#838383"/>
			<stop  offset="0.2208" style="stop-color:#9F9E9E"/>
			<stop  offset="0.25" style="stop-color:#A9A8A8"/>
			<stop  offset="0.2984" style="stop-color:#AEADAD"/>
			<stop  offset="0.3593" style="stop-color:#BEBDBD"/>
			<stop  offset="0.427" style="stop-color:#D7D7D7"/>
			<stop  offset="0.4992" style="stop-color:#FAFAFA"/>
			<stop  offset="0.5074" style="stop-color:#FFFFFF"/>
			<stop  offset="0.5273" style="stop-color:#F7F7F7"/>
			<stop  offset="0.6776" style="stop-color:#BFBEBE"/>
			<stop  offset="0.75" style="stop-color:#A9A8A8"/>
			<stop  offset="0.9872" style="stop-color:#090909"/>
			<stop  offset="1" style="stop-color:#000000"/>
		</linearGradient>
		
			<use xlink:href="#SVGID_00000098212163393445438460000004093842556797033662_"  style="overflow:visible;fill:url(#SVGID_00000068654112399221268500000013904377123164649642_);"/>
		<clipPath id="SVGID_00000151517473073028920720000017955386207006344342_">
			<use xlink:href="#SVGID_00000098212163393445438460000004093842556797033662_"  style="overflow:visible;"/>
		</clipPath>
		
			<use xlink:href="#SVGID_00000098212163393445438460000004093842556797033662_"  style="overflow:visible;fill:none;stroke:#FFFFFF;stroke-width:8;stroke-miterlimit:10;"/>
	</g>
	<g>
		<defs>
			<path id="SVGID_00000031168303331929435190000000546312427897692804_" d="M2153.29,642.57c23.2-26.82,55.03-86.1,92.25-89.22
				c2.7-0.63,5.39-0.63,8.09-0.63c6.47,0,15.11,1.87,21.58,4.37c3.78,1.87,7.01,3.74,9.71,5.62c-5.93,1.87-10.79,4.99-15.65,9.36
				c-8.09,7.49-15.65,21.21-17.26,44.3v297.59c4.32,45.54,41.54,54.28,46.94,54.28c1.62,0,3.24,0,4.32-0.63
				c3.78-1.87,9.17-5.62,14.03-9.98c2.7-1.87,5.93-4.37,8.63-6.86l6.47,9.36l-80.92,72.99c-60.96-9.36-93.87-44.92-98.19-94.2
				V722.43c-1.62-13.1-4.86-23.71-9.71-30.57c-10.25-14.98-22.66-16.22-23.2-16.22C2120.39,667.52,2129.02,670.65,2153.29,642.57z
				 M2210.48,434.2c4.86,7.49,10.25,14.35,16.18,21.21c10.25,11.85,24.82,23.71,42.08,29.32l-56.65,56.15l-58.27-48.04
				L2210.48,434.2z"/>
		</defs>
		
			<linearGradient id="SVGID_00000054264922064874875120000018122324902866182276_" gradientUnits="userSpaceOnUse" x1="2086.2703" y1="505.9093" x2="2355.8601" y2="972.8527">
			<stop  offset="1.065558e-07" style="stop-color:#000000"/>
			<stop  offset="0.0293" style="stop-color:#191919"/>
			<stop  offset="0.1057" style="stop-color:#575656"/>
			<stop  offset="0.1707" style="stop-color:#838383"/>
			<stop  offset="0.2208" style="stop-color:#9F9E9E"/>
			<stop  offset="0.25" style="stop-color:#A9A8A8"/>
			<stop  offset="0.2984" style="stop-color:#AEADAD"/>
			<stop  offset="0.3593" style="stop-color:#BEBDBD"/>
			<stop  offset="0.427" style="stop-color:#D7D7D7"/>
			<stop  offset="0.4992" style="stop-color:#FAFAFA"/>
			<stop  offset="0.5074" style="stop-color:#FFFFFF"/>
			<stop  offset="0.5273" style="stop-color:#F7F7F7"/>
			<stop  offset="0.6776" style="stop-color:#BFBEBE"/>
			<stop  offset="0.75" style="stop-color:#A9A8A8"/>
			<stop  offset="0.9872" style="stop-color:#090909"/>
			<stop  offset="1" style="stop-color:#000000"/>
		</linearGradient>
		
			<use xlink:href="#SVGID_00000031168303331929435190000000546312427897692804_"  style="overflow:visible;fill:url(#SVGID_00000054264922064874875120000018122324902866182276_);"/>
		<clipPath id="SVGID_00000127005040834987419030000010921058444725924751_">
			<use xlink:href="#SVGID_00000031168303331929435190000000546312427897692804_"  style="overflow:visible;"/>
		</clipPath>
		
			<use xlink:href="#SVGID_00000031168303331929435190000000546312427897692804_"  style="overflow:visible;fill:none;stroke:#FFFFFF;stroke-width:8;stroke-miterlimit:10;"/>
	</g>
	<g>
		<defs>
			<path id="SVGID_00000065761820389608758290000016014113743506449822_" d="M2528.78,1004.42c0-0.63-0.54-3.74,3.24-11.85
				c18.88-41.8,48.55-84.84,99.81-124.77c8.09,2.5,14.57,5.62,21.04,8.73v-82.35c-14.57-22.46-25.36-40.56-29.67-49.91
				c-8.09-16.22-11.87-31.82-11.87-47.42c0-6.24,0-29.95,15.65-58.65c15.11-28.7,38.84-49.29,50.17-58.65
				c-7.55,8.73-11.33,18.72-11.33,29.95c0,8.73,1.62,28.7,23.74,71.12c10.25-49.91,34.53-112.92,126.78-129.77
				c-12.41,14.35-18.88,43.67-18.88,67.38c0,1.87-0.54,13.1,3.78,28.7c-55.57,4.99-91.17,19.96-104.12,47.42
				c24.28,43.04,57.19,92.33,79.31,142.87c15.11,34.31,12.95,47.42,12.95,51.78c0,31.2-17.8,51.16-39.38,77.98
				c-13.49,16.85-27.51,34.94-32.37,59.89c-17.8-20.59-37.23-41.17-58.27-56.77v49.29c3.78,10.6,8.63,18.09,12.41,23.08
				c2.16,3.12,4.32,4.99,6.47,6.86l-18.88,29.32v3.12h-6.47v-11.23c-3.78-9.36-8.09-17.47-12.41-23.08
				c-2.16-3.12-4.32-4.99-5.93-6.86l18.34-28.08v-47.42c-18.88-12.48-36.69-20.59-53.41-20.59c-22.12,0-45.86,16.85-56.11,39.3
				c-5.93,10.6,2.16,24.33-9.71,24.33C2530.39,1008.16,2528.78,1006.92,2528.78,1004.42z M2659.33,880.27
				c41,23.08,64.74,60.52,73.37,79.86c0-1.25,0.54-3.12,0.54-4.37c0-12.48-7.55-34.31-22.12-62.39
				c-15.11-28.08-34.53-60.52-51.79-87.97V880.27z"/>
		</defs>
		
			<linearGradient id="SVGID_00000052821336420208123110000007624878923616070072_" gradientUnits="userSpaceOnUse" x1="2587.6772" y1="631.2077" x2="2800.697" y2="1000.1686">
			<stop  offset="1.065558e-07" style="stop-color:#000000"/>
			<stop  offset="0.0293" style="stop-color:#191919"/>
			<stop  offset="0.1057" style="stop-color:#575656"/>
			<stop  offset="0.1707" style="stop-color:#838383"/>
			<stop  offset="0.2208" style="stop-color:#9F9E9E"/>
			<stop  offset="0.25" style="stop-color:#A9A8A8"/>
			<stop  offset="0.2984" style="stop-color:#AEADAD"/>
			<stop  offset="0.3593" style="stop-color:#BEBDBD"/>
			<stop  offset="0.427" style="stop-color:#D7D7D7"/>
			<stop  offset="0.4992" style="stop-color:#FAFAFA"/>
			<stop  offset="0.5074" style="stop-color:#FFFFFF"/>
			<stop  offset="0.5273" style="stop-color:#F7F7F7"/>
			<stop  offset="0.6776" style="stop-color:#BFBEBE"/>
			<stop  offset="0.75" style="stop-color:#A9A8A8"/>
			<stop  offset="0.9872" style="stop-color:#090909"/>
			<stop  offset="1" style="stop-color:#000000"/>
		</linearGradient>
		
			<use xlink:href="#SVGID_00000065761820389608758290000016014113743506449822_"  style="overflow:visible;fill:url(#SVGID_00000052821336420208123110000007624878923616070072_);"/>
		<clipPath id="SVGID_00000133487898643698496960000011752757868419554692_">
			<use xlink:href="#SVGID_00000065761820389608758290000016014113743506449822_"  style="overflow:visible;"/>
		</clipPath>
		
			<use xlink:href="#SVGID_00000065761820389608758290000016014113743506449822_"  style="overflow:visible;fill:none;stroke:#FFFFFF;stroke-width:8;stroke-miterlimit:10;"/>
	</g>
	<g>
		<defs>
			<path id="SVGID_00000060717864894043918170000005191263050248345513_" d="M3504.31,656.94c0-8.73,22.12,4.99,48.01-36.81
				c21.58-29.95,49.63-69.25,87.94-69.25c15.65,0,25.9,2.5,31.83,4.99c3.78,1.87,6.47,3.12,8.09,4.37
				c-8.09,1.87-15.11,5.62-21.04,9.98c-10.25,7.49-20.5,20.59-20.5,42.43v247.68c0,58.65,33.45,96.7,60.42,96.7
				c6.47,0,12.41-2.5,18.34-6.86c1.62-0.63,2.7-1.87,4.32-3.12c2.16-1.87,4.86-4.37,7.55-6.86c-1.08-7.49-1.62-14.98-1.62-23.08
				V703.73c-2.16-22.46-9.71-34.31-16.72-41.17c-3.78-3.74-8.63-6.24-13.49-6.86c0-9.36,22.12,5.62,48.02-36.18
				c21.58-29.95,48.55-69.25,87.94-69.25c15.65,0,25.9,2.5,31.83,4.99c3.78,1.87,6.47,3.12,8.09,4.37
				c-8.09,1.87-15.11,5.62-21.04,9.98c-10.25,7.49-20.5,19.96-20.5,41.8v290.73c0,42.43,22.12,79.86,43.16,79.86
				c2.16,0,4.86-0.63,8.63-2.5c1.62-0.63,3.78-2.5,6.47-4.37l7.55-6.24c2.7-1.87,5.93-4.37,8.63-6.86l6.47,9.98l-80.92,73
				c-52.33-8.11-87.94-45.54-100.35-93.58l-92.79,94.2c-15.11-5.62-29.13-13.72-42.08-24.33c-22.12-18.09-46.94-47.42-56.11-94.2
				c-3.78-19.34-5.93-41.17-5.93-66.75V704.36c-2.16-22.46-9.71-33.69-16.72-40.56C3514.03,660.06,3509.17,657.57,3504.31,656.94z"
				/>
		</defs>
		
			<linearGradient id="SVGID_00000103248593162370928250000007501154853579590587_" gradientUnits="userSpaceOnUse" x1="3599.031" y1="565.6183" x2="3864.8054" y2="1025.9535">
			<stop  offset="1.065558e-07" style="stop-color:#000000"/>
			<stop  offset="0.0293" style="stop-color:#191919"/>
			<stop  offset="0.1057" style="stop-color:#575656"/>
			<stop  offset="0.1707" style="stop-color:#838383"/>
			<stop  offset="0.2208" style="stop-color:#9F9E9E"/>
			<stop  offset="0.25" style="stop-color:#A9A8A8"/>
			<stop  offset="0.2984" style="stop-color:#AEADAD"/>
			<stop  offset="0.3593" style="stop-color:#BEBDBD"/>
			<stop  offset="0.427" style="stop-color:#D7D7D7"/>
			<stop  offset="0.4992" style="stop-color:#FAFAFA"/>
			<stop  offset="0.5074" style="stop-color:#FFFFFF"/>
			<stop  offset="0.5273" style="stop-color:#F7F7F7"/>
			<stop  offset="0.6776" style="stop-color:#BFBEBE"/>
			<stop  offset="0.75" style="stop-color:#A9A8A8"/>
			<stop  offset="0.9872" style="stop-color:#090909"/>
			<stop  offset="1" style="stop-color:#000000"/>
		</linearGradient>
		
			<use xlink:href="#SVGID_00000060717864894043918170000005191263050248345513_"  style="overflow:visible;fill:url(#SVGID_00000103248593162370928250000007501154853579590587_);"/>
		<clipPath id="SVGID_00000129193656847075757480000017757147150982761890_">
			<use xlink:href="#SVGID_00000060717864894043918170000005191263050248345513_"  style="overflow:visible;"/>
		</clipPath>
		
			<use xlink:href="#SVGID_00000060717864894043918170000005191263050248345513_"  style="overflow:visible;fill:none;stroke:#FFFFFF;stroke-width:8;stroke-miterlimit:10;"/>
	</g>
	<g>
		<defs>
			<path id="SVGID_00000181051040393653453940000005056780412796191409_" d="M4890.89,621.38c16.72-13.72,32.37-29.32,48.02-47.42
				h138.11v308.2c8.63,6.86,14.57,14.98,18.88,21.84c2.7,4.37,4.86,8.11,6.47,11.85c-32.91,0-68.52,23.08-96.03,46.17
				c-16.18,13.72-31.83,28.7-46.94,45.54h-4.32c-108.98,0-137.03-66.75-137.03-160.96V701.24c-8.63-6.86-14.57-14.98-18.88-21.84
				c-2.7-3.74-4.86-7.49-6.47-11.23C4826.69,668.17,4862.83,645.71,4890.89,621.38z M4916.24,892.14c0,44.3,9.71,57.4,37.76,57.4
				h7.01c5.93-4.37,10.25-7.49,16.18-11.85V694.37h-53.41c-2.7,1.87-4.86,3.12-7.55,4.99V892.14z"/>
		</defs>
		
			<linearGradient id="SVGID_00000142877449345870555520000014903122020837044410_" gradientUnits="userSpaceOnUse" x1="4871.3979" y1="612.939" x2="5064.2754" y2="947.0131">
			<stop  offset="1.065558e-07" style="stop-color:#000000"/>
			<stop  offset="0.0293" style="stop-color:#191919"/>
			<stop  offset="0.1057" style="stop-color:#575656"/>
			<stop  offset="0.1707" style="stop-color:#838383"/>
			<stop  offset="0.2208" style="stop-color:#9F9E9E"/>
			<stop  offset="0.25" style="stop-color:#A9A8A8"/>
			<stop  offset="0.2984" style="stop-color:#AEADAD"/>
			<stop  offset="0.3593" style="stop-color:#BEBDBD"/>
			<stop  offset="0.427" style="stop-color:#D7D7D7"/>
			<stop  offset="0.4992" style="stop-color:#FAFAFA"/>
			<stop  offset="0.5074" style="stop-color:#FFFFFF"/>
			<stop  offset="0.5273" style="stop-color:#F7F7F7"/>
			<stop  offset="0.6776" style="stop-color:#BFBEBE"/>
			<stop  offset="0.75" style="stop-color:#A9A8A8"/>
			<stop  offset="0.9872" style="stop-color:#090909"/>
			<stop  offset="1" style="stop-color:#000000"/>
		</linearGradient>
		
			<use xlink:href="#SVGID_00000181051040393653453940000005056780412796191409_"  style="overflow:visible;fill:url(#SVGID_00000142877449345870555520000014903122020837044410_);"/>
		<clipPath id="SVGID_00000044162350897125145370000015239428614234017978_">
			<use xlink:href="#SVGID_00000181051040393653453940000005056780412796191409_"  style="overflow:visible;"/>
		</clipPath>
		
			<use xlink:href="#SVGID_00000181051040393653453940000005056780412796191409_"  style="overflow:visible;fill:none;stroke:#FFFFFF;stroke-width:8;stroke-miterlimit:10;"/>
	</g>
	<g>
		
			<linearGradient id="SVGID_00000033335709110740246440000012230942276009796530_" gradientUnits="userSpaceOnUse" x1="226.403" y1="522.967" x2="582.7986" y2="1140.2623">
			<stop  offset="1.065558e-07" style="stop-color:#000000"/>
			<stop  offset="0.0293" style="stop-color:#191919"/>
			<stop  offset="0.1057" style="stop-color:#575656"/>
			<stop  offset="0.1707" style="stop-color:#838383"/>
			<stop  offset="0.2208" style="stop-color:#9F9E9E"/>
			<stop  offset="0.25" style="stop-color:#A9A8A8"/>
			<stop  offset="0.2984" style="stop-color:#AEADAD"/>
			<stop  offset="0.3593" style="stop-color:#BEBDBD"/>
			<stop  offset="0.427" style="stop-color:#D7D7D7"/>
			<stop  offset="0.4992" style="stop-color:#FAFAFA"/>
			<stop  offset="0.5074" style="stop-color:#FFFFFF"/>
			<stop  offset="0.5273" style="stop-color:#F7F7F7"/>
			<stop  offset="0.6776" style="stop-color:#BFBEBE"/>
			<stop  offset="0.75" style="stop-color:#A9A8A8"/>
			<stop  offset="0.9872" style="stop-color:#090909"/>
			<stop  offset="1" style="stop-color:#000000"/>
		</linearGradient>
		
			<path id="SVGID_00000086657761026479502500000017315707388577930927_" style="fill:url(#SVGID_00000033335709110740246440000012230942276009796530_);stroke:#FFFFFF;stroke-width:8;stroke-miterlimit:8.4627;" d="
			M248.9,1014.42c11.33-24.33,28.05-47.42,49.63-63.64c21.04-16.22,43.7-21.21,62.58-21.21c5.93,0,12.41,0,18.88,1.25
			c10.25-14.35,11.33-26.82,11.33-33.69c0-5.62-1.08-12.48-3.24-19.34c-11.33-36.81-25.9-62.39-41.54-84.23
			c-10.25-8.73-43.7-26.82-71.21-26.82c-8.09,0-14.03,0.63-19.96,4.99c0-2.5,0-4.37,4.86-14.35c4.32-9.36,14.57-21.21,31.29-26.82
			c-12.41-14.35-23.74-28.7-31.83-48.04c-11.33-24.33-17.26-43.04-17.8-55.52c-0.54-12.48-1.08-20.59-1.08-23.71
			c0-36.81,10.25-69.88,29.13-94.83c9.17-12.48,18.34-21.21,26.97-26.21l83.62-37.43c9.71-3.12,18.88-4.99,28.05-4.99
			c28.05,0,53.95,16.22,64.2,66.13c4.32,22.46,17.8,64.88,42.62,64.88c17.8,0,30.75-26.21,35.07-43.67
			c0.54-1.87,0.54-3.74,0.54-4.99c0-6.86-4.32-15.6-4.32-20.59c0-1.24-1.08-4.37,5.39-8.73c1.08-0.63,2.16-1.24,3.24-1.24
			c3.78,0,5.39,6.86,5.39,14.98c0,1.24,0,2.5,0,3.74c-2.7,38.68-25.36,76.74-58.27,88.59v169.06c3.78,11.85,8.63,18.72,12.41,23.71
			c2.16,3.12,4.32,4.99,6.47,6.86l-18.88,29.32v162.83c32.91,28.08,60.42,54.9,107.9,69.88c9.71,2.5,17.8,3.74,24.82,3.74
			c16.72,0,26.97-6.24,33.45-13.1c8.63-13.72-1.62-34.94,12.95-36.81c3.78,0,5.39,2.5,5.39,7.49c0,1.24,0,1.87,0,3.12
			c-2.7,13.1-8.09,25.58-14.03,37.43c-17.26,31.82-51.79,73.62-123,73.62c-18.88,0-39.92-3.12-63.66-9.98
			c-63.66-18.72-131.64-100.45-190.44-105.44c-1.08,0-2.16,0-3.24,0c-18.34,0-33.99,14.35-45.86,34.94
			c-11.87,20.59-19.96,44.92-22.66,59.27l-5.93-1.87C224.62,1075.57,234.87,1042.5,248.9,1014.42z M300.15,513.45
			c0,1.24,0.54,3.12,0.54,4.99c1.62,8.11,3.24,18.09,8.09,28.7C341.69,627,397.8,640.1,446.35,749.28
			c10.79,24.33,16.72,45.54,16.72,63.01c0,0.63,2.7,19.96-10.25,46.79c-12.95,27.45-36.69,49.29-55.57,74.87
			c44.78,12.48,72.83,31.2,98.19,51.16V819.77c-3.78-9.36-8.09-17.47-12.41-23.08c-2.16-3.12-4.32-4.99-5.93-6.86l18.34-28.08
			V601.41c-10.25,4.37-21.04,4.99-31.83,4.99c-30.21,0-58.8-11.85-77.69-24.95c3.24-10.6,4.32-20.59,4.32-31.2
			c0-4.37,0.54-19.96-6.47-40.55c-7.01-19.34-19.42-38.06-36.69-38.06c-3.24,0-6.47,0.63-9.71,1.87l-16.18,7.49
			c-7.01,2.5-12.41,7.49-16.18,14.35C301.77,500.97,300.15,506.59,300.15,513.45z"/>
	</g>
	<g>
		
			<linearGradient id="SVGID_00000075142992836894536540000002145273125507821724_" gradientUnits="userSpaceOnUse" x1="727.3298" y1="649.3781" x2="917.6772" y2="979.0696">
			<stop  offset="1.065558e-07" style="stop-color:#000000"/>
			<stop  offset="0.0293" style="stop-color:#191919"/>
			<stop  offset="0.1057" style="stop-color:#575656"/>
			<stop  offset="0.1707" style="stop-color:#838383"/>
			<stop  offset="0.2208" style="stop-color:#9F9E9E"/>
			<stop  offset="0.25" style="stop-color:#A9A8A8"/>
			<stop  offset="0.2984" style="stop-color:#AEADAD"/>
			<stop  offset="0.3593" style="stop-color:#BEBDBD"/>
			<stop  offset="0.427" style="stop-color:#D7D7D7"/>
			<stop  offset="0.4992" style="stop-color:#FAFAFA"/>
			<stop  offset="0.5074" style="stop-color:#FFFFFF"/>
			<stop  offset="0.5273" style="stop-color:#F7F7F7"/>
			<stop  offset="0.6776" style="stop-color:#BFBEBE"/>
			<stop  offset="0.75" style="stop-color:#A9A8A8"/>
			<stop  offset="0.9872" style="stop-color:#090909"/>
			<stop  offset="1" style="stop-color:#000000"/>
		</linearGradient>
		
			<path id="SVGID_00000046339766380236537580000017679556493110950060_" style="fill:url(#SVGID_00000075142992836894536540000002145273125507821724_);stroke:#FFFFFF;stroke-width:8;stroke-miterlimit:8.4627;" d="
			M652.97,775.48c0-9.36,23.74-7.49,66.9-52.4c43.16-44.91,128.4-129.14,158.61-160.96c36.69,35.56,65.82,101.07,65.82,155.97
			c0,107.31-113.29,180.93-148.9,211.5c10.79,26.82,29.13,34.31,49.09,34.31c21.04,0,37.76-5.62,54.49-20.59l35.61-31.2l5.39,10.6
			l-141.89,125.4c-40.46,0-112.75-71.12-112.75-141.62V822.9c-3.24-33.69-19.42-43.67-27.51-46.17L652.97,775.48z M785.15,711.85
			V862.2c0,23.71,2.16,42.43,6.47,56.77c18.88-16.85,83.08-58.65,83.08-129.14c0-51.78-13.49-80.48-28.59-97.32
			c-9.17-9.36-19.42-12.48-29.67-12.48c-8.09,0-15.11,2.5-21.04,7.49C789.47,693.13,785.69,701.24,785.15,711.85z"/>
	</g>
	<g>
		
			<linearGradient id="SVGID_00000129889749583441761070000016294699604176641452_" gradientUnits="userSpaceOnUse" x1="997.2667" y1="631.8514" x2="1210.2864" y2="1000.8124">
			<stop  offset="1.065558e-07" style="stop-color:#000000"/>
			<stop  offset="0.0293" style="stop-color:#191919"/>
			<stop  offset="0.1057" style="stop-color:#575656"/>
			<stop  offset="0.1707" style="stop-color:#838383"/>
			<stop  offset="0.2208" style="stop-color:#9F9E9E"/>
			<stop  offset="0.25" style="stop-color:#A9A8A8"/>
			<stop  offset="0.2984" style="stop-color:#AEADAD"/>
			<stop  offset="0.3593" style="stop-color:#BEBDBD"/>
			<stop  offset="0.427" style="stop-color:#D7D7D7"/>
			<stop  offset="0.4992" style="stop-color:#FAFAFA"/>
			<stop  offset="0.5074" style="stop-color:#FFFFFF"/>
			<stop  offset="0.5273" style="stop-color:#F7F7F7"/>
			<stop  offset="0.6776" style="stop-color:#BFBEBE"/>
			<stop  offset="0.75" style="stop-color:#A9A8A8"/>
			<stop  offset="0.9872" style="stop-color:#090909"/>
			<stop  offset="1" style="stop-color:#000000"/>
		</linearGradient>
		
			<path id="SVGID_00000000200626535797589570000016948992305254770354_" style="fill:url(#SVGID_00000129889749583441761070000016294699604176641452_);stroke:#FFFFFF;stroke-width:8;stroke-miterlimit:8.4627;" d="
			M938.37,1005.06c0-0.63-0.54-3.74,3.24-11.85c18.88-41.8,48.55-84.84,99.81-124.77c8.09,2.5,14.57,5.62,21.04,8.73v-82.35
			c-14.57-22.46-25.36-40.56-29.67-49.91c-8.09-16.22-11.87-31.82-11.87-47.42c0-6.24,0-29.95,15.65-58.65
			c15.11-28.7,38.84-49.29,50.17-58.65c-7.55,8.73-11.33,18.72-11.33,29.95c0,8.73,1.62,28.7,23.74,71.12
			c10.25-49.91,34.53-112.92,126.78-129.77c-12.41,14.35-18.88,43.67-18.88,67.38c0,1.87-0.54,13.1,3.78,28.7
			c-55.57,4.99-91.17,19.96-104.12,47.42c24.28,43.04,57.19,92.33,79.31,142.87c15.11,34.31,12.95,47.42,12.95,51.78
			c0,31.2-17.8,51.16-39.38,77.98c-13.49,16.85-27.51,34.94-32.37,59.89c-17.8-20.59-37.23-41.17-58.27-56.77v49.29
			c3.78,10.6,8.63,18.09,12.41,23.08c2.16,3.12,4.32,4.99,6.47,6.86l-18.88,29.32v3.12h-6.47v-11.23
			c-3.78-9.36-8.09-17.47-12.41-23.08c-2.16-3.12-4.32-4.99-5.93-6.86l18.34-28.08v-47.42c-18.88-12.48-36.69-20.59-53.41-20.59
			c-22.12,0-45.86,16.85-56.11,39.3c-5.93,10.6,2.16,24.33-9.71,24.33C939.98,1008.81,938.37,1007.56,938.37,1005.06z
			 M1068.92,880.92c41,23.08,64.74,60.52,73.37,79.86c0-1.25,0.54-3.12,0.54-4.37c0-12.48-7.55-34.31-22.12-62.39
			c-15.11-28.08-34.53-60.52-51.79-87.97V880.92z"/>
	</g>
	<g>
		
			<linearGradient id="SVGID_00000033353934685971925720000014136148003212051878_" gradientUnits="userSpaceOnUse" x1="1665.9181" y1="482.6194" x2="1973.178" y2="1014.8092">
			<stop  offset="1.065558e-07" style="stop-color:#000000"/>
			<stop  offset="0.0293" style="stop-color:#191919"/>
			<stop  offset="0.1057" style="stop-color:#575656"/>
			<stop  offset="0.1707" style="stop-color:#838383"/>
			<stop  offset="0.2208" style="stop-color:#9F9E9E"/>
			<stop  offset="0.25" style="stop-color:#A9A8A8"/>
			<stop  offset="0.2984" style="stop-color:#AEADAD"/>
			<stop  offset="0.3593" style="stop-color:#BEBDBD"/>
			<stop  offset="0.427" style="stop-color:#D7D7D7"/>
			<stop  offset="0.4992" style="stop-color:#FAFAFA"/>
			<stop  offset="0.5074" style="stop-color:#FFFFFF"/>
			<stop  offset="0.5273" style="stop-color:#F7F7F7"/>
			<stop  offset="0.6776" style="stop-color:#BFBEBE"/>
			<stop  offset="0.75" style="stop-color:#A9A8A8"/>
			<stop  offset="0.9872" style="stop-color:#090909"/>
			<stop  offset="1" style="stop-color:#000000"/>
		</linearGradient>
		
			<path id="SVGID_00000020377887962561056750000001311973588182704063_" style="fill:url(#SVGID_00000033353934685971925720000014136148003212051878_);stroke:#FFFFFF;stroke-width:8;stroke-miterlimit:8.4627;" d="
			M1504.29,685c0-2.5,1.62-4.37,4.32-4.99c1.62-0.63,2.7-0.63,3.78-0.63c2.7,0,4.86,1.87,7.01,7.49c2.16,5.62,3.78,13.1,9.71,18.09
			c13.49,9.36,22.12,11.85,33.45,11.85c1.08,0,2.7,0,3.78,0c12.41-0.63,19.96-9.36,22.12-23.71c0.54-3.74,1.08-7.49,1.08-11.23
			c0-11.23-2.7-29.95-14.03-52.4c-9.17-18.09-9.17-31.82-9.17-38.68c0-18.72,7.55-48.66,32.91-64.26
			c16.72-10.6,32.37-20.59,46.94-29.95c24.28-14.98,49.09-31.2,53.95-33.69c16.72-9.98,31.29-13.72,45.86-13.72
			c15.65,0,30.75,3.74,46.4,10.6c108.98,43.04,174.26,101.07,263.27,127.9c5.93,1.87,11.33,2.5,17.26,2.5
			c21.04,0,32.91-13.1,41-28.08c8.09-12.48-1.62-36.81,12.95-36.81c8.09,0,3.78,12.48,3.78,14.98
			c-6.47,24.33-16.18,46.79-28.59,66.13c-21.58,33.07-58.27,65.51-117.07,65.51c-73.91,0-147.28-44.3-205.01-94.2
			c0,1.24,0,2.5,0,3.74c0,8.73,1.62,19.96,8.63,37.43c17.26,41.8,41,74.24,65.28,109.81c11.33,16.85,22.66,33.69,33.99,53.03
			c31.83-38.06,64.2-81.73,134.87-89.84c-21.58,28.7-26.44,87.34-26.44,102.94c0,4.37,0,8.73,0.54,13.1
			c-25.9-16.85-44.78-23.08-61.5-23.08c-14.57,0-26.44,5.62-37.76,13.1c8.09,14.98,15.11,31.2,23.2,48.66
			c9.71,21.84,15.11,38.06,15.65,47.42c0.54,9.36,1.08,15.6,1.08,18.72c0,24.95-8.09,48.04-24.82,68.62
			c-8.09,10.6-16.72,20.59-25.36,31.2c-17.8,21.21-35.61,44.3-42.08,76.11c-16.18-47.42-73.37-100.45-127.32-124.15v124.15h-7.01
			V961.4c-27.51-10.6-55.57-17.47-80.92-17.47c-32.37,0-60.42,11.23-76.07,46.17c-6.47,13.72,1.62,31.2-12.41,31.2
			c-0.54,0-0.54,0-1.08,0c-6.47,0-5.93-9.36-1.08-19.96c23.74-52.4,62.58-108.55,127.32-158.47c12.41,4.37,27.51,9.98,44.24,17.47
			V817.3c-3.78-9.36-8.09-17.47-12.41-23.08c-2.16-3.12-4.32-4.99-5.93-6.86l18.34-28.08V521.54
			c-15.11-9.36-30.75-16.22-49.63-20.59c-11.33,6.86-17.8,14.35-18.88,21.84s-1.62,13.1-1.62,16.22c0,8.73,1.62,16.85,4.32,25.58
			c5.93,20.59,19.42,43.04,38.84,56.15c-11.33,39.93-45.86,99.2-97.65,107.31c-4.32,0.63-8.09,1.24-12.41,1.24
			c-15.65,0-38.84-2.5-62.04-29.32c-3.78-4.37-5.93-8.11-7.01-12.48C1504.29,686.24,1504.29,685.62,1504.29,685z M1717.93,825.37
			v38.06c53.41,24.95,127.86,98.58,146.74,140.38c0.54-3.12,1.08-6.86,1.08-9.98c0-5.62-1.08-11.85-3.24-18.09
			c-24.28-81.73-108.98-184.05-123-221.48c-9.17-24.33-14.57-42.43-15.11-54.9c-1.08-11.85-1.08-20.59-1.08-25.58
			c0-28.08,6.47-56.78,20.5-79.86c7.01-11.85,14.03-21.21,21.58-29.32c-15.65-14.35-30.21-27.45-46.94-38.06l-0.54-0.63v239.57
			c3.78,11.85,8.63,18.72,12.41,23.71c2.16,3.12,4.32,4.99,6.47,6.86L1717.93,825.37z"/>
	</g>
	<g>
		
			<linearGradient id="SVGID_00000140715583093448912790000012770980328039549629_" gradientUnits="userSpaceOnUse" x1="2086.2703" y1="505.9094" x2="2355.8601" y2="972.8527">
			<stop  offset="1.065558e-07" style="stop-color:#000000"/>
			<stop  offset="0.0293" style="stop-color:#191919"/>
			<stop  offset="0.1057" style="stop-color:#575656"/>
			<stop  offset="0.1707" style="stop-color:#838383"/>
			<stop  offset="0.2208" style="stop-color:#9F9E9E"/>
			<stop  offset="0.25" style="stop-color:#A9A8A8"/>
			<stop  offset="0.2984" style="stop-color:#AEADAD"/>
			<stop  offset="0.3593" style="stop-color:#BEBDBD"/>
			<stop  offset="0.427" style="stop-color:#D7D7D7"/>
			<stop  offset="0.4992" style="stop-color:#FAFAFA"/>
			<stop  offset="0.5074" style="stop-color:#FFFFFF"/>
			<stop  offset="0.5273" style="stop-color:#F7F7F7"/>
			<stop  offset="0.6776" style="stop-color:#BFBEBE"/>
			<stop  offset="0.75" style="stop-color:#A9A8A8"/>
			<stop  offset="0.9872" style="stop-color:#090909"/>
			<stop  offset="1" style="stop-color:#000000"/>
		</linearGradient>
		
			<path id="SVGID_00000178892255576043130430000002729549765360869010_" style="fill:url(#SVGID_00000140715583093448912790000012770980328039549629_);stroke:#FFFFFF;stroke-width:8;stroke-miterlimit:8.4627;" d="
			M2153.29,642.57c23.2-26.82,55.03-86.1,92.25-89.22c2.7-0.63,5.39-0.63,8.09-0.63c6.47,0,15.11,1.87,21.58,4.37
			c3.78,1.87,7.01,3.74,9.71,5.62c-5.93,1.87-10.79,4.99-15.65,9.36c-8.09,7.49-15.65,21.21-17.26,44.3v297.59
			c4.32,45.54,41.54,54.28,46.94,54.28c1.62,0,3.24,0,4.32-0.63c3.78-1.87,9.17-5.62,14.03-9.98c2.7-1.87,5.93-4.37,8.63-6.86
			l6.47,9.36l-80.92,72.99c-60.96-9.36-93.87-44.92-98.19-94.2V722.43c-1.62-13.1-4.86-23.71-9.71-30.57
			c-10.25-14.98-22.66-16.22-23.2-16.22C2120.39,667.52,2129.02,670.65,2153.29,642.57z M2210.48,434.2
			c4.86,7.49,10.25,14.35,16.19,21.21c10.25,11.85,24.82,23.71,42.08,29.32l-56.65,56.15l-58.27-48.04L2210.48,434.2z"/>
	</g>
	<g>
		
			<linearGradient id="SVGID_00000035516871010337771480000012627580496126426040_" gradientUnits="userSpaceOnUse" x1="2302.0659" y1="431.3013" x2="2595.8599" y2="940.1674">
			<stop  offset="1.065558e-07" style="stop-color:#000000"/>
			<stop  offset="0.0293" style="stop-color:#191919"/>
			<stop  offset="0.1057" style="stop-color:#575656"/>
			<stop  offset="0.1707" style="stop-color:#838383"/>
			<stop  offset="0.2208" style="stop-color:#9F9E9E"/>
			<stop  offset="0.25" style="stop-color:#A9A8A8"/>
			<stop  offset="0.2984" style="stop-color:#AEADAD"/>
			<stop  offset="0.3593" style="stop-color:#BEBDBD"/>
			<stop  offset="0.427" style="stop-color:#D7D7D7"/>
			<stop  offset="0.4992" style="stop-color:#FAFAFA"/>
			<stop  offset="0.5074" style="stop-color:#FFFFFF"/>
			<stop  offset="0.5273" style="stop-color:#F7F7F7"/>
			<stop  offset="0.6776" style="stop-color:#BFBEBE"/>
			<stop  offset="0.75" style="stop-color:#A9A8A8"/>
			<stop  offset="0.9872" style="stop-color:#090909"/>
			<stop  offset="1" style="stop-color:#000000"/>
		</linearGradient>
		
			<path id="SVGID_00000023972044649488002920000003455113157394915489_" style="fill:url(#SVGID_00000035516871010337771480000012627580496126426040_);stroke:#FFFFFF;stroke-width:8;stroke-miterlimit:8.4627;" d="
			M2332.4,495.34c0-53.03,71.75-35.56,153.76-170.32c-27.51,54.9-31.83,99.2-32.37,126.03v449.19c3.24,46.79,41.54,57.4,47.48,57.4
			c1.62,0,2.7,0,3.78-0.63c3.78-1.87,9.17-5.62,14.03-9.98c2.7-1.87,5.93-4.37,8.63-7.49l6.47,9.98l-80.92,72.99
			c-62.04-9.36-95.49-47.42-98.19-97.32V532.15c0-22.46-7.55-34.94-22.12-36.81L2332.4,495.34L2332.4,495.34z"/>
	</g>
	<g>
		
			<linearGradient id="SVGID_00000043429075475252926450000001674747363865891720_" gradientUnits="userSpaceOnUse" x1="2587.6772" y1="631.2076" x2="2800.697" y2="1000.1687">
			<stop  offset="1.065558e-07" style="stop-color:#000000"/>
			<stop  offset="0.0293" style="stop-color:#191919"/>
			<stop  offset="0.1057" style="stop-color:#575656"/>
			<stop  offset="0.1707" style="stop-color:#838383"/>
			<stop  offset="0.2208" style="stop-color:#9F9E9E"/>
			<stop  offset="0.25" style="stop-color:#A9A8A8"/>
			<stop  offset="0.2984" style="stop-color:#AEADAD"/>
			<stop  offset="0.3593" style="stop-color:#BEBDBD"/>
			<stop  offset="0.427" style="stop-color:#D7D7D7"/>
			<stop  offset="0.4992" style="stop-color:#FAFAFA"/>
			<stop  offset="0.5074" style="stop-color:#FFFFFF"/>
			<stop  offset="0.5273" style="stop-color:#F7F7F7"/>
			<stop  offset="0.6776" style="stop-color:#BFBEBE"/>
			<stop  offset="0.75" style="stop-color:#A9A8A8"/>
			<stop  offset="0.9872" style="stop-color:#090909"/>
			<stop  offset="1" style="stop-color:#000000"/>
		</linearGradient>
		
			<path id="SVGID_00000088109499777133505110000018300047171956941193_" style="fill:url(#SVGID_00000043429075475252926450000001674747363865891720_);stroke:#FFFFFF;stroke-width:8;stroke-miterlimit:8.4627;" d="
			M2528.78,1004.42c0-0.63-0.54-3.74,3.24-11.85c18.88-41.8,48.55-84.84,99.81-124.77c8.09,2.5,14.57,5.62,21.04,8.73v-82.35
			c-14.57-22.46-25.36-40.56-29.67-49.91c-8.09-16.22-11.87-31.82-11.87-47.42c0-6.24,0-29.95,15.65-58.65
			c15.11-28.7,38.84-49.29,50.17-58.65c-7.55,8.73-11.33,18.72-11.33,29.95c0,8.73,1.62,28.7,23.74,71.12
			c10.25-49.91,34.53-112.92,126.78-129.77c-12.41,14.35-18.88,43.67-18.88,67.38c0,1.87-0.54,13.1,3.78,28.7
			c-55.57,4.99-91.17,19.96-104.12,47.42c24.28,43.04,57.19,92.33,79.31,142.87c15.11,34.31,12.95,47.42,12.95,51.78
			c0,31.2-17.8,51.16-39.38,77.98c-13.49,16.85-27.51,34.94-32.37,59.89c-17.8-20.59-37.23-41.17-58.27-56.77v49.29
			c3.78,10.6,8.63,18.09,12.41,23.08c2.16,3.12,4.32,4.99,6.47,6.86l-18.88,29.32v3.12h-6.47v-11.23
			c-3.78-9.36-8.09-17.47-12.41-23.08c-2.16-3.12-4.32-4.99-5.93-6.86l18.34-28.08v-47.42c-18.88-12.48-36.69-20.59-53.41-20.59
			c-22.12,0-45.86,16.85-56.11,39.3c-5.93,10.6,2.16,24.33-9.71,24.33C2530.4,1008.16,2528.78,1006.92,2528.78,1004.42z
			 M2659.33,880.27c41,23.08,64.74,60.52,73.37,79.86c0-1.25,0.54-3.12,0.54-4.37c0-12.48-7.55-34.31-22.12-62.39
			c-15.11-28.08-34.53-60.52-51.79-87.97V880.27z"/>
	</g>
	<g>
		
			<linearGradient id="SVGID_00000087408320529011734870000012564064303903285890_" gradientUnits="userSpaceOnUse" x1="3165.1738" y1="467.0576" x2="3449.7114" y2="959.8912">
			<stop  offset="1.065558e-07" style="stop-color:#000000"/>
			<stop  offset="0.0293" style="stop-color:#191919"/>
			<stop  offset="0.1057" style="stop-color:#575656"/>
			<stop  offset="0.1707" style="stop-color:#838383"/>
			<stop  offset="0.2208" style="stop-color:#9F9E9E"/>
			<stop  offset="0.25" style="stop-color:#A9A8A8"/>
			<stop  offset="0.2984" style="stop-color:#AEADAD"/>
			<stop  offset="0.3593" style="stop-color:#BEBDBD"/>
			<stop  offset="0.427" style="stop-color:#D7D7D7"/>
			<stop  offset="0.4992" style="stop-color:#FAFAFA"/>
			<stop  offset="0.5074" style="stop-color:#FFFFFF"/>
			<stop  offset="0.5273" style="stop-color:#F7F7F7"/>
			<stop  offset="0.6776" style="stop-color:#BFBEBE"/>
			<stop  offset="0.75" style="stop-color:#A9A8A8"/>
			<stop  offset="0.9872" style="stop-color:#090909"/>
			<stop  offset="1" style="stop-color:#000000"/>
		</linearGradient>
		
			<path id="SVGID_00000166650785877721610770000018253219005195468419_" style="fill:url(#SVGID_00000087408320529011734870000012564064303903285890_);stroke:#FFFFFF;stroke-width:8;stroke-miterlimit:8.4627;" d="
			M3223.24,596.42l106.82,104.81V454.18c-0.54-24.95-10.79-39.3-21.04-47.42c-5.93-4.37-12.95-8.11-21.04-9.98
			c1.62-1.87,4.32-3.12,8.09-4.99c5.93-2.5,16.18-4.99,31.83-4.99c30.75,0,55.57,28.08,74.45,53.65
			c44.24,66.13,58.8,59.27,58.8,68.62l-4.32,1.24c-9.17,2.5-24.82,13.1-28.05,46.17v384.31l21.58,18.72
			c-51.25,9.98-123.01,41.17-165.63,67.38c-63.66-76.11-167.78-108.55-167.78-200.89C3116.96,718.71,3223.24,650.7,3223.24,596.42z
			 M3218.39,842.23c0,56.77,29.67,120.41,55.03,120.41c4.32-1.87,51.79-23.71,56.65-26.82V717.46l-38.84-36.18
			c-13.49,14.35-25.9,29.95-36.69,46.79c-9.17,14.35-17.8,31.82-24.82,51.16C3222.17,798.56,3218.39,819.77,3218.39,842.23z"/>
	</g>
	<g>
		
			<linearGradient id="SVGID_00000008828428629139656370000012971464047096393388_" gradientUnits="userSpaceOnUse" x1="3599.031" y1="565.6183" x2="3864.8054" y2="1025.9534">
			<stop  offset="1.065558e-07" style="stop-color:#000000"/>
			<stop  offset="0.0293" style="stop-color:#191919"/>
			<stop  offset="0.1057" style="stop-color:#575656"/>
			<stop  offset="0.1707" style="stop-color:#838383"/>
			<stop  offset="0.2208" style="stop-color:#9F9E9E"/>
			<stop  offset="0.25" style="stop-color:#A9A8A8"/>
			<stop  offset="0.2984" style="stop-color:#AEADAD"/>
			<stop  offset="0.3593" style="stop-color:#BEBDBD"/>
			<stop  offset="0.427" style="stop-color:#D7D7D7"/>
			<stop  offset="0.4992" style="stop-color:#FAFAFA"/>
			<stop  offset="0.5074" style="stop-color:#FFFFFF"/>
			<stop  offset="0.5273" style="stop-color:#F7F7F7"/>
			<stop  offset="0.6776" style="stop-color:#BFBEBE"/>
			<stop  offset="0.75" style="stop-color:#A9A8A8"/>
			<stop  offset="0.9872" style="stop-color:#090909"/>
			<stop  offset="1" style="stop-color:#000000"/>
		</linearGradient>
		
			<path id="SVGID_00000165236061326800972460000000195428009802720684_" style="fill:url(#SVGID_00000008828428629139656370000012971464047096393388_);stroke:#FFFFFF;stroke-width:8;stroke-miterlimit:8.4627;" d="
			M3504.31,656.94c0-8.73,22.12,4.99,48.01-36.81c21.58-29.95,49.63-69.25,87.94-69.25c15.65,0,25.9,2.5,31.83,4.99
			c3.78,1.87,6.47,3.12,8.09,4.37c-8.09,1.87-15.11,5.62-21.04,9.98c-10.25,7.49-20.5,20.59-20.5,42.43v247.68
			c0,58.65,33.45,96.7,60.42,96.7c6.47,0,12.41-2.5,18.34-6.86c1.62-0.63,2.7-1.87,4.32-3.12c2.16-1.87,4.86-4.37,7.55-6.86
			c-1.08-7.49-1.62-14.98-1.62-23.08V703.73c-2.16-22.46-9.71-34.31-16.72-41.17c-3.78-3.74-8.63-6.24-13.49-6.86
			c0-9.36,22.12,5.62,48.02-36.18c21.58-29.95,48.55-69.25,87.94-69.25c15.65,0,25.9,2.5,31.83,4.99c3.78,1.87,6.47,3.12,8.09,4.37
			c-8.09,1.87-15.11,5.62-21.04,9.98c-10.25,7.49-20.5,19.96-20.5,41.8v290.73c0,42.43,22.12,79.86,43.16,79.86
			c2.16,0,4.86-0.63,8.63-2.5c1.62-0.63,3.78-2.5,6.47-4.37l7.55-6.24c2.7-1.87,5.93-4.37,8.63-6.86l6.47,9.98l-80.92,73
			c-52.33-8.11-87.94-45.54-100.35-93.58l-92.79,94.2c-15.11-5.62-29.13-13.72-42.08-24.33c-22.12-18.09-46.94-47.42-56.11-94.2
			c-3.78-19.34-5.93-41.17-5.93-66.75V704.36c-2.16-22.46-9.71-33.69-16.72-40.56C3514.03,660.06,3509.17,657.57,3504.31,656.94z"/>
	</g>
	<g>
		
			<linearGradient id="SVGID_00000011004275387875644710000011257069601164442773_" gradientUnits="userSpaceOnUse" x1="4296.5396" y1="503.4622" x2="4704.1074" y2="1209.39">
			<stop  offset="1.065558e-07" style="stop-color:#000000"/>
			<stop  offset="0.0293" style="stop-color:#191919"/>
			<stop  offset="0.1057" style="stop-color:#575656"/>
			<stop  offset="0.1707" style="stop-color:#838383"/>
			<stop  offset="0.2208" style="stop-color:#9F9E9E"/>
			<stop  offset="0.25" style="stop-color:#A9A8A8"/>
			<stop  offset="0.2984" style="stop-color:#AEADAD"/>
			<stop  offset="0.3593" style="stop-color:#BEBDBD"/>
			<stop  offset="0.427" style="stop-color:#D7D7D7"/>
			<stop  offset="0.4992" style="stop-color:#FAFAFA"/>
			<stop  offset="0.5074" style="stop-color:#FFFFFF"/>
			<stop  offset="0.5273" style="stop-color:#F7F7F7"/>
			<stop  offset="0.6776" style="stop-color:#BFBEBE"/>
			<stop  offset="0.75" style="stop-color:#A9A8A8"/>
			<stop  offset="0.9872" style="stop-color:#090909"/>
			<stop  offset="1" style="stop-color:#000000"/>
		</linearGradient>
		
			<path id="SVGID_00000170263966400992611620000004675056329737905319_" style="fill:url(#SVGID_00000011004275387875644710000011257069601164442773_);stroke:#FFFFFF;stroke-width:8;stroke-miterlimit:8.4627;" d="
			M4165.82,688.14c0-2.5,1.62-4.37,4.32-4.99c1.62-0.63,2.7-0.63,3.78-0.63c3.24,0,5.4,2.5,7.55,7.49
			c2.16,5.62,3.78,13.1,9.71,18.09c13.49,9.98,21.58,12.48,30.75,12.48c2.16,0,4.32-0.63,6.47-0.63
			c12.41-0.63,19.42-9.36,22.12-23.71c0.54-3.12,1.08-6.86,1.08-10.61c0-11.85-2.7-30.57-14.03-53.03
			c-5.93-11.85-9.17-24.95-9.17-38.06c0-3.12,0.54-9.36,1.62-19.34c1.08-9.98,6.47-20.59,16.72-32.44
			c4.86-5.62,9.71-9.36,14.57-12.48l101.43-64.88c14.57-9.36,30.21-14.98,45.32-14.98c31.83,0,58.81,26.21,64.74,103.56l38.84-32.44
			c2.16-1.87,4.32-3.12,5.93-4.37c4.32-4.37,8.63-8.11,14.57-12.48v-36.81h7.01v31.82c16.19-11.85,75.53-54.9,95.49-77.98
			l28.59,68.01c7.01,16.85,14.03,34.31,22.12,53.65c13.49,32.44,31.29,77.36,48.55,122.9c2.7,7.49,4.32,14.98,4.32,21.84
			c0,12.48-4.86,29.32-27.51,51.16c-22.66,21.84-57.19,42.43-92.25,69.88c56.11,87.34,122.47,267.65,196.92,296.97
			c4.32-6.24,7.55-10.6,12.95-16.85c18.88-23.71,2.16-39.3,19.42-41.17c0.54,0,0.54,0,1.08,0c6.47,0,5.4,6.24,5.4,6.86
			c0,4.37-1.62,8.73-3.78,13.1c-3.78,9.98-8.09,16.85-14.03,24.33c-17.26,21.84-33.99,43.04-59.34,74.87
			c-60.96,0-108.98-53.03-144.58-117.29c-36.15-64.26-66.36-136.63-93.33-179.05v105.44c3.78,11.85,8.63,18.09,12.41,23.08
			c2.16,3.12,4.32,4.99,6.47,6.86l-18.88,29.95v84.23h-7.01v-92.33c-3.78-9.36-8.09-17.47-12.41-23.08
			c-2.16-3.12-4.32-4.99-5.93-6.86l18.34-28.08V863.44c-18.88-26.82-31.83-33.07-58.27-43.04v126.03c0,23.08,6.47,34.94,19.96,36.18
			c0,26.82-23.74,54.28-53.41,94.83c-29.67,39.93-63.66,92.96-85.24,172.19c-1.62,6.86-2.16,11.85-3.78,16.22
			c1.62-5.62,2.16-10.6,3.78-16.22c10.25-52.4,17.26-170.94,17.26-202.76V822.9c-21.04,9.36-42.62,23.08-62.58,47.42
			c-4.86,5.62-7.01,14.98-9.17,22.46c-2.16,7.49-4.86,10.6-8.09,10.6c-1.08,0-2.16,0-3.24-0.63c-2.16-1.24-3.78-3.12-3.78-5.62
			c0-1.24,0-4.99,4.86-13.72c4.32-8.73,11.87-18.09,16.72-23.71c23.2-26.82,45.32-48.04,65.28-66.13V616.39
			c0-4.99,0-9.98-0.54-14.35c-2.16-72.37-14.03-102.94-33.45-102.94c-5.4,0-11.33,1.87-17.26,6.24
			c-10.25,6.86-16.18,14.35-16.72,21.84c-1.08,6.86-1.08,12.48-1.08,14.98c0,8.73,1.08,17.47,3.78,25.58
			c5.93,21.84,19.42,42.43,38.84,56.78c-11.33,39.93-46.94,98.57-97.65,106.68c-10.79,1.87-22.12,2.5-34.53-1.87
			c-13.49-4.37-27.51-11.85-39.92-26.21c-3.78-4.37-5.93-8.11-7.55-12.48C4165.82,689.38,4165.82,688.76,4165.82,688.14z
			 M4473.87,572.09v160.96c9.71-3.12,19.96-4.37,30.21-4.37s19.42,1.24,28.05,4.37V527.17c-9.17,0-17.8,3.12-25.9,8.73l-32.91,27.45
			C4473.87,566.48,4473.87,568.97,4473.87,572.09z M4539.15,735.55c28.05,11.85,50.71,35.56,71.75,65.51c0.54,0,1.08-0.63,1.62-1.25
			c20.5-17.47,30.21-29.32,30.21-48.04c0-1.87,1.08-8.73-5.93-28.7c0-0.63-0.54-1.24-1.08-3.12l-63.12-169.7
			c-8.09-13.1-20.5-20.59-33.45-22.46V735.55z"/>
	</g>
	<g>
		
			<linearGradient id="SVGID_00000036962916950301037420000002776458871220884659_" gradientUnits="userSpaceOnUse" x1="4871.3975" y1="612.939" x2="5064.2754" y2="947.0131">
			<stop  offset="1.065558e-07" style="stop-color:#000000"/>
			<stop  offset="0.0293" style="stop-color:#191919"/>
			<stop  offset="0.1057" style="stop-color:#575656"/>
			<stop  offset="0.1707" style="stop-color:#838383"/>
			<stop  offset="0.2208" style="stop-color:#9F9E9E"/>
			<stop  offset="0.25" style="stop-color:#A9A8A8"/>
			<stop  offset="0.2984" style="stop-color:#AEADAD"/>
			<stop  offset="0.3593" style="stop-color:#BEBDBD"/>
			<stop  offset="0.427" style="stop-color:#D7D7D7"/>
			<stop  offset="0.4992" style="stop-color:#FAFAFA"/>
			<stop  offset="0.5074" style="stop-color:#FFFFFF"/>
			<stop  offset="0.5273" style="stop-color:#F7F7F7"/>
			<stop  offset="0.6776" style="stop-color:#BFBEBE"/>
			<stop  offset="0.75" style="stop-color:#A9A8A8"/>
			<stop  offset="0.9872" style="stop-color:#090909"/>
			<stop  offset="1" style="stop-color:#000000"/>
		</linearGradient>
		
			<path id="SVGID_00000073000720086612752770000006979923219804750756_" style="fill:url(#SVGID_00000036962916950301037420000002776458871220884659_);stroke:#FFFFFF;stroke-width:8;stroke-miterlimit:8.4627;" d="
			M4890.89,621.38c16.72-13.72,32.37-29.32,48.02-47.42h138.11v308.2c8.63,6.86,14.57,14.98,18.88,21.84
			c2.7,4.37,4.86,8.11,6.47,11.85c-32.91,0-68.52,23.08-96.03,46.17c-16.19,13.72-31.83,28.7-46.94,45.54h-4.32
			c-108.98,0-137.03-66.75-137.03-160.96V701.24c-8.63-6.86-14.57-14.98-18.88-21.84c-2.7-3.74-4.86-7.49-6.47-11.23
			C4826.69,668.17,4862.83,645.71,4890.89,621.38z M4916.24,892.14c0,44.3,9.71,57.4,37.76,57.4h7.01
			c5.93-4.37,10.25-7.49,16.19-11.85V694.37h-53.41c-2.7,1.87-4.86,3.12-7.55,4.99V892.14z"/>
	</g>
	<g>
		
			<linearGradient id="SVGID_00000054949999657474247930000016972216529118398399_" gradientUnits="userSpaceOnUse" x1="5100.6172" y1="506.5532" x2="5370.207" y2="973.4965">
			<stop  offset="1.065558e-07" style="stop-color:#000000"/>
			<stop  offset="0.0293" style="stop-color:#191919"/>
			<stop  offset="0.1057" style="stop-color:#575656"/>
			<stop  offset="0.1707" style="stop-color:#838383"/>
			<stop  offset="0.2208" style="stop-color:#9F9E9E"/>
			<stop  offset="0.25" style="stop-color:#A9A8A8"/>
			<stop  offset="0.2984" style="stop-color:#AEADAD"/>
			<stop  offset="0.3593" style="stop-color:#BEBDBD"/>
			<stop  offset="0.427" style="stop-color:#D7D7D7"/>
			<stop  offset="0.4992" style="stop-color:#FAFAFA"/>
			<stop  offset="0.5074" style="stop-color:#FFFFFF"/>
			<stop  offset="0.5273" style="stop-color:#F7F7F7"/>
			<stop  offset="0.6776" style="stop-color:#BFBEBE"/>
			<stop  offset="0.75" style="stop-color:#A9A8A8"/>
			<stop  offset="0.9872" style="stop-color:#090909"/>
			<stop  offset="1" style="stop-color:#000000"/>
		</linearGradient>
		
			<path id="SVGID_00000025400611894402967200000000688062232680014758_" style="fill:url(#SVGID_00000054949999657474247930000016972216529118398399_);stroke:#FFFFFF;stroke-width:8;stroke-miterlimit:8.4627;" d="
			M5167.64,643.21c23.2-26.82,55.03-86.1,92.25-89.22c2.7-0.63,5.4-0.63,8.09-0.63c6.47,0,15.11,1.87,21.58,4.37
			c3.78,1.87,7.01,3.74,9.71,5.62c-5.93,1.87-10.79,4.99-15.65,9.36c-8.09,7.49-15.65,21.21-17.26,44.3V914.6
			c4.32,45.54,41.54,54.28,46.94,54.28c1.62,0,3.24,0,4.32-0.63c3.78-1.87,9.17-5.62,14.03-9.98c2.7-1.87,5.93-4.37,8.63-6.86
			l6.47,9.36l-80.92,72.99c-60.96-9.36-93.87-44.92-98.19-94.2V723.07c-1.62-13.1-4.86-23.71-9.71-30.57
			c-10.25-14.98-22.66-16.22-23.2-16.22C5134.73,668.17,5143.36,671.29,5167.64,643.21z M5224.83,434.84
			c4.86,7.49,10.25,14.35,16.19,21.21c10.25,11.85,24.82,23.71,42.08,29.32l-56.65,56.15l-58.27-48.04L5224.83,434.84z"/>
	</g>
</g>
</svg>
