<?xml version="1.0" encoding="UTF-8"?>
<svg id="Calque_1" xmlns="http://www.w3.org/2000/svg" version="1.1" viewBox="0 0 207.7 24">
  <!-- Generator: Adobe Illustrator 29.0.1, SVG Export Plug-In . SVG Version: 2.1.0 Build 192)  -->
  <defs>
    <style>
      .st0 {
        fill: #d4af37;
      }
    </style>
  </defs>
  <g id="OBJECTS">
    <g>
      <polygon class="st0" points="79.8 14 77.9 12.1 79.9 10.1 81.7 12 79.8 14"/>
      <polygon class="st0" points="127.9 14 126 12.1 128 10.1 129.8 12 127.9 14"/>
      <path class="st0" d="M104.2,24l-11.8-12L104.2,0l11.8,12-11.8,12ZM92.6,12l11.5,11.7,11.5-11.7L104.2.3l-11.5,11.7Z"/>
      <path class="st0" d="M123.4,16.7l-2.3-2.4,2.3-2.3-2.3-2.3,2.3-2.4,4.6,4.7-4.6,4.7ZM121.3,14.4l2.1,2.1,4.4-4.4-4.4-4.4-2.1,2.1,2.3,2.3-2.3,2.3Z"/>
      <path class="st0" d="M119,16.7l-4.6-4.7,4.6-4.7,4.6,4.7-4.6,4.7ZM114.6,12l4.4,4.4,4.4-4.4-4.4-4.4-4.4,4.4Z"/>
      <path class="st0" d="M104.1,22.5l-10.4-10.5,10.4-10.5,10.4,10.5-10.4,10.5ZM94,12l10.1,10.3,10.1-10.3-10.1-10.3-10.1,10.3Z"/>
      <path class="st0" d="M89.2,16.7l-4.6-4.7,4.6-4.7,4.6,4.7-4.6,4.7ZM84.8,12l4.4,4.4,4.4-4.4-4.4-4.4-4.4,4.4Z"/>
      <path class="st0" d="M84.3,16.7l-4.6-4.7,4.6-4.7,2.5,2.6-2.1,2.1,2.1,2.1-2.5,2.6ZM80,12l4.4,4.4,2.3-2.3-2.1-2.1,2.1-2.1-2.3-2.3-4.4,4.4Z"/>
      <rect class="st0" x="129.3" y="11.8" width="78.4" height=".6"/>
      <rect class="st0" y="11.8" width="78.4" height=".6"/>
    </g>
  </g>
</svg>